<?xml version="1.0" standalone="no"?>
<!DOCTYPE svg PUBLIC "-//W3C//DTD SVG 1.1//EN" "http://www.w3.org/Graphics/SVG/1.1/DTD/svg11.dtd" >
<svg xmlns="http://www.w3.org/2000/svg">
<metadata></metadata>
<defs>
<font id="rubriksemibold" horiz-adv-x="1286" >
<font-face units-per-em="2048" ascent="1536" descent="-512" />
<missing-glyph horiz-adv-x="587" />
<glyph unicode="&#xfb01;" horiz-adv-x="1476" d="M43 934q0 54 36.5 88.5t90.5 34.5h49v53q0 183 97.5 282t267.5 99q112 0 207 -27q106 -31 106 -131q0 -49 -34.5 -84t-94.5 -35q-20 0 -72 9.5t-86 9.5q-56 0 -86 -34t-30 -99v-43h237q52 0 88.5 -35t36.5 -88q0 -50 -36.5 -84.5t-88.5 -34.5h-237v-680q0 -62 -39 -103.5 t-99 -41.5q-57 0 -97 42t-40 103v680h-49q-54 0 -90.5 34t-36.5 85zM1036 1366q0 62 41.5 103.5t104.5 41.5q60 0 102.5 -42t42.5 -103q0 -60 -42.5 -104.5t-102.5 -44.5q-62 0 -104 44t-42 105zM1044 131v832q0 60 39 100.5t99 40.5q57 0 97 -40.5t40 -100.5v-832 q0 -59 -39.5 -100t-97.5 -41q-56 0 -97 41.5t-41 99.5z" />
<glyph horiz-adv-x="2048" />
<glyph horiz-adv-x="2048" />
<glyph unicode="&#xd;" horiz-adv-x="2048" />
<glyph unicode=" "  horiz-adv-x="587" />
<glyph unicode="&#x09;" horiz-adv-x="587" />
<glyph unicode="&#xa0;" horiz-adv-x="587" />
<glyph unicode="!" horiz-adv-x="493" d="M109 1305q-3 58 37.5 99.5t99.5 41.5q57 0 98.5 -42t40.5 -99l-18 -713q-3 -51 -37.5 -84t-85.5 -33q-50 0 -83.5 33.5t-35.5 83.5zM121 104v97q0 51 35 84.5t90 33.5q54 0 89.5 -33.5t35.5 -84.5v-97q0 -50 -35.5 -84t-89.5 -34q-55 0 -90 34t-35 84z" />
<glyph unicode="&#x22;" horiz-adv-x="804" d="M102 1012v313q0 52 34 86.5t89 34.5q54 0 89.5 -35t35.5 -86v-313q0 -51 -35.5 -86t-89.5 -35q-55 0 -89 34.5t-34 86.5zM455 1012v313q0 52 35 86.5t90 34.5q53 0 87.5 -34.5t34.5 -86.5v-313q0 -52 -34.5 -86.5t-87.5 -34.5q-55 0 -90 34.5t-35 86.5z" />
<glyph unicode="#" horiz-adv-x="1452" d="M59 485q0 49 39 86t92 37h154l80 244h-76q-55 0 -92 35t-37 88q0 50 38.5 86.5t90.5 36.5h156l88 266q13 40 47.5 64t73.5 24q64 0 98 -53t14 -115l-61 -186h168l88 266q12 40 46 64t75 24q64 0 98 -53t14 -115l-61 -186h70q53 0 92 -37t39 -86q0 -53 -38 -88t-93 -35 h-152l-80 -244h74q52 0 90.5 -36.5t38.5 -86.5q0 -52 -37.5 -88.5t-91.5 -36.5h-154l-94 -288q-12 -42 -45 -66t-74 -24q-63 0 -99.5 54t-14.5 116l67 208h-168l-94 -288q-12 -42 -45 -66t-74 -24q-63 0 -99.5 54t-14.5 116l67 208h-74q-55 0 -92 36t-37 89zM604 608h166 l80 244h-166z" />
<glyph unicode="$" horiz-adv-x="1249" d="M90 295q0 60 41 100.5t100 40.5q52 0 103 -39q60 -45 143.5 -74.5t163.5 -29.5q110 0 166.5 37t56.5 108q0 64 -64 98.5t-216 67.5q-247 53 -357 145t-110 271q0 149 106 254t279 135v80q0 51 37 90t86 39q51 0 85.5 -37.5t34.5 -91.5v-74q92 -10 168 -39.5t123 -70.5 q47 -38 47 -109q0 -54 -38 -91.5t-95 -37.5q-34 0 -98 31q-103 59 -236 59q-111 0 -162 -39.5t-51 -97.5q0 -24 6.5 -42t23.5 -33t35 -25t52.5 -20.5t63.5 -17.5t80 -18q266 -60 377.5 -157.5t111.5 -266.5q0 -160 -110.5 -274t-297.5 -137v-84q0 -54 -34.5 -91.5 t-85.5 -37.5q-49 0 -86 39t-37 90v90q-210 32 -340 135q-72 56 -72 125z" />
<glyph unicode="%" horiz-adv-x="1726" d="M59 1024q-3 57 0 109q8 136 103 228.5t231 92.5q135 0 229.5 -92t102.5 -227q3 -56 0 -109q-8 -135 -102.5 -227t-229.5 -92t-230.5 92t-103.5 225zM272 1030q5 -51 37 -84t82 -33q51 0 83.5 33t37.5 84q7 49 0 98q-5 51 -37.5 84t-83.5 33q-49 0 -81 -33t-38 -84 q-3 -46 0 -98zM376.5 292.5q-3.5 56.5 29.5 94.5l735 846q36 40 91 43t91 -29q42 -36 45.5 -92t-31.5 -94l-735 -844q-35 -40 -89.5 -44t-94.5 30q-38 33 -41.5 89.5zM1001 299q-3 57 0 109q6 134 101 226.5t231 92.5q135 0 229.5 -92t102.5 -227q3 -53 0 -109 q-8 -134 -102 -225.5t-230 -91.5t-231 91.5t-101 225.5zM1214 303q5 -51 36.5 -83t82.5 -32t82.5 32.5t36.5 84.5q7 49 0 98q-5 51 -36.5 84t-82.5 33t-82.5 -33t-36.5 -84q-7 -47 0 -100z" />
<glyph unicode="&#x26;" horiz-adv-x="1466" d="M86 412q0 237 250 352q-170 136 -170 313q0 165 130 268t339 103q217 0 347 -105t130 -262q0 -87 -27 -151.5t-88 -116t-148.5 -91t-219.5 -79.5q-150 -41 -206 -89.5t-56 -123.5q0 -82 71.5 -134t198.5 -52q146 0 237 75t97 195q5 94 46 142.5t128 48.5h143 q59 0 101.5 -39.5t42.5 -98.5q0 -57 -41 -97t-101 -40h-90q-33 -211 -185.5 -329.5t-373.5 -118.5q-263 0 -409 120t-146 310zM446 1044q0 -37 22 -70.5t46 -52t61 -40.5q149 31 200.5 66t51.5 104q0 58 -47 98.5t-143 40.5q-93 0 -142 -41t-49 -105z" />
<glyph unicode="'" horiz-adv-x="450" d="M102 1012v313q0 52 34 86.5t89 34.5q54 0 89.5 -35t35.5 -86v-313q0 -51 -35.5 -86t-89.5 -35q-55 0 -89 34.5t-34 86.5z" />
<glyph unicode="(" horiz-adv-x="739" d="M109 633q0 265 100.5 515.5t300.5 438.5q54 46 112 34.5t91 -60.5q27 -44 19 -92.5t-44 -86.5q-305 -302 -305 -749q0 -448 305 -750q36 -38 44 -86t-19 -92q-33 -50 -91 -61.5t-112 34.5q-200 188 -300.5 439t-100.5 516z" />
<glyph unicode=")" horiz-adv-x="739" d="M7.5 -203q7.5 48 43.5 86q307 304 307 750q0 445 -307 749q-36 38 -43.5 86.5t19.5 92.5q33 49 91.5 60.5t110.5 -34.5q200 -188 301 -439t101 -515t-101 -515.5t-301 -439.5q-52 -46 -110.5 -34.5t-91.5 61.5q-27 44 -19.5 92z" />
<glyph unicode="*" horiz-adv-x="856" d="M79.5 981q21.5 41 74.5 59l131 52l-131 53q-50 20 -71.5 60t1.5 85q19 32 51 43.5t66 -2.5q17 -7 43 -26l112 -86l-20 131q-3 28 0 53q5 36 30.5 60t61.5 24q37 0 63 -23.5t31 -60.5q2 -16 -2 -53l-20 -133l112 88q26 19 43 26q32 14 66 2.5t53 -43.5q22 -43 -0.5 -85 t-71.5 -60l-135 -53l135 -52q52 -18 74.5 -59t-2.5 -86q-18 -31 -53.5 -42.5t-67.5 1.5q-23 10 -41 25l-112 88l20 -133q4 -37 2 -54q-5 -35 -31 -58.5t-63 -23.5q-36 0 -61.5 23t-30.5 59q-3 25 0 54l20 131l-112 -86q-18 -15 -41 -25q-32 -13 -66.5 -1.5t-52.5 42.5 q-26 45 -4.5 86z" />
<glyph unicode="+" d="M121 717q0 55 38.5 93t94.5 38h258v258q0 55 39 94t92 39q56 0 93.5 -38.5t37.5 -94.5v-258h256q56 0 94.5 -38t38.5 -93q0 -54 -39.5 -92.5t-93.5 -38.5h-256v-260q0 -56 -37.5 -94.5t-93.5 -38.5q-53 0 -92 40t-39 93v260h-258q-55 0 -94 38.5t-39 92.5z" />
<glyph unicode="," horiz-adv-x="477" d="M63 -117q0 24 26 81t26 120v127q0 51 35.5 86t89.5 35q53 0 90 -35t37 -86v-92q0 -157 -60 -262q-51 -82 -133 -82q-49 0 -80 33t-31 75z" />
<glyph unicode="-" horiz-adv-x="667" d="M72 588q0 59 40.5 99t100.5 40h242q59 0 100 -40t41 -99q0 -56 -41.5 -96.5t-99.5 -40.5h-242q-60 0 -100.5 39.5t-40.5 97.5z" />
<glyph unicode="." horiz-adv-x="571" d="M113 106v111q0 54 36 89.5t91 35.5q52 0 88.5 -36t36.5 -89v-111q0 -54 -35.5 -89t-89.5 -35q-53 0 -90 35.5t-37 88.5z" />
<glyph unicode="/" horiz-adv-x="790" d="M10 15.5q-22 52.5 0 107.5l516 1288q22 55 74 78.5t105 3.5q53 -22 75 -75t0 -107l-516 -1291q-22 -55 -73.5 -77t-106.5 -2q-52 22 -74 74.5z" />
<glyph unicode="0" horiz-adv-x="1466" d="M158 530q-14 195 0 377q19 249 173.5 399t401.5 150q244 0 400.5 -152t175.5 -397q14 -187 0 -377q-19 -245 -175.5 -396.5t-400.5 -151.5q-246 0 -402 151t-173 397zM438 571q9 -151 87.5 -236t207.5 -85q128 0 207 85.5t88 235.5q8 119 0 301q-9 150 -88 234t-207 84 q-130 0 -209 -84t-86 -234q-8 -182 0 -301z" />
<glyph unicode="1" horiz-adv-x="1046" d="M91.5 1119.5q16.5 55.5 66.5 84.5l405 228q36 20 74 20q63 0 101 -45t38 -98v-1176q0 -60 -39.5 -100.5t-99.5 -40.5q-56 0 -96.5 41.5t-40.5 99.5v946l-207 -116q-53 -29 -107.5 -14.5t-83.5 65.5q-27 50 -10.5 105.5z" />
<glyph unicode="2" horiz-adv-x="1243" d="M104 172q0 136 81.5 253t248.5 232l1 1q227 154 284 204q75 66 85 127q3 15 3 33q0 29 -10.5 57t-33.5 54.5t-65.5 42.5t-99.5 16q-146 0 -242 -115q-35 -43 -73 -55q-55 -17 -108.5 9t-68.5 77q-20 70 19 123q33 43 75.5 81t100 72.5t133 55t158.5 20.5q119 0 215 -34.5 t157 -93.5t93.5 -136.5t32.5 -165.5q0 -67 -15 -120t-56.5 -115t-118.5 -130t-198 -151q-9 -6 -45 -32t-49.5 -36.5t-44 -33.5t-45 -37.5l-33.5 -33.5t-28.5 -35.5t-12.5 -31.5h539q59 0 100 -40t41 -97q0 -59 -41 -98t-100 -39h-707q-77 0 -124.5 45.5t-47.5 126.5z" />
<glyph unicode="3" horiz-adv-x="1245" d="M68 1309q0 58 41 97.5t100 39.5h633q75 0 125.5 -48.5t50.5 -121.5q0 -70 -43 -113l-250 -258q168 -15 268.5 -115t100.5 -255q0 -179 -115 -303.5t-312 -182.5t-458 -55q-59 0 -97.5 36.5t-41.5 94.5q-3 61 41 106.5t104 36.5q160 -16 297.5 10.5t221 91.5t83.5 156 q0 77 -50.5 121.5t-137.5 44.5q-37 0 -100 -13t-80 -13q-50 0 -88.5 35t-38.5 90q0 59 53 102l274 276h-440q-58 0 -99.5 41.5t-41.5 98.5z" />
<glyph unicode="4" horiz-adv-x="1382" d="M106 543q6 46 41 86l521 702q91 123 196 123q95 0 142 -65.5t47 -163.5v-633h106q57 0 97 -40t40 -99q0 -53 -41 -95.5t-96 -42.5h-106v-180q0 -57 -41.5 -98t-98.5 -41q-59 0 -99 40t-40 99v180h-481q-102 0 -155 69t-32 159zM424 592h350v479z" />
<glyph unicode="5" horiz-adv-x="1273" d="M133 123q-3 63 38.5 103t104.5 40q184 0 318 28.5t214.5 94.5t80.5 164q0 79 -60.5 127.5t-158.5 48.5q-120 0 -287 -63q-101 -35 -157 6t-56 123v462q0 98 54.5 143.5t135.5 45.5h588q59 0 99 -38.5t40 -96.5q0 -57 -41.5 -98.5t-97.5 -41.5h-510v-235q72 29 135 44 t146 15q208 0 327 -122t119 -306q0 -139 -66.5 -249t-186 -181t-281.5 -108t-357 -37q-60 0 -99.5 37t-41.5 94z" />
<glyph unicode="6" horiz-adv-x="1400" d="M154 750q19 343 194.5 534t491.5 191q42 0 75.5 -2t75 -7.5t72.5 -17.5t58.5 -29.5t42 -46.5t14.5 -67q0 -59 -37.5 -94t-104.5 -35q-12 0 -77 9t-109 9q-145 0 -253.5 -80t-139.5 -231q160 65 315 65q118 0 213 -35t157 -97t95 -145.5t33 -181.5q0 -104 -35 -194.5 t-101.5 -161.5t-173.5 -112t-241 -41q-135 0 -237.5 40t-167.5 109t-103.5 168t-51 210t-5.5 243zM430 616q-6 -179 68.5 -270.5t226.5 -91.5q131 0 198.5 63t67.5 162q0 105 -71.5 159t-194.5 54q-134 0 -295 -76z" />
<glyph unicode="7" horiz-adv-x="1118" d="M49 1309q0 59 41 98t100 39h721q77 0 126.5 -45.5t49.5 -118.5q0 -49 -32 -104q-239 -392 -356 -623.5t-177 -456.5q-10 -39 -35 -65t-54 -35t-59.5 -6t-54.5 18q-87 49 -57 168q55 203 169.5 435t309.5 558h-551q-58 0 -99.5 40.5t-41.5 97.5z" />
<glyph unicode="8" horiz-adv-x="1427" d="M139 401q0 253 230 349q-197 83 -197 311q0 187 143.5 290t395.5 103q253 0 397.5 -102.5t144.5 -286.5q0 -220 -194 -315q227 -95 227 -349q0 -188 -148 -303.5t-425 -115.5q-276 0 -425 115.5t-149 303.5zM420 422q0 -86 72.5 -135t222.5 -49t223.5 50.5t73.5 133.5 q0 88 -78 138t-223 50q-144 0 -217.5 -49.5t-73.5 -138.5zM449 1042q0 -80 70 -122.5t194 -42.5q126 0 195 43t69 124q0 76 -66 118t-196 42q-131 0 -198.5 -42.5t-67.5 -119.5z" />
<glyph unicode="9" horiz-adv-x="1394" d="M129 948q0 106 36 197.5t103.5 161t173.5 109.5t238 40t233 -37.5t165.5 -103t103.5 -161t52 -203.5t7 -238q-10 -196 -68 -332.5t-169.5 -221t-266.5 -123.5t-372 -44q-63 -1 -104.5 36.5t-43.5 94.5q-3 55 34 98t101 47h1h1h1h1h1h1h1h1h1h1l2 1q197 8 290 32 q205 54 275 231l3 9q-149 -58 -318 -58q-226 0 -355.5 130.5t-129.5 334.5zM408 956q0 -106 71.5 -161.5t198.5 -55.5q55 0 110.5 12.5t86.5 24.5t90 37q3 188 -63.5 278.5t-225.5 90.5q-132 0 -200 -61.5t-68 -164.5z" />
<glyph unicode=":" horiz-adv-x="538" d="M143 104v97q0 57 33 94t92 37t93 -37.5t34 -93.5v-84q0 -56 -34.5 -93.5t-92.5 -37.5q-55 0 -90 34t-35 84zM143 813v92q0 56 33.5 93.5t91.5 37.5t92.5 -37.5t34.5 -93.5v-82q0 -55 -34.5 -92t-92.5 -37q-55 0 -90 34.5t-35 84.5z" />
<glyph unicode=";" horiz-adv-x="538" d="M125 -104q2 16 25.5 72.5t23.5 115.5v127q0 52 34 86.5t87 34.5q52 0 86.5 -35t34.5 -86v-43v-68q0 -48 -9.5 -100.5t-29.5 -105t-57.5 -86t-86.5 -33.5q-39 0 -66.5 22.5t-37.5 55.5q-4 28 -4 43zM172 813v92q0 56 33.5 93.5t91.5 37.5q57 0 91 -37.5t34 -93.5v-82 q0 -54 -34 -91.5t-91 -37.5q-55 0 -90 34.5t-35 84.5z" />
<glyph unicode="&#x3c;" d="M207 717q0 53 23 95.5t77 84.5l531 430q45 36 97.5 31t86.5 -47q36 -42 30 -96.5t-48 -88.5l-472 -381q-18 -13 -18 -28t18 -29l472 -381q42 -34 48 -88t-30 -96q-34 -42 -86.5 -47.5t-97.5 30.5l-531 431q-54 42 -77 84.5t-23 95.5z" />
<glyph unicode="=" d="M137 504q0 55 38.5 93t94.5 38h748q56 0 93.5 -37.5t37.5 -93.5q0 -54 -39 -92.5t-92 -38.5h-748q-55 0 -94 38.5t-39 92.5zM137 934q0 55 38.5 93t94.5 38h748q56 0 93.5 -37.5t37.5 -93.5q0 -54 -39 -92.5t-92 -38.5h-748q-55 0 -94 38.5t-39 92.5z" />
<glyph unicode="&#x3e;" d="M234.5 219q6.5 54 48.5 88l471 381q18 14 18 29t-18 28l-471 381q-42 34 -48.5 88.5t29.5 96.5q34 42 87 47t98 -31l530 -430q54 -42 77 -84.5t23 -95.5t-23 -95.5t-77 -84.5l-530 -431q-45 -36 -98 -30.5t-87 47.5q-36 42 -29.5 96z" />
<glyph unicode="?" horiz-adv-x="1128" d="M88 1159q0 48 37 96q76 97 193.5 148t250.5 51q201 0 327 -112t126 -291q0 -186 -106.5 -312.5t-327.5 -228.5q-49 -21 -92 -21q-48 0 -85.5 35t-37.5 84q0 89 88 129q150 67 217 131t67 156q0 71 -47 115.5t-129 44.5q-73 0 -127 -24t-108 -85q-49 -55 -111 -55 q-57 0 -96 42.5t-39 96.5zM381 106v95q0 51 36 86t91 35q54 0 89.5 -35t35.5 -86v-95q0 -51 -35.5 -85.5t-89.5 -34.5q-55 0 -91 35t-36 85z" />
<glyph unicode="@" horiz-adv-x="1822" d="M114 554.5q0 125.5 5 203.5q7 126 52 236.5t119 194t171 143.5t213 91t241 31q158 0 302 -51.5t253 -144t173.5 -230.5t64.5 -301v-297q0 -140 -88.5 -224.5t-210.5 -84.5q-143 0 -232.5 92t-89.5 215v186q0 74 -46 124t-121 50t-121.5 -50t-46.5 -124v-133 q0 -91 60.5 -130t135.5 -17q43 9 76.5 -11.5t42.5 -58.5q11 -44 -9 -80t-63 -49q-49 -16 -110 -16q-162 0 -261.5 96t-99.5 262v168q0 161 111.5 264t277.5 103q167 0 283.5 -104t116.5 -263v-217q0 -37 22.5 -61.5t57.5 -24.5q33 0 54 24.5t21 61.5v264q0 120 -46.5 221 t-123.5 167.5t-177 103.5t-208 37q-223 0 -376 -137.5t-170 -350.5q-15 -159 2 -358q15 -217 159.5 -340t356.5 -123q129 0 239 39q27 10 54 11.5t56 -9.5t46 -37q25 -38 15 -85.5t-52 -74.5q-131 -82 -356 -82q-112 0 -218.5 26t-203 81.5t-170 134t-121 191t-55.5 245.5 q-5 77 -5 202.5z" />
<glyph unicode="A" horiz-adv-x="1415" d="M41 137q0 28 8 49l389 1082q36 98 107.5 148t163.5 50q94 0 165 -49.5t107 -148.5l385 -1082q8 -19 8 -47q0 -57 -38.5 -100t-100.5 -43q-44 0 -80 24t-49 64l-113 330h-571l-113 -330q-17 -41 -53 -65.5t-78 -24.5q-62 0 -99.5 43t-37.5 100zM506 664h401l-166 489 q-8 27 -32 27q-27 0 -35 -27z" />
<glyph unicode="B" horiz-adv-x="1372" d="M162 199v1046q0 86 54 143.5t149 57.5h460q195 0 306.5 -111t111.5 -272q0 -224 -178 -311v-2q100 -33 158.5 -120t58.5 -212q0 -205 -124.5 -311.5t-326.5 -106.5h-466q-95 0 -149 57t-54 142zM442 268h357q200 0 200 174q0 84 -51 129t-145 45h-361v-348zM442 862h336 q92 0 138.5 41t46.5 117q0 80 -46 117t-139 37h-336v-312z" />
<glyph unicode="C" horiz-adv-x="1368" d="M115 557q-6 84 -6 165.5t6 160.5q10 123 59 229.5t127.5 185t189 123.5t238.5 45q115 0 220.5 -37.5t189.5 -112t127 -175.5q14 -38 14 -76q0 -55 -42.5 -93t-94.5 -38q-45 0 -72.5 22t-50.5 60q-45 85 -120.5 132.5t-170.5 47.5q-146 0 -235.5 -96.5t-100.5 -251.5 q-4 -66 -4 -131t4 -131q11 -155 100 -247.5t236 -92.5q95 0 170.5 47.5t120.5 132.5q23 41 50 61.5t73 20.5q52 0 94.5 -38t42.5 -93q0 -37 -14 -76q-65 -152 -213 -239t-324 -87q-128 0 -238.5 45t-189 123t-127.5 184.5t-59 229.5z" />
<glyph unicode="D" horiz-adv-x="1468" d="M162 199v1050q0 88 53 142.5t150 54.5h313q163 0 289 -44t207.5 -125.5t126.5 -190.5t55 -244q5 -61 5 -124q0 -48 -3 -97q-8 -109 -36.5 -202t-83.5 -171t-132 -132.5t-186 -85t-242 -30.5h-313q-94 0 -148.5 56.5t-54.5 142.5zM442 274h242q190 0 285 93.5t106 263.5 q4 48 4 99q0 34 -2 69q-20 372 -393 372h-242v-897z" />
<glyph unicode="E" horiz-adv-x="1288" d="M162 203v1042q0 86 54 143.5t149 57.5h675q57 0 96.5 -38t39.5 -95q0 -54 -41 -94.5t-95 -40.5h-598v-324h574q53 0 90 -36t37 -91q0 -51 -38 -90t-89 -39h-574v-330h602q54 0 95 -40t41 -93q0 -57 -39.5 -96t-96.5 -39h-679q-95 0 -149 58t-54 145z" />
<glyph unicode="F" horiz-adv-x="1239" d="M162 135v1112q0 85 54 142t149 57h655q60 0 101.5 -38.5t41.5 -96.5q0 -57 -43 -98.5t-100 -41.5h-578v-350h549q57 0 96 -40t39 -97q0 -54 -40.5 -94.5t-94.5 -40.5h-549v-414q0 -60 -40.5 -101.5t-100.5 -41.5q-57 0 -98 43t-41 100z" />
<glyph unicode="G" horiz-adv-x="1431" d="M115 557q-6 83 -6 165t6 161q15 164 95 296t217.5 209.5t307.5 77.5q178 0 312.5 -76t212.5 -212q22 -36 22 -82q0 -54 -40 -93.5t-95 -39.5q-68 0 -113 65q-100 172 -299 172q-148 0 -236.5 -95.5t-103.5 -256.5q-6 -69 -6 -135t6 -129q18 -156 107.5 -252t232.5 -96 q148 0 230 75t82 183v49h-185q-56 0 -95.5 39.5t-39.5 93.5q0 57 39 95t96 38h268q90 0 141.5 -55t51.5 -136v-112q0 -228 -167.5 -379.5t-418.5 -151.5q-129 0 -241 45t-191.5 123t-129.5 185t-60 229z" />
<glyph unicode="H" horiz-adv-x="1533" d="M162 135v1176q0 60 41 101.5t100 41.5q60 0 99.5 -41.5t39.5 -101.5v-453h650v453q0 60 41 101.5t98 41.5q61 0 101 -41t40 -102v-1174q0 -61 -40 -103t-101 -42q-57 0 -98 43t-41 102v447h-650v-449q0 -62 -39.5 -102.5t-99.5 -40.5q-58 0 -99.5 42t-41.5 101z" />
<glyph unicode="I" horiz-adv-x="604" d="M162 137v1174q0 59 42 101t99 42q60 0 99.5 -41.5t39.5 -101.5v-1174q0 -61 -40 -103t-99 -42q-58 0 -99.5 42.5t-41.5 102.5z" />
<glyph unicode="J" horiz-adv-x="1120" d="M57 299q0 55 36.5 94t92.5 39q79 0 125 -74q70 -112 189 -112q80 0 134 55t54 160v850q0 59 41.5 101t97.5 42q61 0 101.5 -41.5t40.5 -101.5v-840q0 -108 -37 -201.5t-101 -157.5t-151 -100.5t-184 -36.5q-143 0 -254.5 69t-167.5 183q-17 39 -17 72z" />
<glyph unicode="K" horiz-adv-x="1337" d="M162 137v1174q0 59 42 101t99 42q60 0 99.5 -41.5t39.5 -101.5v-449q45 0 69.5 8t55.5 39l480 496q41 45 101 47q2 0 4 1q58 0 97 -42q38 -41 38 -95q0 -50 -36 -87l-489 -492l483 -504q39 -45 42 -99v-7q0 -50 -36 -92q-38 -41 -100 -41q-60 0 -102 45l-482 504 q-28 32 -52.5 39.5t-72.5 7.5v-453q0 -61 -40 -103t-99 -42q-57 0 -99 43t-42 102z" />
<glyph unicode="L" horiz-adv-x="1161" d="M162 164v1147q0 59 42 101t99 42q60 0 99.5 -41.5t39.5 -101.5v-1037h568q56 0 98.5 -41.5t42.5 -97.5q0 -58 -41 -96.5t-100 -38.5h-684q-76 0 -120 47.5t-44 116.5z" />
<glyph unicode="M" horiz-adv-x="1943" d="M117 139q0 19 2 29l145 1040q18 123 86 184.5t166 61.5q99 0 169 -59t95 -181l178 -892q4 -15 17 -15q10 0 14 15l176 892q25 123 94 181.5t168 58.5q98 0 166 -61.5t86 -184.5l148 -1038q2 -10 2 -29q0 -65 -39 -108t-109 -43q-55 0 -93 31t-44 83l-119 1031 q0 12 -12 12q-11 0 -14 -12l-193 -926q-22 -103 -85.5 -156t-147.5 -53t-148 53t-86 156l-194 926q-4 12 -15 12q-12 0 -12 -14l-117 -1031q-4 -50 -43.5 -81t-95.5 -31q-70 0 -107.5 42.5t-37.5 106.5z" />
<glyph unicode="N" horiz-adv-x="1570" d="M162 133v1084q0 102 61 167.5t162 65.5q131 0 201 -121l547 -944h4q-7 236 -7 324v602q0 60 40.5 101.5t99.5 41.5q60 0 99.5 -41.5t39.5 -101.5v-1104q0 -90 -56.5 -152.5t-146.5 -62.5q-133 0 -205 125l-561 964h-4q4 -109 4 -344v-604q0 -61 -39 -103t-98 -42 q-57 0 -99 43t-42 102z" />
<glyph unicode="O" horiz-adv-x="1503" d="M117 557q-6 84 -6 165.5t6 160.5q10 122 61.5 229.5t134 185.5t196 123t241.5 45q169 0 311 -78t227.5 -211t97.5 -294q6 -82 6 -163.5t-6 -162.5q-10 -122 -62.5 -229t-135.5 -185t-197 -123t-241 -45q-128 0 -241.5 45t-196 123t-134 185t-61.5 229zM395 592 q12 -153 110 -249.5t245 -96.5q148 0 246 96.5t110 249.5q6 74 6 139.5t-6 122.5q-12 150 -110.5 246t-245.5 96t-245.5 -96t-109.5 -246q-4 -66 -4 -132t4 -130z" />
<glyph unicode="P" horiz-adv-x="1327" d="M162 137v1127q0 78 49 130t137 52h408q137 0 249.5 -57t182 -169.5t69.5 -261.5q0 -227 -144.5 -357t-375.5 -130h-295v-334q0 -59 -41 -102t-98 -43t-99 43t-42 102zM442 741h289q246 0 246 215q0 103 -60.5 159t-179.5 56h-295v-430z" />
<glyph unicode="Q" horiz-adv-x="1503" d="M117 557q-6 83 -6 165t6 161q10 122 61.5 229.5t134 185.5t196 123t241.5 45q127 0 241 -45.5t197 -124t135.5 -186t62.5 -227.5q6 -82 6 -163.5t-6 -162.5q-18 -227 -167 -385l155 -190q25 -32 25 -73q0 -7 -1 -15q-5 -51 -40 -80q-36 -30 -82 -30h-7q-50 3 -81 42 l-168 207q-129 -58 -270 -58q-128 0 -241.5 45t-196 123t-134 185t-61.5 229zM395 592q12 -153 110 -249.5t245 -96.5q54 0 90 10l-152 186q-24 30 -24 72v12q4 51 38 80q33 31 82 31q4 0 8 -1q54 -2 87 -42l161 -201q57 85 66 199q6 64 6 130t-6 132q-12 150 -110.5 246 t-245.5 96t-245 -96t-110 -246q-5 -66 -5 -132t5 -130z" />
<glyph unicode="R" horiz-adv-x="1388" d="M162 135v1129q0 78 49 130t137 52h420q101 0 191 -32t159 -91t109.5 -150.5t40.5 -203.5q0 -168 -75.5 -278t-191.5 -146l265 -318q36 -37 36 -93q0 -63 -42 -103q-46 -42 -104.5 -42t-98.5 42l-326 405q-28 35 -52 50.5t-63 15.5h-174v-367q0 -59 -41 -102t-98 -43 t-99 43t-42 102zM442 760h297q131 0 188.5 53t57.5 152q0 100 -58.5 153t-176.5 53h-308v-411z" />
<glyph unicode="S" horiz-adv-x="1302" d="M94 248q0 61 41.5 102t100.5 41q53 0 104 -39q142 -102 344 -102q119 0 187.5 42.5t68.5 117.5q0 33 -14.5 58t-37.5 42t-67.5 32.5t-86.5 25.5t-113 24q-258 53 -375 156t-117 286q0 194 147.5 313t374.5 119q147 0 265.5 -31t181.5 -85q49 -43 49 -105 q0 -58 -38.5 -98.5t-94.5 -40.5q-43 0 -103 29q-116 57 -254 57q-126 0 -186.5 -44t-60.5 -114q0 -68 64 -104t226 -66q278 -52 400.5 -152t122.5 -292q0 -95 -37.5 -176t-106 -141t-173 -94t-232.5 -34q-313 0 -504 146q-76 59 -76 127z" />
<glyph unicode="T" horiz-adv-x="1267" d="M23 1309q0 59 41 98t102 39h936q61 0 102 -39t41 -98q0 -57 -43 -97.5t-100 -40.5h-328v-1036q0 -60 -39.5 -101.5t-97.5 -41.5q-59 0 -101 42t-42 101v1036h-328q-60 0 -101.5 40.5t-41.5 97.5z" />
<glyph unicode="U" horiz-adv-x="1529" d="M147 616v695q0 59 42 101t100 42q61 0 100 -41t39 -102v-705q0 -165 94.5 -262.5t243.5 -97.5t243.5 97.5t94.5 262.5v705q0 60 40.5 101.5t98.5 41.5q61 0 101 -41t40 -102v-695q0 -140 -47.5 -260.5t-129.5 -203.5t-197 -130t-246 -47t-245 47t-196 130t-129 203.5 t-47 260.5z" />
<glyph unicode="V" horiz-adv-x="1400" d="M41 1309q0 60 37.5 102.5t99.5 42.5q45 0 82.5 -26.5t52.5 -71.5l369 -1071q6 -19 20 -19q13 0 19 19l366 1065q17 48 55 76t83 28q62 0 99.5 -42.5t37.5 -102.5q0 -31 -8 -52l-389 -1067q-80 -215 -265 -215q-186 0 -266 215l-385 1067q-8 21 -8 52z" />
<glyph unicode="W" horiz-adv-x="1949" d="M63 1311q0 57 37.5 100t102.5 43q52 0 92 -29.5t47 -74.5l186 -1078q2 -8 9 -8t8 8l209 965q20 105 84.5 157t144.5 52q75 0 139.5 -53t87.5 -156l213 -965q1 -9 8 -9t9 9l190 1078q7 45 46 74.5t89 29.5q66 0 103 -42t37 -99q0 -11 -4 -35l-242 -1090 q-22 -102 -85 -156.5t-140 -54.5t-144 54.5t-90 154.5l-213 942q-1 5 -4 7t-6 0t-4 -7l-209 -944q-22 -102 -85.5 -154.5t-143.5 -52.5q-83 0 -150.5 54t-89.5 157l-227 1090q-5 25 -5 33z" />
<glyph unicode="X" horiz-adv-x="1355" d="M62 122q-1 8 0 16q0 49 34 93l391 490l-389 491q-36 45 -36 97v16q6 61 61 100q42 29 89 29q11 0 22 -2q59 -8 96 -55l350 -443l352 443q45 57 117 57q61 0 104 -44t43 -103q0 -56 -34 -95l-396 -491l387 -490q35 -41 35 -94q0 -54 -42.5 -98.5t-102.5 -44.5 q-80 0 -121 53l-346 440l-348 -440q-44 -53 -121 -53q-52 0 -88 29q-51 41 -57 99z" />
<glyph unicode="Y" horiz-adv-x="1351" d="M23 1311q0 56 42.5 99.5t100.5 43.5q70 0 113 -55l397 -498l399 498q38 45 97 53q9 1 19 1q47 0 87 -32q45 -39 51 -99q1 -8 1 -16q0 -50 -34 -92l-424 -509q-23 -27 -31 -38t-16 -32t-8 -47v-453q0 -60 -40.5 -101.5t-100.5 -41.5q-57 0 -99 43t-42 100v453q0 26 -9 48 t-16.5 32t-32.5 39l-420 507q-34 39 -34 97z" />
<glyph unicode="Z" horiz-adv-x="1216" d="M72 182q0 80 61 154l639 833h-549q-58 0 -99.5 41.5t-41.5 98.5q0 59 41 98t100 39h705q89 0 142.5 -51.5t53.5 -124.5q0 -77 -67 -164l-635 -832h594q58 0 99.5 -41t41.5 -98q0 -58 -41 -96.5t-100 -38.5h-737q-96 0 -151.5 51.5t-55.5 130.5z" />
<glyph unicode="[" horiz-adv-x="792" d="M117 -207v1677q0 69 39 110.5t110 41.5h377q60 0 100.5 -37t40.5 -96q0 -58 -41 -97.5t-100 -39.5h-250v-1440h250q60 0 100.5 -37.5t40.5 -97.5q0 -58 -41 -96.5t-100 -38.5h-377q-68 0 -108.5 41.5t-40.5 109.5z" />
<glyph unicode="\" horiz-adv-x="821" d="M-1 1484.5q22 54.5 75 76.5q55 21 106.5 -3t73.5 -79l569 -1413q22 -55 0 -109t-75 -76q-56 -22 -107.5 1.5t-73.5 80.5l-567 1413q-23 54 -1 108.5z" />
<glyph unicode="]" horiz-adv-x="792" d="M8 -223q0 59 42 97t102 38h249v1440h-249q-59 0 -101.5 39t-42.5 96q0 60 41.5 97.5t102.5 37.5h374q72 0 111 -41.5t39 -112.5v-1675q0 -69 -40 -110t-110 -41h-374q-61 0 -102.5 38.5t-41.5 96.5z" />
<glyph unicode="^" horiz-adv-x="1081" d="M150 815l178 463q65 166 213 166q151 0 213 -166l180 -463q19 -47 -4 -98.5t-72 -71.5q-52 -21 -105.5 1.5t-66.5 72.5l-123 387q-7 18 -22 18q-16 0 -23 -18l-123 -387q-13 -50 -66.5 -72.5t-105.5 -1.5q-48 20 -70.5 71.5t-2.5 98.5z" />
<glyph unicode="_" horiz-adv-x="966" d="M0 -197h967v-219h-967v219z" />
<glyph unicode="`" horiz-adv-x="835" d="M166 1796q0 44 31.5 78.5t74.5 34.5q27 0 58 -17l276 -143q64 -36 64 -96q0 -43 -32 -76t-75 -33q-28 0 -55 15l-279 141q-63 35 -63 96z" />
<glyph unicode="a" horiz-adv-x="1142" d="M96 344q0 68 24.5 126t73 105.5t132 75t192.5 27.5q93 0 227 -31v55q0 82 -44.5 121t-149.5 39q-85 0 -197 -35q-37 -12 -69 -12q-39 1 -67 19q-52 34 -52 100q0 88 90 125q47 21 130 36t171 15q453 0 453 -416v-501q0 -35 -10.5 -56.5t-38.5 -40.5q-60 -41 -171.5 -76.5 t-261.5 -35.5q-212 0 -322 102t-110 258zM362 354q0 -66 49.5 -101.5t135.5 -35.5q111 0 198 53v185q-112 32 -204 32q-82 0 -130.5 -37t-48.5 -96z" />
<glyph unicode="b" horiz-adv-x="1228" d="M147 209v1120q0 60 39.5 100.5t98.5 40.5q57 0 97 -40.5t40 -100.5v-270q48 21 115.5 36t126.5 15q198 0 313.5 -111.5t134.5 -306.5q6 -72 6 -142t-6 -140q-18 -192 -146.5 -309t-338.5 -117q-137 0 -250.5 41.5t-179.5 87.5q-28 19 -39 40.5t-11 55.5zM422 309 q26 -23 86 -43t113 -20q99 0 154 54t63 155q2 36 2 84.5t-2 107.5q-13 201 -201 201q-62 0 -123 -17.5t-92 -37.5v-484z" />
<glyph unicode="c" horiz-adv-x="1146" d="M117 414q-5 70 -5 140t5 138q12 184 148.5 301t336.5 117q86 0 162 -20.5t128 -53.5t90 -74t55.5 -81t17.5 -76q0 -58 -37 -98.5t-96 -40.5q-75 0 -109 61q-65 121 -203 121q-98 0 -155 -53t-66 -144q-4 -46 -4 -95t4 -101q9 -93 66 -151t155 -58q138 0 205 125 q35 63 109 63q59 0 96 -40.5t37 -100.5q0 -45 -30 -97t-84.5 -100t-144.5 -80t-196 -32q-198 0 -334 123t-151 307z" />
<glyph unicode="d" horiz-adv-x="1234" d="M112 550q0 86 5 142q18 194 133.5 306t314.5 112q59 0 126.5 -15t115.5 -36v270q0 60 40 100.5t97 40.5q58 0 97.5 -40.5t39.5 -100.5v-1122q0 -34 -11 -56t-38 -40q-62 -44 -177 -85.5t-253 -41.5q-210 0 -338.5 117t-146.5 309q-5 54 -5 140zM391 451 q6 -100 61.5 -152.5t155.5 -52.5q52 0 112.5 20t86.5 43v484q-31 20 -92 37.5t-123 17.5q-188 0 -201 -199q-4 -46 -4 -95t4 -103z" />
<glyph unicode="e" horiz-adv-x="1167" d="M117 418q-4 58 -4.5 122t4.5 134q19 199 150.5 317.5t332.5 118.5q210 0 339.5 -129.5t129.5 -345.5v-45q0 -63 -34.5 -100t-106.5 -37h-546v-21q0 -94 65 -146.5t171 -52.5q101 0 220 46q34 13 62 13q36 0 66 -22q52 -38 52 -100q0 -73 -70 -115q-56 -33 -147 -52 t-191 -19q-210 0 -344 120t-149 314zM382 639h400q23 0 23 25v15q-1 83 -51 136q-56 57 -154 57q-106 0 -162 -62t-56 -171z" />
<glyph unicode="f" horiz-adv-x="901" d="M43 934q0 54 36.5 88.5t90.5 34.5h49v53q0 183 97.5 282t267.5 99q112 0 207 -27q106 -31 106 -131q0 -49 -34.5 -84t-94.5 -35q-20 0 -72 9.5t-86 9.5q-56 0 -86 -34t-30 -99v-43h237q52 0 88.5 -35t36.5 -88q0 -50 -36.5 -84.5t-88.5 -34.5h-237v-680q0 -62 -39 -103.5 t-99 -41.5q-57 0 -97 42t-40 103v680h-49q-54 0 -90.5 34t-36.5 85z" />
<glyph unicode="g" horiz-adv-x="1226" d="M112 554.5q0 79.5 5 129.5q18 191 143 308.5t340 117.5q135 0 252.5 -41.5t177.5 -83.5q28 -20 38.5 -41.5t10.5 -56.5v-826q0 -114 -39 -204.5t-107 -148t-157.5 -88t-193.5 -30.5q-83 0 -168 21.5t-144 50.5q-120 60 -120 150q0 51 34.5 88t85.5 37q23 0 47.5 -7.5 t35 -12.5t38.5 -19q95 -50 193 -50q101 0 161 53.5t60 155.5v13q-114 -54 -254 -54q-194 0 -306 111.5t-128 294.5q-5 53 -5 132.5zM389 469q12 -201 203 -201q65 0 122.5 19.5t90.5 42.5v463q-18 16 -76.5 35.5t-124.5 19.5q-100 0 -153.5 -53.5t-61.5 -151.5 q-3 -35 -3 -78t3 -96z" />
<glyph unicode="h" horiz-adv-x="1226" d="M147 131v1198q0 60 39.5 100.5t98.5 40.5q57 0 97 -40.5t40 -100.5v-299q36 33 108 56.5t150 23.5q197 0 305.5 -115t108.5 -333v-527q0 -62 -39.5 -103.5t-100.5 -41.5q-57 0 -96 42t-39 103v512q0 93 -49 144t-135 51q-62 0 -120.5 -24.5t-92.5 -61.5v-625 q0 -59 -38.5 -100t-96.5 -41q-57 0 -98.5 41.5t-41.5 99.5z" />
<glyph unicode="i" horiz-adv-x="589" d="M150 1366q0 62 41 103.5t104 41.5q60 0 102.5 -42t42.5 -103q0 -60 -42.5 -104.5t-102.5 -44.5q-62 0 -103.5 44t-41.5 105zM158 131v832q0 60 38.5 100.5t98.5 40.5q57 0 97 -40.5t40 -100.5v-832q0 -59 -39.5 -100t-97.5 -41q-56 0 -96.5 41.5t-40.5 99.5z" />
<glyph unicode="j" horiz-adv-x="581" d="M-29 -250q0 51 35 92q84 96 114 175.5t30 195.5v750q0 60 38.5 100.5t98.5 40.5q57 0 97 -40.5t40 -100.5v-697q0 -209 -56 -354t-165 -254q-41 -41 -103 -41q-56 0 -92.5 38.5t-36.5 94.5zM141 1366q0 62 41.5 103.5t102.5 41.5q62 0 104.5 -42t42.5 -103t-43 -105 t-104 -44t-102.5 44t-41.5 105z" />
<glyph unicode="k" horiz-adv-x="1153" d="M147 131v1196q0 60 39.5 100.5t98.5 40.5q58 0 97.5 -40.5t39.5 -100.5v-643h22q34 0 54.5 9t48.5 38l317 328q46 49 107 49q58 0 96 -41q39 -42 39 -98q0 -51 -37 -86l-326 -322l316 -328q43 -47 43 -104q0 -53 -39 -96q-38 -41 -98 -41q-64 0 -105 47l-313 338 q-28 30 -47 38.5t-51 8.5h-27v-293q0 -59 -39 -100t-98 -41q-56 0 -97 42t-41 99z" />
<glyph unicode="l" horiz-adv-x="571" d="M147 131v1194q0 60 40 101.5t98 41.5q57 0 97 -41.5t40 -101.5v-1194q0 -59 -39 -100t-98 -41q-56 0 -97 41.5t-41 99.5z" />
<glyph unicode="m" horiz-adv-x="1757" d="M141 131v762q0 35 12.5 57t41.5 43q66 50 162.5 83.5t209.5 33.5q188 0 299 -117q147 117 332 117q221 0 323.5 -113.5t102.5 -334.5v-531q0 -59 -40 -100t-99 -41q-54 0 -94.5 41.5t-40.5 99.5v524q0 187 -166 187q-86 0 -164 -49v-662q0 -59 -39.5 -100t-97.5 -41 q-56 0 -97 41.5t-41 99.5v526q0 185 -165 185q-86 0 -164 -49v-662q0 -59 -39 -100t-98 -41q-56 0 -97 41.5t-41 99.5z" />
<glyph unicode="n" horiz-adv-x="1220" d="M141 131v766q0 37 11 59t38 41q60 43 174 78t261 35q229 0 347 -115.5t118 -332.5v-531q0 -59 -39.5 -100t-98.5 -41q-56 0 -96.5 41.5t-40.5 99.5v518q0 95 -57 144t-142 49q-58 0 -113.5 -14.5t-86.5 -34.5v-662q0 -59 -39 -100t-98 -41q-56 0 -97 41.5t-41 99.5z" />
<glyph unicode="o" horiz-adv-x="1214" d="M117 399q-6 73 -5.5 146t5.5 147q15 184 152.5 301t338.5 117q202 0 338.5 -116.5t151.5 -301.5q6 -72 5.5 -145t-5.5 -146q-15 -185 -151.5 -301t-338.5 -116q-201 0 -338.5 116t-152.5 299zM389 444q8 -89 66 -143.5t153 -54.5t153 54.5t64 143.5q4 50 4 101.5 t-4 103.5q-5 89 -63.5 144t-153.5 55t-153 -54.5t-66 -144.5q-4 -52 -4 -103.5t4 -101.5z" />
<glyph unicode="p" horiz-adv-x="1222" d="M141 -270v1177q0 47 35 70q63 47 184 90t265 43q208 0 335.5 -116.5t145.5 -309.5q4 -54 4 -140t-4 -141q-15 -194 -135 -306.5t-322 -112.5q-122 0 -233 51v-305q0 -60 -40 -101t-97 -41q-58 0 -98 41t-40 101zM416 301q29 -20 88.5 -37.5t118.5 -17.5q100 0 150 49.5 t58 146.5q4 47 4 96.5t-4 102.5q-8 100 -61.5 152.5t-151.5 52.5q-52 0 -112.5 -20t-89.5 -42v-483z" />
<glyph unicode="q" horiz-adv-x="1234" d="M117 401q-5 71 -5 142t5 141q18 193 145.5 309.5t335.5 116.5q143 0 262.5 -42.5t186.5 -90.5q34 -25 34 -70v-1177q0 -60 -38.5 -101t-96.5 -41q-57 0 -98 41t-41 101v305q-47 -21 -113 -36t-125 -15q-200 0 -317 112t-135 305zM391 444q12 -198 205 -198q61 0 121 16.5 t90 36.5v485q-29 22 -90 42t-115 20q-97 0 -151 -52.5t-60 -152.5q-4 -53 -4 -102t4 -95z" />
<glyph unicode="r" horiz-adv-x="823" d="M131 129v631q0 163 93.5 256.5t267.5 93.5q110 0 176 -16q127 -35 127 -142q0 -47 -34.5 -88t-94.5 -41q-20 0 -70 10q-46 9 -78 9h-6q-106 -3 -106 -133v-580q0 -59 -40 -99t-98 -40q-57 0 -97 40.5t-40 98.5z" />
<glyph unicode="s" horiz-adv-x="1028" d="M86 183q-2 11 -2 22q0 37 22 67q32 42 80 50q9 1 18 1q40 0 81 -26q104 -68 243 -68q77 0 116.5 26t39.5 69q0 35 -28 58t-91 38q-81 18 -151 35q-137 35 -218 111.5t-81 201.5q0 162 116 252t301 90q99 0 190 -24.5t144 -67.5q43 -35 45 -91v-6q0 -52 -32 -85 q-31 -34 -79 -38q-7 -1 -15 -1q-42 0 -85 22q-88 45 -178 45q-73 0 -109 -24.5t-36 -63.5q0 -33 28 -55t95 -37l145 -33q154 -37 229.5 -113.5t75.5 -197.5q0 -166 -121.5 -261t-306.5 -95q-249 0 -391 118q-37 31 -45 81z" />
<glyph unicode="t" horiz-adv-x="874" d="M137 387v809q0 60 39.5 101.5t97.5 41.5q57 0 97.5 -41.5t40.5 -101.5v-139h256q52 0 89.5 -35t37.5 -88q0 -50 -37.5 -84.5t-89.5 -34.5h-256v-422q0 -151 133 -151q46 0 127 22q24 6 46 6q44 0 76 -25q48 -37 48 -98q0 -80 -86 -120q-94 -43 -250 -43q-183 0 -276 111 t-93 292z" />
<glyph unicode="u" horiz-adv-x="1220" d="M133 432v526q0 64 36 105t99 41q59 0 99.5 -42.5t40.5 -103.5v-522q0 -91 53 -140.5t143 -49.5q117 0 201 53v664q0 59 39 100t98 41q57 0 97 -41t40 -100v-766q0 -36 -11 -58t-38 -39q-62 -44 -173.5 -80t-258.5 -36q-222 0 -343.5 116t-121.5 332z" />
<glyph unicode="v" horiz-adv-x="1099" d="M45 899q-12 32 -12 62q0 45 26 81q43 62 121 62q49 0 85.5 -29.5t51.5 -79.5l218 -676q5 -14 16 -14q9 0 14 14l215 674q15 50 54.5 80.5t87.5 30.5q78 0 120 -63q25 -37 25 -81q0 -29 -12 -61l-262 -717q-36 -97 -99.5 -147.5t-146.5 -50.5q-80 0 -142.5 50t-97.5 144z " />
<glyph unicode="w" horiz-adv-x="1658" d="M49 911q-8 28 -8 53q0 45 24 83q37 59 113 59q51 0 87 -29t48 -86l150 -672q3 -8 10 -8t10 8l144 615q20 78 71.5 125t130.5 47q73 0 128.5 -47.5t74.5 -124.5l146 -615q0 -8 10 -8q7 0 10 8l145 672q12 55 47.5 85t88.5 30q75 0 113 -58q24 -38 24 -84q0 -25 -8 -53 l-187 -735q-24 -95 -83.5 -143.5t-141.5 -48.5q-83 0 -141.5 48.5t-79.5 145.5l-135 561q-3 9 -11 9q-10 0 -10 -9l-137 -559q-48 -196 -221 -196q-81 0 -140 48.5t-83 143.5z" />
<glyph unicode="x" horiz-adv-x="1140" d="M78 117q0 3 -1 7q0 52 36 93l276 334l-268 323q-36 40 -36 94q1 4 1 8q2 58 47 95q37 32 86 32q7 -1 15 -1q58 -6 94 -49l241 -293l242 293q37 45 97 50q7 1 14 1q51 0 88 -33q44 -38 46 -96q0 -3 1 -7q0 -54 -37 -96l-268 -321l278 -334q36 -39 36 -93v-7 q-2 -58 -48 -94q-38 -33 -89 -33q-7 0 -13 1q-60 5 -95 48l-250 303l-249 -305q-34 -43 -96 -47q-5 0 -11 -1q-55 0 -92 34q-43 38 -45 94z" />
<glyph unicode="y" horiz-adv-x="1101" d="M47 903q-14 33 -14 64q0 40 24 75q43 64 121 64q101 0 141 -107l226 -581q5 -12 12 -12q8 0 12 12l213 581q19 51 56 79t86 28q80 0 122 -64q24 -37 24 -76q0 -32 -15 -65l-383 -891q-60 -141 -134 -240t-139 -141q-60 -39 -112 -39q-57 0 -97 35.5t-40 93.5q0 66 61 111 q131 92 188 252z" />
<glyph unicode="z" horiz-adv-x="1028" d="M76 154q0 65 45 116l491 559h-379q-58 0 -95.5 34t-37.5 91q0 56 37.5 91.5t95.5 35.5h558q56 0 95.5 -27.5t57.5 -72.5q11 -30 11 -59q0 -62 -52 -121l-481 -547h401q58 0 96.5 -35t38.5 -92q0 -55 -39 -91t-96 -36h-577q-75 0 -122.5 43t-47.5 111z" />
<glyph unicode="{" horiz-adv-x="890" d="M66 645q0 40 40 72q62 49 85.5 102t23.5 131v467q0 85 60 145t145 60h319q61 0 102.5 -38.5t41.5 -96.5q0 -60 -41.5 -97.5t-102.5 -37.5h-188q-26 0 -44 -18t-18 -44v-340q0 -118 -41 -192.5t-96 -112.5q137 -99 137 -305v-369q0 -25 17 -43t41 -18h192 q61 0 102.5 -37.5t41.5 -97.5q0 -58 -41.5 -96.5t-102.5 -38.5h-272q-101 0 -176.5 75t-75.5 176v447q0 78 -23.5 131t-85.5 102q-40 32 -40 74z" />
<glyph unicode="|" horiz-adv-x="620" d="M170 -145v1712q0 60 39.5 101.5t97.5 41.5q57 0 97 -41.5t40 -101.5v-1712q0 -61 -38.5 -101.5t-98.5 -40.5q-56 0 -96.5 42t-40.5 100z" />
<glyph unicode="}" horiz-adv-x="890" d="M8 -225q0 60 42 97.5t102 37.5h192q24 0 40.5 18t16.5 43v369q0 116 41 190.5t97 114.5q-55 38 -96.5 112.5t-41.5 192.5v340q0 26 -17.5 44t-43.5 18h-188q-60 0 -102 37.5t-42 97.5q0 58 41.5 96.5t102.5 38.5h319q85 0 145 -60t60 -145v-467q0 -79 23 -131.5 t85 -101.5q41 -33 41 -72q0 -41 -41 -74q-62 -49 -85 -101.5t-23 -131.5v-447q0 -101 -75 -176t-177 -75h-272q-61 0 -102.5 38.5t-41.5 96.5z" />
<glyph unicode="~" horiz-adv-x="1341" d="M88 729q0 52 31 90t80 58q170 75 270 75q65 0 134 -26t137.5 -52t131.5 -26q76 0 154 41q71 34 121.5 18.5t78 -53.5t27.5 -80q0 -97 -110 -147q-5 -2 -29 -12t-32 -13t-31 -11.5t-35 -12t-34 -10t-38 -9t-36.5 -4.5t-39.5 -2q-65 0 -135.5 25.5t-139 51t-128.5 25.5 q-64 0 -146 -43q-96 -49 -163.5 -1.5t-67.5 118.5z" />
<glyph unicode="&#xa1;" horiz-adv-x="493" d="M109 133l16 713q2 50 35.5 83.5t83.5 33.5q51 0 85.5 -33t37.5 -84l18 -713q1 -57 -40.5 -99t-98.5 -42q-59 0 -99.5 41.5t-37.5 99.5zM121 1237v96q0 50 35 84.5t90 34.5q54 0 89.5 -34.5t35.5 -84.5v-96q0 -51 -35.5 -85t-89.5 -34q-55 0 -90 34t-35 85z" />
<glyph unicode="&#xa2;" horiz-adv-x="978" d="M125 621q-6 95 0 190q8 131 83.5 227t201.5 133v154q0 51 36.5 90t83.5 39q52 0 87.5 -37.5t35.5 -91.5v-154q86 -24 147 -76t89 -122q14 -35 14 -60q0 -49 -36.5 -82.5t-82.5 -33.5q-40 0 -68 20.5t-42 50.5q-20 43 -56.5 68t-80.5 25q-69 0 -108 -47t-46 -119 q-5 -31 -5 -79t5 -79q6 -71 45 -117.5t109 -46.5q45 0 81 24t56 68q14 30 42 51t68 21q45 0 81 -34.5t36 -82.5q0 -28 -10 -51q-72 -163 -238 -211v-147q0 -54 -35.5 -91.5t-87.5 -37.5q-47 0 -83.5 39t-36.5 90v151q-126 35 -202 130.5t-83 228.5z" />
<glyph unicode="&#xa3;" horiz-adv-x="1212" d="M23 682q0 58 40 94.5t101 36.5h61q-28 123 -28 195q0 93 29 173t85 141.5t146 96.5t205 35q255 0 415 -164q56 -54 56 -110q0 -59 -41 -98.5t-99 -39.5q-46 0 -104 45q-57 48 -109 71.5t-123 23.5q-95 0 -139.5 -51t-44.5 -119q0 -24 5.5 -55.5t14.5 -73.5t13 -70h229 q60 0 101 -36t41 -95q0 -58 -41.5 -95.5t-100.5 -37.5h-200q5 -60 -11.5 -134.5t-48.5 -138.5h557q56 0 97.5 -41.5t41.5 -99.5q0 -57 -40 -96t-99 -39h-700q-83 0 -130.5 46t-47.5 118q0 6 0.5 12.5t1 11t2 11t2.5 10t4 11.5t4 11t5.5 12.5t6 13t7.5 15.5t8 17 q68 140 63 260h-94q-60 0 -100.5 36.5t-40.5 96.5z" />
<glyph unicode="&#xa4;" horiz-adv-x="1267" d="M91.5 300.5q1.5 50.5 39.5 88.5l148 150q-20 50 -23 112q-3 65 0 127q3 60 25 119l-150 152q-38 38 -39.5 88t35.5 88q35 35 88 33.5t88 -39.5l131 -129q88 59 199 59q113 0 201 -59l129 129q37 38 90 39.5t88 -33.5q35 -38 33.5 -88t-39.5 -88l-148 -150q22 -58 25 -121 q3 -62 0 -127q0 -57 -23 -114l148 -148q37 -38 38 -88.5t-34 -87.5q-36 -35 -87.5 -33.5t-90.5 37.5l-127 125q-88 -59 -203 -59q-113 0 -201 59l-129 -125q-37 -36 -88.5 -37.5t-87.5 33.5q-37 37 -35.5 87.5zM479 662q3 -64 47 -109t107 -45t106.5 45t46.5 109v106 q-3 64 -46.5 110t-106.5 46q-62 0 -105.5 -46t-48.5 -110q-3 -53 0 -106z" />
<glyph unicode="&#xa5;" horiz-adv-x="1351" d="M22 1318q6 60 52 97q44 40 106 33.5t99 -53.5l397 -498l399 498q37 46 97 53t106 -31q45 -39 51 -99t-33 -108l-424 -510q-44 -50 -51 -77h144q60 0 100.5 -37t40.5 -97q0 -55 -41 -92t-100 -37h-148v-225q0 -60 -40.5 -101.5t-100.5 -41.5q-57 0 -99 43t-42 100v225 h-148q-60 0 -99.5 35t-39.5 94q0 58 40 96t99 38h141q-2 7 -5 14t-5.5 12t-9 13t-9 11.5t-11 14t-11.5 14.5l-420 508q-41 48 -35 108z" />
<glyph unicode="&#xa6;" horiz-adv-x="620" d="M170 -145v639q0 60 39.5 101.5t97.5 41.5q57 0 97 -41.5t40 -101.5v-639q0 -61 -38.5 -101.5t-98.5 -40.5q-56 0 -96.5 42t-40.5 100zM170 928v639q0 60 39.5 101.5t97.5 41.5q57 0 97 -41.5t40 -101.5v-639q0 -61 -38.5 -101.5t-98.5 -40.5q-56 0 -96.5 42t-40.5 100z " />
<glyph unicode="&#xa7;" horiz-adv-x="1161" d="M119 29q0 56 41.5 95.5t101.5 39.5q21 0 64 -19q136 -82 258 -82q88 0 131 36.5t43 88.5q0 22 -6 39.5t-22.5 31.5t-31.5 23.5t-46.5 20t-53.5 16.5t-66 17q-209 55 -294.5 131.5t-85.5 194.5q0 96 75 178q-84 94 -84 221q0 166 128 279.5t325 113.5q122 0 224.5 -38 t168.5 -89q53 -44 53 -113q0 -56 -41.5 -95.5t-101.5 -39.5q-37 0 -68 23q-127 80 -237 80q-87 0 -127.5 -37t-40.5 -88q0 -18 3 -32.5t13 -27t17.5 -21.5t27 -18.5t31 -15t39.5 -13.5t43 -12.5t51 -13.5q209 -54 295 -129.5t86 -191.5q0 -98 -76 -181q84 -94 84 -219 q0 -168 -127.5 -280.5t-326.5 -112.5q-125 0 -241 38.5t-175 86.5q-51 42 -51 115zM381 678q0 -42 53 -72.5t182 -60.5q103 -26 166 -53l4 8q23 30 23 61q0 41 -53 70.5t-183 60.5q-94 23 -165 53l-5 -8q-22 -28 -22 -59z" />
<glyph unicode="&#xa8;" horiz-adv-x="835" d="M100 1683q0 56 38 95t95 39q55 0 93.5 -39t38.5 -95t-38.5 -94.5t-93.5 -38.5q-57 0 -95 38.5t-38 94.5zM471 1683q0 56 38 95t93 39q57 0 95 -39t38 -95t-38 -94.5t-95 -38.5q-55 0 -93 38.5t-38 94.5z" />
<glyph unicode="&#xa9;" horiz-adv-x="1609" d="M160 623q-3 96 0 192q7 184 95 331t232.5 227.5t317.5 80.5t317.5 -80.5t232.5 -227.5t95 -331q3 -96 0 -192q-7 -183 -95 -329t-232.5 -226t-317.5 -80t-317.5 80t-232.5 226t-95 329zM350 612q12 -194 141.5 -318t313.5 -124t314.5 124t140.5 318q4 104 0 213 q-12 196 -141.5 319.5t-313.5 123.5t-313.5 -123.5t-141.5 -319.5q-4 -109 0 -213zM467 616q-10 103 0 207q11 141 105.5 232.5t234.5 91.5q110 0 188.5 -50t112.5 -128q16 -37 16 -56q0 -41 -26.5 -62.5t-61.5 -21.5q-47 0 -75 54q-20 43 -60.5 66.5t-91.5 23.5 q-65 0 -107 -47t-47 -121q-4 -87 0 -170q3 -74 45.5 -121t108.5 -47q51 0 91.5 23.5t60.5 66.5q27 53 75 53q35 0 61.5 -21.5t26.5 -62.5q0 -18 -16 -55q-34 -78 -112.5 -128t-188.5 -50q-140 0 -234 91t-106 232z" />
<glyph unicode="&#xaa;" horiz-adv-x="980" d="M90 899q-7 102 0 207q9 159 107 253.5t254 94.5q93 0 183 -30t134 -60q26 -18 37.5 -39.5t11.5 -58.5v-336q0 -43 11 -80t23 -57t38 -58q32 -51 21 -97t-48 -67q-38 -20 -78.5 -13.5t-66.5 38.5q-16 18 -39 55q-49 -47 -112 -71.5t-115 -24.5q-160 0 -256 94.5 t-105 249.5zM311 903q5 -56 41 -89.5t101 -33.5q35 0 79 17t68 41q-6 55 -6 211v149q-21 11 -62.5 20t-78.5 9q-65 0 -101 -34.5t-41 -94.5q-8 -94 0 -195z" />
<glyph unicode="&#xab;" horiz-adv-x="1269" d="M78 733q0 108 102 182l252 183q44 32 93 28.5t81 -43.5q34 -40 29.5 -91.5t-45.5 -80.5l-207 -151q-18 -14 -18 -27q0 -15 18 -28l207 -152q41 -29 45.5 -81t-29.5 -93q-32 -38 -81 -41.5t-93 27.5l-252 184q-55 40 -78.5 84t-23.5 100zM612 733q0 107 103 182l252 183 q44 32 93 28.5t81 -43.5q34 -40 29 -91.5t-46 -80.5l-206 -151q-19 -14 -19 -27q0 -14 19 -28l206 -152q41 -29 46 -81t-29 -93q-32 -38 -81 -41.5t-93 27.5l-252 184q-55 40 -79 84t-24 100z" />
<glyph unicode="&#xac;" d="M121 715q0 56 38.5 93.5t94.5 37.5h739q82 0 126 -47t44 -119v-354q0 -56 -37.5 -94.5t-93.5 -38.5q-53 0 -92 40t-39 93v258h-647q-55 0 -94 38.5t-39 92.5z" />
<glyph unicode="&#xad;" horiz-adv-x="667" d="M72 588q0 59 40.5 99t100.5 40h242q59 0 100 -40t41 -99q0 -56 -41.5 -96.5t-99.5 -40.5h-242q-60 0 -100.5 39.5t-40.5 97.5z" />
<glyph unicode="&#xae;" horiz-adv-x="1275" d="M127 801q-3 78 0 157q9 213 154 355.5t354 142.5q210 0 355.5 -142.5t154.5 -355.5q3 -79 0 -157q-9 -213 -154.5 -355.5t-355.5 -142.5q-209 0 -354 142.5t-154 355.5zM279 793q13 -158 110.5 -249t245.5 -91q150 0 247 91t109 249q8 87 0 174q-12 159 -109 249.5 t-247 90.5q-148 0 -245.5 -90.5t-110.5 -249.5q-8 -87 0 -174zM428 668v415q0 32 21 54t55 22h162q82 0 134 -47t52 -123q0 -107 -92 -149l92 -127q16 -28 16 -49q0 -28 -20.5 -48t-52.5 -20q-37 0 -56 31l-104 151q-11 19 -29 19h-37v-129q0 -31 -19.5 -50.5t-51.5 -19.5 q-28 0 -49 20t-21 50zM565 909h76q76 0 76 64q0 67 -72 67h-80v-131z" />
<glyph unicode="&#xaf;" horiz-adv-x="835" d="M147 1669q0 47 32 80t79 33h324q47 0 78.5 -32.5t31.5 -80.5t-31.5 -80.5t-78.5 -32.5h-324q-47 0 -79 33t-32 80z" />
<glyph unicode="&#xb0;" horiz-adv-x="800" d="M115 1202q0 118 84 201.5t200 83.5q119 0 203 -83.5t84 -201.5q0 -117 -84.5 -200.5t-202.5 -83.5q-116 0 -200 83.5t-84 200.5zM287 1202q0 -47 33 -79.5t79 -32.5q49 0 82 32.5t33 79.5q0 48 -33 81.5t-82 33.5q-46 0 -79 -34t-33 -81z" />
<glyph unicode="&#xb1;" d="M121 131q0 55 38.5 93t94.5 38h776q56 0 94.5 -38t38.5 -93q0 -54 -39.5 -92.5t-93.5 -38.5h-776q-55 0 -94 38.5t-39 92.5zM121 819q0 55 38.5 93t94.5 38h258v258q0 55 39 94t92 39q56 0 93.5 -38.5t37.5 -94.5v-258h256q56 0 94.5 -38t38.5 -93q0 -54 -39.5 -92.5 t-93.5 -38.5h-256v-260q0 -56 -37.5 -94.5t-93.5 -38.5q-52 0 -91.5 40t-39.5 93v260h-258q-55 0 -94 38.5t-39 92.5z" />
<glyph unicode="&#xb2;" horiz-adv-x="909" d="M98 1237q0 35 27 74q44 59 128 101t187 42q158 0 239 -77t81 -195q0 -52 -12.5 -91.5t-45.5 -77.5t-71.5 -69.5t-108.5 -79.5q-95 -64 -110 -123h247q55 0 92 -32.5t37 -85.5t-37 -86t-92 -33h-419q-59 0 -94 38t-35 93q0 80 44.5 149.5t145.5 141.5q11 7 44.5 30 t50.5 35t45 35.5t42 40.5t25.5 40.5t11.5 45.5q0 33 -22.5 56.5t-71.5 23.5q-63 0 -125 -66l-8 -7q-8 -7 -11.5 -10t-12.5 -9t-16 -9t-17.5 -5.5t-20.5 -2.5q-49 0 -83 31t-34 82z" />
<glyph unicode="&#xb3;" horiz-adv-x="866" d="M92 600q0 51 33 82t88 31q5 0 33.5 -2t50.5 -2q105 0 166 36t61 93q0 38 -25 60t-71 22q-18 0 -50 -6.5t-42 -6.5q-34 0 -59 22.5t-25 57.5q0 38 29 64l137 133h-201q-50 0 -84.5 35.5t-34.5 85.5q0 51 34 83.5t85 32.5h361q55 0 94 -32.5t39 -85.5q0 -54 -58 -117 l-86 -92q97 -26 147 -93t50 -161q0 -165 -131.5 -263t-358.5 -98q-47 0 -63 2q-51 5 -85 37t-34 82z" />
<glyph unicode="&#xb4;" horiz-adv-x="835" d="M166 1653q0 61 63 96l277 143q31 17 57 17q42 0 74.5 -35t32.5 -78q0 -60 -64 -96l-278 -141q-27 -15 -56 -15q-44 0 -75 33t-31 76z" />
<glyph unicode="&#xb6;" horiz-adv-x="1560" d="M115 948q0 150 69 262t182 168t252 56h103h481q89 0 143 -54.5t54 -142.5v-1489q0 -59 -40 -100t-99 -41q-56 0 -96 41.5t-40 99.5v1411h-131v-1411q0 -60 -39.5 -100.5t-99.5 -40.5q-56 0 -95.5 40.5t-39.5 100.5v713h-94q-224 0 -367 130.5t-143 356.5zM395 948 q0 -219 260 -219h64v442h-68q-117 0 -186.5 -54.5t-69.5 -168.5z" />
<glyph unicode="&#xb7;" horiz-adv-x="571" d="M160 668v110q0 54 36 89.5t91 35.5q52 0 88.5 -36t36.5 -89v-110q0 -54 -35.5 -89.5t-89.5 -35.5q-53 0 -90 36t-37 89z" />
<glyph unicode="&#xb8;" horiz-adv-x="835" d="M229 -494q0 62 66 86q93 36 120 59t27 56q0 19 -15.5 35t-41.5 16q-16 0 -36 -4t-34 -4q-43 0 -67.5 36t-7.5 77l61 164q25 67 82 67q36 0 58 -23t22 -57q0 -4 -6 -28l-27 -62q98 -7 151.5 -65t53.5 -148q0 -98 -71 -170.5t-195 -115.5q-48 -17 -94 2.5t-46 78.5z" />
<glyph unicode="&#xb9;" horiz-adv-x="718" d="M51 1190q16 50 55 72l275 155q34 17 65 17q54 0 88.5 -36.5t34.5 -90.5v-684q0 -55 -33.5 -90t-86.5 -35t-90 37.5t-37 87.5v485l-101 -53q-46 -22 -91 -9.5t-71 54.5q-24 40 -8 90z" />
<glyph unicode="&#xba;" horiz-adv-x="923" d="M84 911q-8 91 0 185q9 153 113.5 255.5t263.5 102.5t263.5 -102.5t115.5 -255.5q5 -94 0 -185q-11 -160 -114.5 -259t-264.5 -99q-162 0 -265 99.5t-112 258.5zM319 922q6 -63 45.5 -102.5t96.5 -39.5t96 39.5t43 102.5q6 82 0 161q-5 62 -43.5 102t-95.5 40t-96.5 -40 t-45.5 -102q-3 -79 0 -161z" />
<glyph unicode="&#xbb;" horiz-adv-x="1269" d="M99 472q4 52 46 81l205 152q19 14 19 28q0 13 -19 27l-205 151q-42 29 -46 81t30 91q31 39 80 43.5t92 -28.5l254 -183q100 -74 100 -182q0 -110 -100 -184l-254 -184q-42 -31 -92 -27.5t-80 41.5q-34 41 -30 93zM633.5 472q3.5 52 44.5 81l207 152q18 13 18 28 q0 13 -18 27l-207 151q-41 29 -44.5 81t30.5 91q31 39 80 43.5t92 -28.5l254 -183q100 -74 100 -182q0 -110 -100 -184l-254 -184q-42 -31 -92 -27.5t-80 41.5q-34 41 -30.5 93z" />
<glyph unicode="&#xbc;" horiz-adv-x="2068" d="M51 1190q16 50 55 72l275 155q34 17 65 17q54 0 88.5 -36.5t34.5 -90.5v-684q0 -55 -33.5 -90t-86.5 -35t-90 37.5t-37 87.5v485l-101 -53q-46 -22 -91 -9.5t-71 54.5q-24 40 -8 90zM543 109l522 1312q18 47 71.5 69.5t98.5 4.5q51 -20 71 -68.5t-1 -99.5l-523 -1313 q-19 -47 -67 -69t-97 -4q-48 19 -71.5 71t-3.5 97zM1118 324q0 58 68 133l362 411q59 68 131 68q68 0 112 -46t44 -110v-391h61q41 0 73 -29.5t32 -72.5q0 -44 -30.5 -74.5t-74.5 -30.5h-63v-78q0 -41 -30 -72.5t-74 -31.5t-73.5 30t-29.5 74v74h-350q-68 0 -113 39.5 t-45 106.5zM1386 389h238v268z" />
<glyph unicode="&#xbd;" horiz-adv-x="2043" d="M51 1190q16 50 55 72l275 155q34 17 65 17q54 0 88.5 -36.5t34.5 -90.5v-684q0 -55 -33.5 -90t-86.5 -35t-90 37.5t-37 87.5v485l-101 -53q-46 -22 -91 -9.5t-71 54.5q-24 40 -8 90zM545 109l522 1312q18 47 71.5 69.5t98.5 4.5q51 -20 71 -68.5t-1 -99.5l-523 -1313 q-19 -47 -66.5 -69t-96.5 -4q-48 19 -72 71t-4 97zM1233 733q0 35 27 74q44 59 128 101t187 42q157 0 238 -77t81 -195q0 -52 -12.5 -91.5t-45 -77.5t-71.5 -69.5t-108 -79.5q-96 -65 -111 -122h248q55 0 92 -33t37 -86t-37 -86t-92 -33h-420q-59 0 -94 38t-35 93 q0 79 45 149t146 142q11 7 44.5 30t50.5 35t45 35.5t42 40.5t25.5 40.5t11.5 45.5q0 33 -22.5 56.5t-71.5 23.5q-64 0 -125 -65l-8 -7q-8 -7 -11.5 -10t-12.5 -9t-16 -9t-17.5 -5.5t-20.5 -2.5q-49 0 -83 30.5t-34 81.5z" />
<glyph unicode="&#xbe;" horiz-adv-x="2205" d="M92 600q0 51 33 82t88 31q5 0 33.5 -2t50.5 -2q105 0 166 36t61 93q0 38 -25 60t-71 22q-18 0 -50 -6.5t-42 -6.5q-34 0 -59 22.5t-25 57.5q0 38 29 64l137 133h-201q-50 0 -84.5 35.5t-34.5 85.5q0 51 34 83.5t85 32.5h361q55 0 94 -32.5t39 -85.5q0 -54 -58 -117 l-86 -92q97 -26 147 -93t50 -161q0 -165 -131.5 -263t-358.5 -98q-182 0 -182 121zM690 109l522 1312q18 47 71.5 69.5t98.5 4.5q51 -20 71.5 -68.5t0.5 -99.5l-524 -1313q-19 -47 -67 -69t-97 -4q-47 19 -71 70.5t-5 97.5zM1268 324q0 30 16.5 62.5t67.5 88.5l313 356 q74 84 143 99q29 6 58 0q61 -10 90 -58.5t29 -117.5v-365h61q41 0 72.5 -29.5t31.5 -72.5q0 -44 -30 -74.5t-74 -30.5h-64v-57q0 -51 -27 -88t-77 -37q-51 0 -76.5 34.5t-25.5 90.5v53h-324q-82 0 -133 35.5t-51 110.5zM1538 389h236v268z" />
<glyph unicode="&#xbf;" horiz-adv-x="1128" d="M100 389q0 186 107 312.5t328 228.5q47 20 92 20q48 0 85.5 -35t37.5 -84q0 -89 -88 -129q-150 -67 -217.5 -130.5t-67.5 -155.5q0 -71 47 -115.5t129 -44.5q73 0 127 24t108 85q49 55 111 55q57 0 96 -42.5t39 -96.5q0 -49 -37 -97q-76 -97 -193.5 -147.5t-250.5 -50.5 q-201 0 -327 112t-126 291zM489 1239v94q0 51 35.5 86t89.5 35q55 0 91 -35.5t36 -85.5v-94q0 -51 -36 -86t-91 -35q-54 0 -89.5 35t-35.5 86z" />
<glyph unicode="&#xc0;" horiz-adv-x="1415" d="M41 137q0 28 8 49l389 1082q36 98 107.5 148t163.5 50q94 0 165 -49.5t107 -148.5l385 -1082q8 -19 8 -47q0 -57 -38.5 -100t-100.5 -43q-44 0 -80 24t-49 64l-113 330h-571l-113 -330q-17 -41 -53 -65.5t-78 -24.5q-62 0 -99.5 43t-37.5 100zM350 1794q0 44 32 78.5 t75 34.5q26 0 57 -17l277 -143q63 -35 63 -96q0 -43 -32 -76t-74 -33q-31 0 -56 14l-278 142q-64 36 -64 96zM506 664h401l-166 489q-8 27 -32 27q-27 0 -35 -27z" />
<glyph unicode="&#xc1;" horiz-adv-x="1415" d="M41 137q0 28 8 49l389 1082q36 98 107.5 148t163.5 50q94 0 165 -49.5t107 -148.5l385 -1082q8 -19 8 -47q0 -57 -38.5 -100t-100.5 -43q-44 0 -80 24t-49 64l-113 330h-571l-113 -330q-17 -41 -53 -65.5t-78 -24.5q-62 0 -99.5 43t-37.5 100zM506 664h401l-166 489 q-8 27 -32 27q-27 0 -35 -27zM549 1651q0 61 63 96l277 143q31 17 57 17q42 0 74.5 -35t32.5 -78q0 -60 -64 -96l-278 -142q-25 -14 -56 -14q-44 0 -75 33t-31 76z" />
<glyph unicode="&#xc2;" horiz-adv-x="1415" d="M41 137q0 28 8 49l389 1082q36 98 107.5 148t163.5 50q94 0 165 -49.5t107 -148.5l385 -1082q8 -19 8 -47q0 -57 -38.5 -100t-100.5 -43q-44 0 -80 24t-49 64l-113 330h-571l-113 -330q-17 -41 -53 -65.5t-78 -24.5q-62 0 -99.5 43t-37.5 100zM365 1653q0 52 49 88 l219 170q43 31 78 31q32 0 75 -31l220 -170q49 -36 49 -88q0 -43 -33 -76t-76 -33q-30 0 -69 27l-166 127l-166 -127q-42 -27 -72 -27q-43 0 -75.5 33t-32.5 76zM506 664h401l-166 489q-8 27 -32 27q-27 0 -35 -27z" />
<glyph unicode="&#xc3;" horiz-adv-x="1415" d="M41 137q0 28 8 49l389 1082q36 98 107.5 148t163.5 50q94 0 165 -49.5t107 -148.5l385 -1082q8 -19 8 -47q0 -57 -38.5 -100t-100.5 -43q-44 0 -80 24t-49 64l-113 330h-571l-113 -330q-17 -41 -53 -65.5t-78 -24.5q-62 0 -99.5 43t-37.5 100zM354 1659q0 44 41 80 q97 90 178 90q60 0 142 -38t110 -38q32 0 73 31t69 31q41 0 68.5 -31t27.5 -70q0 -41 -41 -82q-93 -90 -178 -90q-52 0 -137 39t-115 39q-32 0 -72.5 -32t-68.5 -32q-41 0 -69 31.5t-28 71.5zM506 664h401l-166 489q-8 27 -32 27q-27 0 -35 -27z" />
<glyph unicode="&#xc4;" horiz-adv-x="1415" d="M41 137q0 28 8 49l389 1082q36 98 107.5 148t163.5 50q94 0 165 -49.5t107 -148.5l385 -1082q8 -19 8 -47q0 -57 -38.5 -100t-100.5 -43q-44 0 -80 24t-49 64l-113 330h-571l-113 -330q-17 -41 -53 -65.5t-78 -24.5q-62 0 -99.5 43t-37.5 100zM391 1683q0 56 38 95t95 39 q55 0 93 -39t38 -95t-38 -94.5t-93 -38.5q-57 0 -95 38.5t-38 94.5zM506 664h401l-166 489q-8 27 -32 27q-27 0 -35 -27zM762 1683q0 56 38 95t93 39q57 0 95 -39t38 -95t-38 -94.5t-95 -38.5q-55 0 -93 38.5t-38 94.5z" />
<glyph unicode="&#xc5;" horiz-adv-x="1415" d="M41 137q0 28 8 49l389 1082q36 98 107.5 148t163.5 50q94 0 165 -49.5t107 -148.5l385 -1082q8 -19 8 -47q0 -57 -38.5 -100t-100.5 -43q-44 0 -80 24t-49 64l-113 330h-571l-113 -330q-17 -41 -53 -65.5t-78 -24.5q-62 0 -99.5 43t-37.5 100zM481 1796q0 94 67.5 160.5 t160.5 66.5q94 0 161.5 -66t67.5 -161q0 -93 -67.5 -159t-161.5 -66q-93 0 -160.5 66t-67.5 159zM506 664h401l-166 489q-8 27 -32 27q-27 0 -35 -27zM629 1796q0 -35 23 -58.5t57 -23.5q32 0 54.5 23.5t22.5 58.5t-22.5 58.5t-54.5 23.5q-34 0 -57 -23.5t-23 -58.5z" />
<glyph unicode="&#xc6;" horiz-adv-x="2191" d="M39.5 101q-13.5 58 15.5 102l738 1085q61 90 130 124t189 34h832q57 0 97 -38t40 -95q0 -54 -41 -94.5t-96 -40.5h-596v-324h573q54 0 90.5 -36t36.5 -91q0 -51 -38 -90t-89 -39h-573v-330h602q54 0 94.5 -40t40.5 -93q0 -57 -39 -96t-96 -39h-678q-96 0 -150.5 57 t-54.5 144v237h-522l-258 -385q-30 -45 -86 -56t-101 17q-47 29 -60.5 87zM709 684h358v496q-28 -3 -63 -54z" />
<glyph unicode="&#xc7;" horiz-adv-x="1366" d="M115 557q-12 167 0 326q10 123 59 229.5t127.5 185t189 123.5t238.5 45q177 0 325 -86t212 -237q14 -39 14 -76q0 -55 -42.5 -93t-94.5 -38q-45 0 -72.5 22t-50.5 60q-44 85 -120 131.5t-171 46.5q-146 0 -234.5 -96.5t-99.5 -251.5q-9 -131 0 -262q11 -155 99 -247.5 t235 -92.5q95 0 171 46.5t120 131.5q23 41 50 61.5t73 20.5q52 0 94.5 -38t42.5 -93q0 -37 -14 -76q-58 -137 -187.5 -221t-287.5 -98l-21 -56q98 -7 151.5 -65t53.5 -148q0 -98 -71 -170.5t-195 -115.5q-48 -17 -94 2.5t-46 78.5q0 62 66 86q93 36 120 59t27 56 q0 19 -15.5 35t-41.5 16q-15 0 -36 -4t-36 -4q-42 0 -66 36t-7 77l45 123q-215 32 -354 190t-156 381z" />
<glyph unicode="&#xc8;" horiz-adv-x="1288" d="M162 203v1042q0 86 54 143.5t149 57.5h675q57 0 96.5 -38t39.5 -95q0 -54 -41 -94.5t-95 -40.5h-598v-324h574q53 0 90 -36t37 -91q0 -51 -38 -90t-89 -39h-574v-330h602q54 0 95 -40t41 -93q0 -57 -39.5 -96t-96.5 -39h-679q-95 0 -149 58t-54 145zM332 1794 q0 44 31.5 78.5t74.5 34.5q27 0 58 -17l276 -143q64 -36 64 -96q0 -43 -32 -76t-75 -33q-30 0 -55 14l-279 142q-63 35 -63 96z" />
<glyph unicode="&#xc9;" horiz-adv-x="1288" d="M162 203v1042q0 86 54 143.5t149 57.5h675q57 0 96.5 -38t39.5 -95q0 -54 -41 -94.5t-95 -40.5h-598v-324h574q53 0 90 -36t37 -91q0 -51 -38 -90t-89 -39h-574v-330h602q54 0 95 -40t41 -93q0 -57 -39.5 -96t-96.5 -39h-679q-95 0 -149 58t-54 145zM463 1651q0 61 63 96 l277 143q31 17 57 17q42 0 74.5 -35t32.5 -78q0 -60 -64 -96l-278 -142q-25 -14 -56 -14q-44 0 -75 33t-31 76z" />
<glyph unicode="&#xca;" horiz-adv-x="1288" d="M162 203v1042q0 86 54 143.5t149 57.5h675q57 0 96.5 -38t39.5 -95q0 -54 -41 -94.5t-95 -40.5h-598v-324h574q53 0 90 -36t37 -91q0 -51 -38 -90t-89 -39h-574v-330h602q54 0 95 -40t41 -93q0 -57 -39.5 -96t-96.5 -39h-679q-95 0 -149 58t-54 145zM334 1653q0 52 49 88 l219 170q43 31 78 31q33 0 76 -31l219 -170q49 -36 49 -88q0 -43 -33 -76t-76 -33q-30 0 -69 27l-166 127l-166 -127q-42 -27 -72 -27q-43 0 -75.5 33t-32.5 76z" />
<glyph unicode="&#xcb;" horiz-adv-x="1288" d="M162 203v1042q0 86 54 143.5t149 57.5h675q57 0 96.5 -38t39.5 -95q0 -54 -41 -94.5t-95 -40.5h-598v-324h574q53 0 90 -36t37 -91q0 -51 -38 -90t-89 -39h-574v-330h602q54 0 95 -40t41 -93q0 -57 -39.5 -96t-96.5 -39h-679q-95 0 -149 58t-54 145zM365 1681q0 56 38 95 t95 39q55 0 93 -39t38 -95t-38 -94.5t-93 -38.5q-57 0 -95 38.5t-38 94.5zM735 1681q0 56 38 95t93 39q57 0 95 -39t38 -95t-38 -94.5t-95 -38.5q-55 0 -93 38.5t-38 94.5z" />
<glyph unicode="&#xcc;" horiz-adv-x="591" d="M-55 1794q0 44 31.5 78.5t74.5 34.5q27 0 58 -17l276 -143q64 -36 64 -96q0 -43 -32 -76t-75 -33q-30 0 -55 14l-279 142q-63 35 -63 96zM156 137v1174q0 59 42 101t99 42q60 0 99.5 -41.5t39.5 -101.5v-1174q0 -61 -40 -103t-99 -42q-58 0 -99.5 42.5t-41.5 102.5z" />
<glyph unicode="&#xcd;" horiz-adv-x="591" d="M113 1651q0 61 63 96l277 143q31 17 57 17q42 0 74 -35t32 -78q0 -61 -63 -96l-279 -142q-25 -14 -55 -14q-44 0 -75 33t-31 76zM156 137v1174q0 59 42 101t99 42q60 0 99.5 -41.5t39.5 -101.5v-1174q0 -61 -40 -103t-99 -42q-58 0 -99.5 42.5t-41.5 102.5z" />
<glyph unicode="&#xce;" horiz-adv-x="591" d="M-53 1653q0 52 49 88l219 170q43 31 78 31q33 0 76 -31l219 -170q49 -36 49 -88q0 -43 -33 -76t-76 -33q-30 0 -69 27l-166 127l-166 -127q-42 -27 -72 -27q-43 0 -75.5 33t-32.5 76zM156 137v1174q0 59 42 101t99 42q60 0 99.5 -41.5t39.5 -101.5v-1174q0 -61 -40 -103 t-99 -42q-58 0 -99.5 42.5t-41.5 102.5z" />
<glyph unicode="&#xcf;" horiz-adv-x="591" d="M-18 1683q0 56 38 95t95 39q55 0 93 -39t38 -95t-38 -94.5t-93 -38.5q-57 0 -95 38.5t-38 94.5zM156 137v1174q0 59 42 101t99 42q60 0 99.5 -41.5t39.5 -101.5v-1174q0 -61 -40 -103t-99 -42q-58 0 -99.5 42.5t-41.5 102.5zM352 1683q0 56 38 95t93 39q57 0 95 -39 t38 -95t-38 -94.5t-95 -38.5q-55 0 -93 38.5t-38 94.5z" />
<glyph unicode="&#xd0;" horiz-adv-x="1470" d="M-33 721q0 53 34.5 88t88.5 35h72v405q0 88 53 142.5t150 54.5h313q163 0 289 -44t207.5 -125.5t126.5 -190.5t55 -244q9 -109 2 -221q-8 -109 -36.5 -202t-83.5 -171t-132 -132.5t-186 -85t-242 -30.5h-313q-94 0 -148.5 56.5t-54.5 142.5v399h-72q-52 0 -87.5 36 t-35.5 87zM442 274h242q189 0 284.5 94.5t106.5 264.5q6 80 2 168q-19 368 -393 368h-242v-325h232q52 0 87.5 -35t35.5 -88q0 -51 -35.5 -87t-87.5 -36h-232v-324z" />
<glyph unicode="&#xd1;" horiz-adv-x="1570" d="M162 133v1084q0 102 61 167.5t162 65.5q131 0 201 -121l547 -944h4q-7 236 -7 324v602q0 60 40.5 101.5t99.5 41.5q60 0 99.5 -41.5t39.5 -101.5v-1104q0 -90 -56.5 -152.5t-146.5 -62.5q-133 0 -205 125l-561 964h-4q4 -109 4 -344v-604q0 -61 -39 -103t-98 -42 q-57 0 -99 43t-42 102zM459 1663q0 44 41 80q97 90 178 90q60 0 142 -38t110 -38q32 0 72.5 31t68.5 31q41 0 68.5 -31t27.5 -70q0 -41 -41 -82q-93 -90 -178 -90q-52 0 -137 39t-115 39q-32 0 -72.5 -31.5t-68.5 -31.5q-41 0 -68.5 31t-27.5 71z" />
<glyph unicode="&#xd2;" horiz-adv-x="1503" d="M117 557q-12 167 0 326q10 122 61.5 229.5t134 185.5t196 123t241.5 45q169 0 311 -78t227.5 -211t97.5 -294q12 -164 0 -326q-10 -122 -62.5 -229t-135.5 -185t-197 -123t-241 -45q-128 0 -241.5 45t-196 123t-134 185t-61.5 229zM395 592q12 -153 110 -249.5t245 -96.5 q148 0 246 96.5t110 249.5q11 148 0 262q-12 150 -110.5 246t-245.5 96t-245.5 -96t-109.5 -246q-9 -133 0 -262zM426 1794q0 44 31.5 78.5t74.5 34.5q27 0 58 -17l276 -143q64 -36 64 -96q0 -43 -32 -76t-75 -33q-30 0 -55 14l-279 142q-63 35 -63 96z" />
<glyph unicode="&#xd3;" horiz-adv-x="1503" d="M117 557q-12 167 0 326q10 122 61.5 229.5t134 185.5t196 123t241.5 45q169 0 311 -78t227.5 -211t97.5 -294q12 -164 0 -326q-10 -122 -62.5 -229t-135.5 -185t-197 -123t-241 -45q-128 0 -241.5 45t-196 123t-134 185t-61.5 229zM395 592q12 -153 110 -249.5t245 -96.5 q148 0 246 96.5t110 249.5q11 148 0 262q-12 150 -110.5 246t-245.5 96t-245.5 -96t-109.5 -246q-9 -133 0 -262zM559 1651q0 60 64 96l276 143q31 17 57 17q42 0 74.5 -35t32.5 -78q0 -60 -64 -96l-278 -142q-25 -14 -55 -14q-44 0 -75.5 33t-31.5 76z" />
<glyph unicode="&#xd4;" horiz-adv-x="1503" d="M117 557q-12 167 0 326q10 122 61.5 229.5t134 185.5t196 123t241.5 45q169 0 311 -78t227.5 -211t97.5 -294q12 -164 0 -326q-10 -122 -62.5 -229t-135.5 -185t-197 -123t-241 -45q-128 0 -241.5 45t-196 123t-134 185t-61.5 229zM395 592q12 -153 110 -249.5t245 -96.5 q148 0 246 96.5t110 249.5q11 148 0 262q-12 150 -110.5 246t-245.5 96t-245.5 -96t-109.5 -246q-9 -133 0 -262zM412 1653q0 52 49 88l219 170q43 31 78 31q33 0 76 -31l219 -170q49 -36 49 -88q0 -43 -33 -76t-76 -33q-30 0 -69 27l-166 127l-166 -127q-42 -27 -72 -27 q-43 0 -75.5 33t-32.5 76z" />
<glyph unicode="&#xd5;" horiz-adv-x="1503" d="M117 557q-12 167 0 326q10 122 61.5 229.5t134 185.5t196 123t241.5 45q169 0 311 -78t227.5 -211t97.5 -294q12 -164 0 -326q-10 -122 -62.5 -229t-135.5 -185t-197 -123t-241 -45q-128 0 -241.5 45t-196 123t-134 185t-61.5 229zM393 1655q0 44 41 80q97 90 178 90 q60 0 142 -38t110 -38q32 0 73 30.5t69 30.5q41 0 68.5 -30.5t27.5 -69.5q0 -41 -41 -82q-93 -90 -178 -90q-51 0 -136 39t-116 39q-32 0 -73 -32t-69 -32q-41 0 -68.5 31.5t-27.5 71.5zM395 592q12 -153 110 -249.5t245 -96.5q148 0 246 96.5t110 249.5q11 148 0 262 q-12 150 -110.5 246t-245.5 96t-245.5 -96t-109.5 -246q-9 -133 0 -262z" />
<glyph unicode="&#xd6;" horiz-adv-x="1503" d="M117 557q-12 167 0 326q10 122 61.5 229.5t134 185.5t196 123t241.5 45q169 0 311 -78t227.5 -211t97.5 -294q12 -164 0 -326q-10 -122 -62.5 -229t-135.5 -185t-197 -123t-241 -45q-128 0 -241.5 45t-196 123t-134 185t-61.5 229zM395 592q12 -153 110 -249.5t245 -96.5 q148 0 246 96.5t110 249.5q11 148 0 262q-12 150 -110.5 246t-245.5 96t-245.5 -96t-109.5 -246q-9 -133 0 -262zM434 1683q0 56 38 95t95 39q55 0 93 -39t38 -95t-38 -94.5t-93 -38.5q-57 0 -95 38.5t-38 94.5zM805 1683q0 56 38 95t93 39q57 0 95 -39t38 -95t-38 -94.5 t-95 -38.5q-55 0 -93 38.5t-38 94.5z" />
<glyph unicode="&#xd7;" d="M167 372.5q0 56.5 38 94.5l252 252l-252 252q-38 40 -38 95.5t38 92.5q40 40 93 39t93 -41l252 -254l250 250q40 40 95 39.5t95 -41.5q36 -40 34.5 -93.5t-38.5 -90.5l-250 -248l248 -244q38 -37 39.5 -91.5t-33.5 -92.5q-39 -42 -95 -43t-95 39l-250 248l-252 -252 q-40 -40 -93 -41t-93 39q-38 35 -38 91.5z" />
<glyph unicode="&#xd8;" horiz-adv-x="1511" d="M123 557q-12 167 0 326q10 122 62 229.5t134.5 185.5t196.5 123t242 45q167 0 315 -82l23 33q29 41 79.5 47.5t90.5 -24.5t45.5 -79t-25.5 -91l-29 -41q125 -154 140 -346q12 -164 0 -326q-10 -122 -63 -229.5t-136.5 -185t-198 -122.5t-241.5 -45q-187 0 -338 93 l-31 -43q-30 -42 -79.5 -48t-90.5 25q-41 29 -46 77.5t28 92.5l41 57q-104 140 -119 328zM403 592q3 -49 23 -109l485 678q-68 35 -153 35q-147 0 -245 -96t-110 -246q-9 -133 0 -262zM580 291q79 -45 178 -45q149 0 247 96.5t109 249.5q12 129 0 262q-6 72 -33 133z" />
<glyph unicode="&#xd9;" horiz-adv-x="1529" d="M147 616v695q0 59 42 101t100 42q61 0 100 -41t39 -102v-705q0 -165 94.5 -262.5t243.5 -97.5t243.5 97.5t94.5 262.5v705q0 60 40.5 101.5t98.5 41.5q61 0 101 -41t40 -102v-695q0 -140 -47.5 -260.5t-129.5 -203.5t-197 -130t-246 -47t-245 47t-196 130t-129 203.5 t-47 260.5zM442 1794q0 44 32 78.5t75 34.5q26 0 57 -17l277 -143q63 -35 63 -96q0 -43 -32 -76t-74 -33q-31 0 -56 14l-278 142q-64 36 -64 96z" />
<glyph unicode="&#xda;" horiz-adv-x="1529" d="M147 616v695q0 59 42 101t100 42q61 0 100 -41t39 -102v-705q0 -165 94.5 -262.5t243.5 -97.5t243.5 97.5t94.5 262.5v705q0 60 40.5 101.5t98.5 41.5q61 0 101 -41t40 -102v-695q0 -140 -47.5 -260.5t-129.5 -203.5t-197 -130t-246 -47t-245 47t-196 130t-129 203.5 t-47 260.5zM573 1651q0 60 64 96l276 143q31 17 58 17q42 0 74 -35t32 -78q0 -61 -63 -96l-279 -142q-25 -14 -55 -14q-44 0 -75.5 33t-31.5 76z" />
<glyph unicode="&#xdb;" horiz-adv-x="1529" d="M147 616v695q0 59 42 101t100 42q61 0 100 -41t39 -102v-705q0 -165 94.5 -262.5t243.5 -97.5t243.5 97.5t94.5 262.5v705q0 60 40.5 101.5t98.5 41.5q61 0 101 -41t40 -102v-695q0 -140 -47.5 -260.5t-129.5 -203.5t-197 -130t-246 -47t-245 47t-196 130t-129 203.5 t-47 260.5zM426 1653q0 52 49 88l219 170q43 31 78 31q33 0 76 -31l219 -170q49 -36 49 -88q0 -43 -32.5 -76t-75.5 -33q-31 0 -70 27l-166 127l-166 -127q-42 -27 -71 -27q-43 0 -76 33t-33 76z" />
<glyph unicode="&#xdc;" horiz-adv-x="1529" d="M147 616v695q0 59 42 101t100 42q61 0 100 -41t39 -102v-705q0 -165 94.5 -262.5t243.5 -97.5t243.5 97.5t94.5 262.5v705q0 60 40.5 101.5t98.5 41.5q61 0 101 -41t40 -102v-695q0 -140 -47.5 -260.5t-129.5 -203.5t-197 -130t-246 -47t-245 47t-196 130t-129 203.5 t-47 260.5zM449 1683q0 56 38 95t95 39q55 0 93 -39t38 -95t-38 -94.5t-93 -38.5q-57 0 -95 38.5t-38 94.5zM819 1683q0 56 38 95t93 39q57 0 95 -39t38 -95t-38 -94.5t-95 -38.5q-55 0 -93 38.5t-38 94.5z" />
<glyph unicode="&#xdd;" horiz-adv-x="1351" d="M23 1311q0 56 42.5 99.5t100.5 43.5q70 0 113 -55l397 -498l399 498q38 45 96.5 53t106.5 -31q45 -39 51 -99t-33 -108l-424 -509q-23 -27 -31 -38t-16 -32t-8 -47v-453q0 -60 -40.5 -101.5t-100.5 -41.5q-57 0 -99 43t-42 100v453q0 26 -9 48t-16.5 32t-32.5 39 l-420 507q-34 39 -34 97zM424 1651q0 61 63 96l277 143q31 17 57 17q42 0 74.5 -35t32.5 -78q0 -60 -64 -96l-278 -142q-25 -14 -56 -14q-44 0 -75 33t-31 76z" />
<glyph unicode="&#xde;" horiz-adv-x="1327" d="M162 135v1174q0 59 41.5 102t99.5 43t98.5 -42.5t40.5 -102.5v-103h316q138 0 250.5 -55.5t182 -167.5t69.5 -262q0 -227 -145 -357.5t-376 -130.5h-297v-98q0 -61 -40 -103t-99 -42q-58 0 -99.5 43t-41.5 102zM442 502h291q124 0 183 60t59 165q0 104 -59.5 165.5 t-176.5 61.5h-297v-452z" />
<glyph unicode="&#xdf;" horiz-adv-x="1425" d="M147 133v895q0 213 134.5 333t386.5 120q192 0 305.5 -83.5t113.5 -230.5q0 -54 -15.5 -100t-37.5 -77t-44.5 -58t-38 -56t-15.5 -59q0 -17 6.5 -30.5t15.5 -23t28.5 -21t36 -19t49 -22.5t56.5 -27q122 -59 171 -140t49 -186q0 -67 -27 -130.5t-78 -115.5t-134 -84 t-185 -32q-81 0 -167.5 25t-156.5 79q-49 40 -60 94.5t17 91.5q31 44 84.5 50.5t110.5 -33.5q41 -32 74.5 -47t82.5 -15q71 0 117.5 39.5t46.5 108.5q0 54 -40 88t-136 63q-128 41 -183 98.5t-55 149.5q0 57 24.5 106.5t53.5 79.5t53.5 69t24.5 77q0 54 -42.5 87.5 t-123.5 33.5q-225 0 -225 -230v-868q0 -60 -39.5 -101.5t-99.5 -41.5q-57 0 -97.5 41.5t-40.5 101.5z" />
<glyph unicode="&#xe0;" horiz-adv-x="1142" d="M96 344q0 68 24.5 126t73 105.5t132 75t192.5 27.5q93 0 227 -31v55q0 82 -44.5 121t-149.5 39q-85 0 -197 -35q-84 -27 -136 6.5t-52 100.5q0 88 90 125q47 21 130 36t171 15q453 0 453 -416v-501q0 -35 -10.5 -56.5t-38.5 -40.5q-60 -41 -171.5 -76.5t-261.5 -35.5 q-212 0 -322 102t-110 258zM285 1458q0 44 31.5 78.5t74.5 34.5q27 0 58 -17l276 -143q63 -35 63 -96q0 -43 -32 -76t-74 -33q-28 0 -55 15l-279 141q-63 35 -63 96zM362 354q0 -66 49.5 -101.5t135.5 -35.5q111 0 198 53v185q-112 32 -204 32q-82 0 -130.5 -37t-48.5 -96z " />
<glyph unicode="&#xe1;" horiz-adv-x="1142" d="M96 344q0 68 24.5 126t73 105.5t132 75t192.5 27.5q93 0 227 -31v55q0 82 -44.5 121t-149.5 39q-85 0 -197 -35q-84 -27 -136 6.5t-52 100.5q0 88 90 125q47 21 130 36t171 15q453 0 453 -416v-501q0 -35 -10.5 -56.5t-38.5 -40.5q-60 -41 -171.5 -76.5t-261.5 -35.5 q-212 0 -322 102t-110 258zM362 354q0 -66 49.5 -101.5t135.5 -35.5q111 0 198 53v185q-112 32 -204 32q-82 0 -130.5 -37t-48.5 -96zM381 1315q0 61 63 96l277 143q31 17 57 17q42 0 74.5 -35t32.5 -78q0 -60 -64 -96l-278 -141q-27 -15 -56 -15q-44 0 -75 33t-31 76z" />
<glyph unicode="&#xe2;" horiz-adv-x="1142" d="M96 344q0 68 24.5 126t73 105.5t132 75t192.5 27.5q93 0 227 -31v55q0 82 -44.5 121t-149.5 39q-85 0 -197 -35q-84 -27 -136 6.5t-52 100.5q0 88 90 125q47 21 130 36t171 15q453 0 453 -416v-501q0 -35 -10.5 -56.5t-38.5 -40.5q-60 -41 -171.5 -76.5t-261.5 -35.5 q-212 0 -322 102t-110 258zM242 1290q0 52 49 88l219 170q43 31 78 31q33 0 76 -31l219 -170q49 -36 49 -88q0 -43 -33 -75.5t-76 -32.5q-32 0 -69 26l-166 127l-166 -127q-41 -26 -72 -26q-43 0 -75.5 32.5t-32.5 75.5zM362 354q0 -66 49.5 -101.5t135.5 -35.5 q111 0 198 53v185q-112 32 -204 32q-82 0 -130.5 -37t-48.5 -96z" />
<glyph unicode="&#xe3;" horiz-adv-x="1142" d="M96 344q0 68 24.5 126t73 105.5t132 75t192.5 27.5q93 0 227 -31v55q0 82 -44.5 121t-149.5 39q-85 0 -197 -35q-84 -27 -136 6.5t-52 100.5q0 88 90 125q47 21 130 36t171 15q453 0 453 -416v-501q0 -35 -10.5 -56.5t-38.5 -40.5q-60 -41 -171.5 -76.5t-261.5 -35.5 q-212 0 -322 102t-110 258zM223 1327q0 44 41 80q97 90 178 90q60 0 142 -38t110 -38q32 0 73 31t69 31q41 0 68.5 -31t27.5 -70q0 -41 -41 -82q-93 -90 -178 -90q-51 0 -136 39t-116 39q-32 0 -73 -31.5t-69 -31.5q-41 0 -68.5 31t-27.5 71zM362 354q0 -66 49.5 -101.5 t135.5 -35.5q111 0 198 53v185q-112 32 -204 32q-82 0 -130.5 -37t-48.5 -96z" />
<glyph unicode="&#xe4;" horiz-adv-x="1142" d="M96 344q0 68 24.5 126t73 105.5t132 75t192.5 27.5q93 0 227 -31v55q0 82 -44.5 121t-149.5 39q-85 0 -197 -35q-84 -27 -136 6.5t-52 100.5q0 88 90 125q47 21 130 36t171 15q453 0 453 -416v-501q0 -35 -10.5 -56.5t-38.5 -40.5q-60 -41 -171.5 -76.5t-261.5 -35.5 q-212 0 -322 102t-110 258zM266 1352q0 56 38 94.5t95 38.5q55 0 93 -38.5t38 -94.5t-38 -94.5t-93 -38.5q-57 0 -95 38.5t-38 94.5zM362 354q0 -66 49.5 -101.5t135.5 -35.5q111 0 198 53v185q-112 32 -204 32q-82 0 -130.5 -37t-48.5 -96zM637 1352q0 56 38 94.5t93 38.5 q57 0 95 -38.5t38 -94.5t-38 -94.5t-95 -38.5q-55 0 -93 38.5t-38 94.5z" />
<glyph unicode="&#xe5;" horiz-adv-x="1142" d="M96 344q0 68 24.5 126t73 105.5t132 75t192.5 27.5q93 0 227 -31v55q0 82 -44.5 121t-149.5 39q-85 0 -197 -35q-84 -27 -136 6.5t-52 100.5q0 88 90 125q47 21 130 36t171 15q453 0 453 -416v-501q0 -35 -10.5 -56.5t-38.5 -40.5q-60 -41 -171.5 -76.5t-261.5 -35.5 q-212 0 -322 102t-110 258zM354 1397q0 94 67.5 160.5t160.5 66.5q94 0 161.5 -66t67.5 -161q0 -93 -67.5 -159.5t-161.5 -66.5q-93 0 -160.5 66.5t-67.5 159.5zM362 354q0 -66 49.5 -101.5t135.5 -35.5q111 0 198 53v185q-112 32 -204 32q-82 0 -130.5 -37t-48.5 -96z M502 1397q0 -35 23 -58.5t57 -23.5q32 0 54.5 23.5t22.5 58.5t-22.5 58.5t-54.5 23.5q-34 0 -57 -23.5t-23 -58.5z" />
<glyph unicode="&#xe6;" horiz-adv-x="1792" d="M96 346q0 67 24.5 125t73 105t132 74.5t192.5 27.5q93 0 227 -31v60q0 78 -45 116.5t-149 38.5q-80 0 -203 -37q-85 -22 -133.5 10.5t-48.5 100.5q0 34 22 68.5t72 54.5q108 51 297 51q233 0 340 -121q60 60 145.5 90.5t180.5 30.5q207 0 335 -123t134 -334q2 -20 2 -55 q0 -145 -148 -145h-540v-21q0 -96 65.5 -147.5t169.5 -51.5q103 0 219 46q78 29 129 -8.5t51 -100.5q0 -75 -69 -115q-126 -71 -338 -71q-176 0 -307 108q-67 -43 -172.5 -75.5t-225.5 -32.5q-211 0 -321.5 103.5t-110.5 258.5zM362 354q0 -68 50 -102.5t141 -34.5 q118 0 217 64q-32 79 -29 176q-120 30 -200 30q-83 0 -131 -36.5t-48 -96.5zM1006 639h399q18 0 22 25q5 96 -50 152t-154 56q-109 0 -164 -63.5t-53 -169.5z" />
<glyph unicode="&#xe7;" horiz-adv-x="1146" d="M117 410q-10 143 0 282q12 184 148.5 301t336.5 117q86 0 162 -20.5t128 -53.5t90 -74t55.5 -81t17.5 -76q0 -58 -37 -98.5t-96 -40.5q-72 0 -109 61q-64 123 -203 123q-98 0 -155 -53t-66 -144q-8 -95 0 -202q9 -93 66 -149t155 -56q140 0 205 121q38 63 109 63 q59 0 96 -40.5t37 -100.5q0 -41 -24.5 -87.5t-69.5 -91.5t-119.5 -79.5t-163.5 -44.5l-27 -62q99 -7 153 -65t54 -148q0 -98 -71 -170.5t-195 -115.5q-48 -17 -93.5 2.5t-45.5 78.5q0 62 63 86q93 36 120.5 59t27.5 56q0 19 -15.5 35t-42.5 16q-14 0 -34 -4t-35 -4 q-42 0 -66.5 36t-9.5 77l47 127q-166 26 -273.5 142.5t-119.5 277.5z" />
<glyph unicode="&#xe8;" horiz-adv-x="1167" d="M117 418q-9 117 0 256q19 199 150.5 317.5t332.5 118.5q210 0 339.5 -129.5t129.5 -345.5v-45q0 -63 -34.5 -100t-106.5 -37h-545v-21q0 -94 64.5 -146.5t170.5 -52.5q101 0 220 46q77 29 128.5 -8.5t51.5 -100.5q0 -73 -70 -115q-56 -33 -147 -52t-191 -19 q-210 0 -344 120t-149 314zM293 1458q0 44 31.5 78.5t74.5 34.5q27 0 58 -17l276 -143q64 -36 64 -96q0 -43 -32 -76t-75 -33q-28 0 -55 15l-279 141q-63 35 -63 96zM383 639h399q23 0 23 25q5 94 -50.5 151t-154.5 57q-106 0 -161.5 -62t-55.5 -171z" />
<glyph unicode="&#xe9;" horiz-adv-x="1167" d="M117 418q-9 117 0 256q19 199 150.5 317.5t332.5 118.5q210 0 339.5 -129.5t129.5 -345.5v-45q0 -63 -34.5 -100t-106.5 -37h-545v-21q0 -94 64.5 -146.5t170.5 -52.5q101 0 220 46q77 29 128.5 -8.5t51.5 -100.5q0 -73 -70 -115q-56 -33 -147 -52t-191 -19 q-210 0 -344 120t-149 314zM383 639h399q23 0 23 25q5 94 -50.5 151t-154.5 57q-106 0 -161.5 -62t-55.5 -171zM403 1315q0 60 64 96l276 143q31 17 58 17q42 0 74 -35t32 -78q0 -61 -63 -96l-279 -141q-27 -15 -55 -15q-44 0 -75.5 33t-31.5 76z" />
<glyph unicode="&#xea;" horiz-adv-x="1167" d="M117 418q-9 117 0 256q19 199 150.5 317.5t332.5 118.5q210 0 339.5 -129.5t129.5 -345.5v-45q0 -63 -34.5 -100t-106.5 -37h-545v-21q0 -94 64.5 -146.5t170.5 -52.5q101 0 220 46q77 29 128.5 -8.5t51.5 -100.5q0 -73 -70 -115q-56 -33 -147 -52t-191 -19 q-210 0 -344 120t-149 314zM250 1317q0 52 49 88l219 170q43 31 78 31q33 0 76 -31l219 -170q49 -36 49 -88q0 -43 -33 -76t-76 -33q-30 0 -69 27l-166 127l-166 -127q-42 -27 -72 -27q-43 0 -75.5 33t-32.5 76zM383 639h399q23 0 23 25q5 94 -50.5 151t-154.5 57 q-106 0 -161.5 -62t-55.5 -171z" />
<glyph unicode="&#xeb;" horiz-adv-x="1167" d="M117 418q-9 117 0 256q19 199 150.5 317.5t332.5 118.5q210 0 339.5 -129.5t129.5 -345.5v-45q0 -63 -34.5 -100t-106.5 -37h-545v-21q0 -94 64.5 -146.5t170.5 -52.5q101 0 220 46q77 29 128.5 -8.5t51.5 -100.5q0 -73 -70 -115q-56 -33 -147 -52t-191 -19 q-210 0 -344 120t-149 314zM287 1352q0 56 38 94.5t95 38.5q55 0 93 -38.5t38 -94.5t-38 -94.5t-93 -38.5q-57 0 -95 38.5t-38 94.5zM383 639h399q23 0 23 25q5 94 -50.5 151t-154.5 57q-106 0 -161.5 -62t-55.5 -171zM657 1352q0 56 38 94.5t93 38.5q57 0 95.5 -38.5 t38.5 -94.5t-38.5 -94.5t-95.5 -38.5q-55 0 -93 38.5t-38 94.5z" />
<glyph unicode="&#xec;" horiz-adv-x="589" d="M-25 1458q0 44 32 78.5t75 34.5q26 0 57 -17l277 -143q63 -35 63 -96q0 -43 -32 -76t-74 -33q-29 0 -56 15l-278 141q-64 36 -64 96zM158 131v832q0 60 39.5 100.5t97.5 40.5q57 0 98 -41t41 -100v-832q0 -59 -40 -100t-99 -41q-56 0 -96.5 41.5t-40.5 99.5z" />
<glyph unicode="&#xed;" horiz-adv-x="589" d="M113 1315q0 61 63 96l277 143q31 17 57 17q42 0 74 -35t32 -78q0 -61 -63 -96l-279 -141q-27 -15 -55 -15q-44 0 -75 33t-31 76zM158 131v832q0 60 39.5 100.5t97.5 40.5q57 0 98 -41t41 -100v-832q0 -59 -40 -100t-99 -41q-56 0 -96.5 41.5t-40.5 99.5z" />
<glyph unicode="&#xee;" horiz-adv-x="589" d="M-45 1317q0 52 49 88l219 170q43 31 78 31q33 0 76 -31l219 -170q49 -36 49 -88q0 -43 -32.5 -76t-75.5 -33q-31 0 -70 27l-166 127l-166 -127q-42 -27 -72 -27q-43 0 -75.5 33t-32.5 76zM158 131v832q0 60 39.5 100.5t97.5 40.5q57 0 98 -41t41 -100v-832 q0 -59 -40 -100t-99 -41q-56 0 -96.5 41.5t-40.5 99.5z" />
<glyph unicode="&#xef;" horiz-adv-x="589" d="M-18 1352q0 56 38 94.5t95 38.5q55 0 93 -38.5t38 -94.5t-38 -94.5t-93 -38.5q-57 0 -95 38.5t-38 94.5zM158 131v832q0 60 39.5 100.5t97.5 40.5q57 0 98 -41t41 -100v-832q0 -59 -40 -100t-99 -41q-56 0 -96.5 41.5t-40.5 99.5zM352 1352q0 56 38 94.5t93 38.5 q57 0 95 -38.5t38 -94.5t-38 -94.5t-95 -38.5q-55 0 -93 38.5t-38 94.5z" />
<glyph unicode="&#xf0;" horiz-adv-x="1261" d="M117 408q-9 118 0 235q14 184 145 297t334 113q137 0 250 -80q-4 117 -66 207l-133 -58q-43 -19 -85 -4.5t-64 53.5q-18 41 -1 84.5t60 61.5l47 20q-38 32 -45 75t12 75q19 38 63.5 52t90.5 -7q79 -40 133 -86l103 45q39 19 82 5.5t63 -56.5q17 -41 0.5 -84t-57.5 -60 l-54 -22q95 -174 95 -416l-3 -418q0 -196 -137 -324t-348 -128q-196 0 -332 119t-153 301zM395 436q8 -83 64 -134.5t143 -51.5q88 0 145 52t66 136q4 55 0 166q-8 82 -64.5 134.5t-146.5 52.5q-88 0 -143.5 -53.5t-63.5 -135.5q-8 -100 0 -166z" />
<glyph unicode="&#xf1;" horiz-adv-x="1220" d="M141 131v766q0 37 11 59t38 41q60 43 174 78t261 35q229 0 347 -115.5t118 -332.5v-531q0 -59 -39.5 -100t-98.5 -41q-56 0 -96.5 41.5t-40.5 99.5v518q0 95 -57 144t-142 49q-58 0 -113.5 -14.5t-86.5 -34.5v-662q0 -59 -39 -100t-98 -41q-56 0 -97 41.5t-41 99.5z M240 1327q0 44 41 80q97 90 178 90q60 0 142 -38t110 -38q32 0 72.5 31t68.5 31q41 0 68.5 -31t27.5 -70q0 -41 -41 -82q-93 -90 -178 -90q-51 0 -136.5 39t-115.5 39q-32 0 -72.5 -31.5t-68.5 -31.5q-41 0 -68.5 31t-27.5 71z" />
<glyph unicode="&#xf2;" horiz-adv-x="1214" d="M117 399q-11 146 0 293q15 184 152.5 301t338.5 117q202 0 338.5 -116.5t151.5 -301.5q11 -145 0 -291q-15 -185 -151.5 -301t-338.5 -116q-201 0 -338.5 116t-152.5 299zM307 1458q0 44 32 78.5t75 34.5q26 0 57 -17l277 -143q63 -35 63 -96q0 -43 -32 -76t-74 -33 q-29 0 -56 15l-278 141q-64 36 -64 96zM389 444q8 -89 66 -143.5t153 -54.5t153 54.5t64 143.5q8 101 0 205q-5 89 -63.5 144t-153.5 55t-153 -54.5t-66 -144.5q-8 -104 0 -205z" />
<glyph unicode="&#xf3;" horiz-adv-x="1214" d="M117 399q-11 146 0 293q15 184 152.5 301t338.5 117q202 0 338.5 -116.5t151.5 -301.5q11 -145 0 -291q-15 -185 -151.5 -301t-338.5 -116q-201 0 -338.5 116t-152.5 299zM389 444q8 -89 66 -143.5t153 -54.5t153 54.5t64 143.5q8 101 0 205q-5 89 -63.5 144t-153.5 55 t-153 -54.5t-66 -144.5q-8 -104 0 -205zM391 1315q0 60 64 96l276 143q31 17 57 17q42 0 74.5 -35t32.5 -78q0 -60 -64 -96l-278 -141q-27 -15 -55 -15q-44 0 -75.5 33t-31.5 76z" />
<glyph unicode="&#xf4;" horiz-adv-x="1214" d="M117 399q-11 146 0 293q15 184 152.5 301t338.5 117q202 0 338.5 -116.5t151.5 -301.5q11 -145 0 -291q-15 -185 -151.5 -301t-338.5 -116q-201 0 -338.5 116t-152.5 299zM266 1315q0 52 49 88l220 170q43 31 77 31q33 0 76 -31l219 -170q49 -36 49 -88q0 -43 -32.5 -76 t-75.5 -33q-31 0 -70 27l-166 127l-166 -127q-42 -27 -71 -27q-43 0 -76 33t-33 76zM389 444q8 -89 66 -143.5t153 -54.5t153 54.5t64 143.5q8 101 0 205q-5 89 -63.5 144t-153.5 55t-153 -54.5t-66 -144.5q-8 -104 0 -205z" />
<glyph unicode="&#xf5;" horiz-adv-x="1214" d="M117 399q-11 146 0 293q15 184 152.5 301t338.5 117q202 0 338.5 -116.5t151.5 -301.5q11 -145 0 -291q-15 -185 -151.5 -301t-338.5 -116q-201 0 -338.5 116t-152.5 299zM248 1327q0 44 41 80q97 90 178 90q60 0 142 -38t110 -38q32 0 72.5 31t68.5 31q41 0 68.5 -31 t27.5 -70q0 -41 -41 -82q-93 -90 -178 -90q-51 0 -136 39t-116 39q-32 0 -72.5 -31.5t-68.5 -31.5q-41 0 -68.5 31t-27.5 71zM389 444q8 -89 66 -143.5t153 -54.5t153 54.5t64 143.5q8 101 0 205q-5 89 -63.5 144t-153.5 55t-153 -54.5t-66 -144.5q-8 -104 0 -205z" />
<glyph unicode="&#xf6;" horiz-adv-x="1214" d="M117 399q-11 146 0 293q15 184 152.5 301t338.5 117q202 0 338.5 -116.5t151.5 -301.5q11 -145 0 -291q-15 -185 -151.5 -301t-338.5 -116q-201 0 -338.5 116t-152.5 299zM291 1352q0 56 38 94.5t95 38.5q55 0 93 -38.5t38 -94.5t-38 -94.5t-93 -38.5q-57 0 -95 38.5 t-38 94.5zM389 444q8 -89 66 -143.5t153 -54.5t153 54.5t64 143.5q8 101 0 205q-5 89 -63.5 144t-153.5 55t-153 -54.5t-66 -144.5q-8 -104 0 -205zM662 1352q0 56 38 94.5t93 38.5q57 0 95 -38.5t38 -94.5t-38 -94.5t-95 -38.5q-55 0 -93 38.5t-38 94.5z" />
<glyph unicode="&#xf7;" d="M121 715q0 56 38.5 93.5t94.5 37.5h776q56 0 94.5 -37.5t38.5 -93.5q0 -54 -39.5 -92.5t-93.5 -38.5h-776q-55 0 -94 38.5t-39 92.5zM487 291q0 63 46 108t108 45q63 0 109.5 -45t46.5 -108t-46.5 -109.5t-109.5 -46.5q-62 0 -108 46.5t-46 109.5zM487 1145q0 63 46 109 t108 46q63 0 109.5 -46t46.5 -109q0 -62 -46.5 -108t-109.5 -46q-61 0 -107.5 46.5t-46.5 107.5z" />
<glyph unicode="&#xf8;" horiz-adv-x="1226" d="M115 91q-2 46 30 83l35 41q-47 76 -57 184q-11 146 0 293q15 184 152.5 301t338.5 117q152 0 273 -70l28 33q32 36 78.5 38t79.5 -28q33 -29 35.5 -75.5t-27.5 -81.5l-37 -43q51 -88 60 -191q11 -145 0 -291q-15 -185 -151.5 -301t-338.5 -116q-157 0 -278 73l-27 -30 q-33 -37 -79.5 -39.5t-77.5 26.5q-35 31 -37 77zM393 463l314 368q-46 17 -93 17q-95 0 -153 -54.5t-66 -144.5q-8 -101 -2 -186zM514 264q44 -18 100 -18q95 0 153 54.5t64 143.5q7 90 0 191z" />
<glyph unicode="&#xf9;" horiz-adv-x="1220" d="M135 432v526q0 64 36 105t99 41q59 0 99.5 -42.5t40.5 -103.5v-522q0 -91 53 -140.5t143 -49.5q117 0 201 53v664q0 59 39 100t98 41q57 0 97 -41t40 -100v-766q0 -36 -11 -58t-38 -39q-62 -44 -173.5 -80t-258.5 -36q-222 0 -343.5 116t-121.5 332zM315 1458 q0 44 32 78.5t75 34.5q26 0 57 -17l277 -143q63 -35 63 -96q0 -43 -32 -76t-74 -33q-29 0 -56 15l-278 141q-64 36 -64 96z" />
<glyph unicode="&#xfa;" horiz-adv-x="1220" d="M135 432v526q0 64 36 105t99 41q59 0 99.5 -42.5t40.5 -103.5v-522q0 -91 53 -140.5t143 -49.5q117 0 201 53v664q0 59 39 100t98 41q57 0 97 -41t40 -100v-766q0 -36 -11 -58t-38 -39q-62 -44 -173.5 -80t-258.5 -36q-222 0 -343.5 116t-121.5 332zM422 1315q0 61 63 96 l277 143q31 17 57 17q42 0 74.5 -35t32.5 -78q0 -60 -64 -96l-278 -141q-27 -15 -56 -15q-44 0 -75 33t-31 76z" />
<glyph unicode="&#xfb;" horiz-adv-x="1220" d="M135 432v526q0 64 36 105t99 41q59 0 99.5 -42.5t40.5 -103.5v-522q0 -91 53 -140.5t143 -49.5q117 0 201 53v664q0 59 39 100t98 41q57 0 97 -41t40 -100v-766q0 -36 -11 -58t-38 -39q-62 -44 -173.5 -80t-258.5 -36q-222 0 -343.5 116t-121.5 332zM264 1317q0 52 49 88 l219 170q43 31 78 31q33 0 76 -31l219 -170q49 -36 49 -88q0 -43 -32.5 -76t-75.5 -33q-31 0 -70 27l-166 127l-166 -127q-42 -27 -71 -27q-43 0 -76 33t-33 76z" />
<glyph unicode="&#xfc;" horiz-adv-x="1220" d="M135 432v526q0 64 36 105t99 41q59 0 99.5 -42.5t40.5 -103.5v-522q0 -91 53 -140.5t143 -49.5q117 0 201 53v664q0 59 39 100t98 41q57 0 97 -41t40 -100v-766q0 -36 -11 -58t-38 -39q-62 -44 -173.5 -80t-258.5 -36q-222 0 -343.5 116t-121.5 332zM299 1352 q0 56 38 94.5t95 38.5q55 0 93 -38.5t38 -94.5t-38 -94.5t-93 -38.5q-57 0 -95 38.5t-38 94.5zM670 1352q0 56 38 94.5t93 38.5q57 0 95 -38.5t38 -94.5t-38 -94.5t-95 -38.5q-55 0 -93 38.5t-38 94.5z" />
<glyph unicode="&#xfd;" horiz-adv-x="1101" d="M47 903q-33 76 10 139.5t121 63.5q101 0 141 -107l226 -581q5 -12 12 -12q8 0 12 12l213 581q19 51 56 79t86 28q80 0 122 -64.5t9 -140.5l-383 -891q-60 -141 -134 -240t-139 -141q-60 -39 -112 -39q-57 0 -97 35.5t-40 93.5q0 66 61 111q131 92 188 252zM422 1317 q0 61 63 96l277 143q31 17 57 17q42 0 74.5 -35t32.5 -78q0 -60 -64 -96l-278 -141q-27 -15 -56 -15q-44 0 -75 33t-31 76z" />
<glyph unicode="&#xfe;" horiz-adv-x="1228" d="M147 -270v1595q0 59 39.5 101t98.5 42q57 0 98 -42t41 -101v-242q120 35 211 35q206 0 332 -115t145 -307q4 -54 4 -145t-4 -148q-19 -194 -137 -305.5t-320 -111.5q-57 0 -121 14t-110 35v-305q0 -60 -39.5 -101t-99.5 -41q-56 0 -97 41.5t-41 100.5zM424 301 q29 -20 87.5 -37.5t117.5 -17.5q196 0 209 196q5 133 0 207q-8 100 -61.5 152.5t-151.5 52.5q-52 0 -112 -19.5t-89 -41.5v-492z" />
<glyph unicode="&#xff;" horiz-adv-x="1101" d="M47 903q-33 76 10 139.5t121 63.5q101 0 141 -107l226 -581q5 -12 12 -12q8 0 12 12l213 581q19 51 56 79t86 28q80 0 122 -64.5t9 -140.5l-383 -891q-60 -141 -134 -240t-139 -141q-60 -39 -112 -39q-57 0 -97 35.5t-40 93.5q0 66 61 111q131 92 188 252zM240 1352 q0 56 38 94.5t95 38.5q55 0 93 -38.5t38 -94.5t-38 -94.5t-93 -38.5q-57 0 -95 38.5t-38 94.5zM610 1352q0 56 38 94.5t93 38.5q57 0 95 -38.5t38 -94.5t-38 -94.5t-95 -38.5q-55 0 -93 38.5t-38 94.5z" />
<glyph unicode="&#x152;" horiz-adv-x="2234" d="M115 573q-12 148 0 287q13 171 95.5 307.5t231.5 217.5t340 81q121 0 276.5 -10t248.5 -10h673q58 0 98 -38t40 -95q0 -54 -40.5 -94.5t-95.5 -40.5h-598v-324h572q55 0 92 -36t37 -91q0 -51 -38 -90t-89 -39h-574v-330h601q54 0 95.5 -40.5t41.5 -92.5q0 -57 -40 -96 t-97 -39h-703q-65 0 -219 -12.5t-281 -12.5q-193 0 -341.5 79.5t-230.5 214t-95 304.5zM393 608q11 -167 112 -264.5t283 -97.5q175 0 316 16v920q-182 14 -316 14q-182 0 -283 -99.5t-112 -265.5q-6 -113 0 -223z" />
<glyph unicode="&#x153;" horiz-adv-x="1880" d="M117 410q-10 147 0 290q15 184 152.5 301t338.5 117q109 0 201 -37.5t156 -105.5q133 143 348 143q211 0 341 -132.5t130 -354.5q0 -91 -34.5 -134.5t-109.5 -43.5h-544v-21q0 -99 64.5 -152t170.5 -53q90 0 217 49q77 29 130 -8.5t53 -99.5q0 -86 -114.5 -136 t-295.5 -50q-226 0 -360 147q-64 -68 -154.5 -105.5t-198.5 -37.5q-201 0 -338.5 120t-152.5 304zM389 446q9 -93 67 -147.5t152 -54.5t152.5 55t64.5 147q4 105 0 213q-6 89 -64 144t-153 55t-153 -54.5t-66 -144.5q-8 -108 0 -213zM1096 641h401q17 0 21 25 q3 96 -52 155.5t-153 59.5q-106 0 -162.5 -65t-54.5 -175z" />
<glyph unicode="&#x178;" horiz-adv-x="1351" d="M23 1311q0 56 42.5 99.5t100.5 43.5q70 0 113 -55l397 -498l399 498q38 45 96.5 53t106.5 -31q45 -39 51 -99t-33 -108l-424 -509q-23 -27 -31 -38t-16 -32t-8 -47v-453q0 -60 -40.5 -101.5t-100.5 -41.5q-57 0 -99 43t-42 100v453q0 26 -9 48t-16.5 32t-32.5 39 l-420 507q-34 39 -34 97zM358 1579q0 56 38.5 94.5t95.5 38.5q55 0 93 -38.5t38 -94.5t-38 -94.5t-93 -38.5q-57 0 -95.5 38.5t-38.5 94.5zM729 1579q0 56 38 94.5t93 38.5q57 0 95 -38.5t38 -94.5t-38 -94.5t-95 -38.5q-55 0 -93 38.5t-38 94.5z" />
<glyph unicode="&#x2c6;" horiz-adv-x="835" d="M72 1649q0 52 49 88l219 170q42 30 78 30q34 0 76 -30l219 -170q49 -36 49 -88q0 -43 -33 -76t-76 -33q-30 0 -69 27l-166 127l-166 -127q-42 -27 -72 -27q-43 0 -75.5 33t-32.5 76z" />
<glyph unicode="&#x2dc;" horiz-adv-x="835" d="M66 1651q0 45 40 80q97 90 179 90q60 0 142 -38t110 -38q32 0 72.5 30.5t68.5 30.5q41 0 68.5 -30.5t27.5 -69.5q0 -41 -41 -82q-93 -90 -178 -90q-51 0 -136 39t-116 39q-32 0 -72.5 -32t-68.5 -32q-41 0 -68.5 31.5t-27.5 71.5z" />
<glyph unicode="&#x2000;" horiz-adv-x="1011" />
<glyph unicode="&#x2001;" horiz-adv-x="2023" />
<glyph unicode="&#x2002;" horiz-adv-x="1011" />
<glyph unicode="&#x2003;" horiz-adv-x="2023" />
<glyph unicode="&#x2004;" horiz-adv-x="674" />
<glyph unicode="&#x2005;" horiz-adv-x="505" />
<glyph unicode="&#x2006;" horiz-adv-x="337" />
<glyph unicode="&#x2007;" horiz-adv-x="337" />
<glyph unicode="&#x2008;" horiz-adv-x="252" />
<glyph unicode="&#x2009;" horiz-adv-x="404" />
<glyph unicode="&#x200a;" horiz-adv-x="112" />
<glyph unicode="&#x2010;" horiz-adv-x="667" d="M72 588q0 59 40.5 99t100.5 40h242q59 0 100 -40t41 -99q0 -56 -41.5 -96.5t-99.5 -40.5h-242q-60 0 -100.5 39.5t-40.5 97.5z" />
<glyph unicode="&#x2011;" horiz-adv-x="667" d="M72 588q0 59 40.5 99t100.5 40h242q59 0 100 -40t41 -99q0 -56 -41.5 -96.5t-99.5 -40.5h-242q-60 0 -100.5 39.5t-40.5 97.5z" />
<glyph unicode="&#x2012;" horiz-adv-x="667" d="M72 588q0 59 40.5 99t100.5 40h242q59 0 100 -40t41 -99q0 -56 -41.5 -96.5t-99.5 -40.5h-242q-60 0 -100.5 39.5t-40.5 97.5z" />
<glyph unicode="&#x2013;" horiz-adv-x="1193" d="M94 588q0 58 41.5 98.5t100.5 40.5h720q59 0 100.5 -40t41.5 -99q0 -56 -42 -96.5t-100 -40.5h-720q-59 0 -100.5 39.5t-41.5 97.5z" />
<glyph unicode="&#x2014;" horiz-adv-x="1939" d="M94 588q0 58 41.5 98.5t100.5 40.5h1466q59 0 100 -40t41 -99q0 -56 -41.5 -96.5t-99.5 -40.5h-1466q-59 0 -100.5 39.5t-41.5 97.5z" />
<glyph unicode="&#x2018;" horiz-adv-x="477" d="M92 1012v106q0 146 60 246q49 82 129 82q49 0 80.5 -33t31.5 -78q0 -23 -26.5 -83t-26.5 -122v-118q0 -51 -35.5 -86t-89.5 -35q-52 0 -87.5 35t-35.5 86z" />
<glyph unicode="&#x2019;" horiz-adv-x="477" d="M88 1004q0 24 14 52.5t27.5 67t13.5 86.5v119q0 51 35.5 86t87.5 35q53 0 89 -35t36 -86v-106q0 -148 -59 -246q-49 -82 -129 -82q-49 0 -82 33t-33 76z" />
<glyph unicode="&#x201a;" horiz-adv-x="477" d="M76 -119q0 23 27.5 83.5t27.5 123.5v119q0 50 35 84.5t88 34.5q52 0 88.5 -34.5t36.5 -84.5v-109q0 -142 -62 -245q-47 -82 -129 -82q-49 0 -80.5 33.5t-31.5 76.5z" />
<glyph unicode="&#x201c;" horiz-adv-x="886" d="M117 1012v106q0 148 59 246q49 82 129 82q49 0 81 -33t32 -78q0 -23 -26.5 -83t-26.5 -122v-118q0 -51 -35.5 -86t-89.5 -35q-52 0 -87.5 35t-35.5 86zM477 1012v106q0 146 60 246q49 82 129 82q49 0 80.5 -33t31.5 -78q0 -23 -26.5 -83t-26.5 -122v-118q0 -51 -35.5 -86 t-89.5 -35q-52 0 -87.5 35t-35.5 86z" />
<glyph unicode="&#x201d;" horiz-adv-x="886" d="M115 1004q0 24 13.5 52.5t26.5 67t13 86.5v119q0 51 35.5 86t89.5 35q52 0 87.5 -35t35.5 -86v-106q0 -146 -60 -246q-49 -82 -129 -82q-49 0 -80.5 33t-31.5 76zM473 1004q0 24 13.5 52.5t27.5 67t14 86.5v119q0 51 35.5 86t87.5 35q53 0 89 -35t36 -86v-106 q0 -148 -59 -246q-49 -82 -129 -82q-49 0 -82 33t-33 76z" />
<glyph unicode="&#x201e;" horiz-adv-x="886" d="M113 -119q0 23 27.5 83.5t27.5 123.5v119q0 50 35 84.5t88 34.5q52 0 88.5 -34.5t36.5 -84.5v-109q0 -142 -62 -245q-51 -82 -129 -82q-49 0 -80.5 33.5t-31.5 76.5zM473 -119q0 23 27.5 83.5t27.5 123.5v119q0 50 35.5 84.5t87.5 34.5t88.5 -34.5t36.5 -84.5v-109 q0 -147 -59 -245q-51 -82 -129 -82q-49 0 -82 33.5t-33 76.5z" />
<glyph unicode="&#x2022;" horiz-adv-x="966" d="M225 717q0 106 76 182t182 76t182 -76t76 -182t-76 -182t-182 -76t-182 76t-76 182z" />
<glyph unicode="&#x2026;" horiz-adv-x="1409" d="M109 106v111q0 54 36 89.5t91 35.5q52 0 88 -36t36 -89v-111q0 -54 -35 -89t-89 -35q-53 0 -90 35.5t-37 88.5zM582 106v111q0 54 36 89.5t91 35.5q52 0 88.5 -36t36.5 -89v-111q0 -54 -35.5 -89t-89.5 -35q-53 0 -90 35.5t-37 88.5zM1047 106v111q0 54 36 89.5t91 35.5 q52 0 88 -36t36 -89v-111q0 -54 -35 -89t-89 -35q-53 0 -90 35.5t-37 88.5z" />
<glyph unicode="&#x202f;" horiz-adv-x="404" />
<glyph unicode="&#x2039;" horiz-adv-x="735" d="M78 733q0 108 102 182l252 183q44 32 93 28.5t81 -43.5q34 -40 29.5 -91.5t-45.5 -80.5l-207 -151q-18 -14 -18 -27q0 -15 18 -28l207 -152q41 -29 45.5 -81t-29.5 -93q-32 -38 -81 -41.5t-93 27.5l-252 184q-55 40 -78.5 84t-23.5 100z" />
<glyph unicode="&#x203a;" horiz-adv-x="735" d="M99 472q4 52 46 81l205 152q19 14 19 28q0 13 -19 27l-205 151q-42 29 -46 81t30 91q31 39 80 43.5t92 -28.5l254 -183q100 -74 100 -182q0 -110 -100 -184l-254 -184q-42 -31 -92 -27.5t-80 41.5q-34 41 -30 93z" />
<glyph unicode="&#x205f;" horiz-adv-x="505" />
<glyph unicode="&#x20ac;" horiz-adv-x="1327" d="M68 561q0 52 36 86.5t89 34.5h57v72h-57q-53 0 -89 33.5t-36 82.5q0 52 36 86.5t89 34.5h67q36 211 174.5 337t358.5 126q134 0 246.5 -40t183.5 -116q39 -41 39 -96t-39 -93t-93 -38q-52 0 -112 57q-45 42 -95 60t-130 18q-97 0 -162.5 -58.5t-87.5 -156.5h264 q52 0 87.5 -34.5t35.5 -86.5q0 -49 -36 -82.5t-87 -33.5h-281v-72h281q52 0 87.5 -34.5t35.5 -86.5q0 -49 -36 -83t-87 -34h-264q22 -98 87.5 -155.5t162.5 -57.5q80 0 128.5 17t96.5 59q58 58 112 58t93 -38.5t39 -93.5q0 -52 -39 -96q-142 -155 -430 -155 q-221 0 -356.5 121.5t-176.5 340.5h-67q-53 0 -89 34t-36 83z" />
<glyph unicode="&#x2122;" horiz-adv-x="1423" d="M84 1337q0 32 21 53t51 21h379q30 0 50.5 -21t20.5 -53q0 -29 -21 -50t-50 -21h-111v-353q0 -32 -22 -53.5t-54 -21.5q-33 0 -55.5 22t-22.5 53v353h-114q-29 0 -50.5 21t-21.5 50zM594 936l59 375q9 53 41.5 80.5t77.5 27.5q41 0 73.5 -25t41.5 -67l65 -287l68 287 q9 42 41 67t72 25q46 0 77.5 -27t40.5 -79l60 -377q6 -36 -8 -64t-46 -34q-39 -7 -64 11.5t-30 53.5l-41 318l-73 -297q-24 -86 -97 -86q-71 0 -96 86l-74 299l-41 -320q-5 -35 -30 -53.5t-64 -11.5q-32 6 -45.5 34t-7.5 64z" />
<glyph unicode="&#xe000;" horiz-adv-x="1105" d="M0 0v1106h1106v-1106h-1106z" />
<glyph unicode="&#xfb02;" horiz-adv-x="1484" d="M43 934q0 54 36.5 88.5t90.5 34.5h49v53q0 183 97.5 282t267.5 99q112 0 207 -27q106 -31 106 -131q0 -49 -34.5 -84t-94.5 -35q-20 0 -72 9.5t-86 9.5q-56 0 -86 -34t-30 -99v-43h237q52 0 88.5 -35t36.5 -88q0 -50 -36.5 -84.5t-88.5 -34.5h-237v-680q0 -62 -39 -103.5 t-99 -41.5q-57 0 -97 42t-40 103v680h-49q-54 0 -90.5 34t-36.5 85zM1061 131v1194q0 60 39.5 101.5t97.5 41.5q57 0 97 -41.5t40 -101.5v-1194q0 -59 -39 -100t-98 -41q-56 0 -96.5 41.5t-40.5 99.5z" />
</font>
</defs>
</svg>
