<?xml version="1.0" standalone="no"?>
<!DOCTYPE svg PUBLIC "-//W3C//DTD SVG 1.1//EN" "http://www.w3.org/Graphics/SVG/1.1/DTD/svg11.dtd" >
<svg xmlns="http://www.w3.org/2000/svg">
<metadata></metadata>
<defs>
<font id="rubriklight" horiz-adv-x="1370" >
<font-face units-per-em="2048" ascent="1536" descent="-512" />
<missing-glyph horiz-adv-x="546" />
<glyph unicode="&#xfb01;" horiz-adv-x="1312" d="M90 979q0 26 17.5 42.5t44.5 16.5h79v111q0 141 77.5 227t228.5 86q111 0 178 -24q39 -14 39 -56q0 -22 -15 -37.5t-43 -15.5q-12 0 -62 9.5t-106 9.5q-178 0 -178 -213v-97h309q24 0 42 -17t18 -42q0 -23 -18 -39t-42 -16h-309v-871q0 -26 -16.5 -43.5t-42.5 -17.5 q-24 0 -42 17.5t-18 43.5v871h-79q-26 0 -44 16t-18 39zM958 1337q0 34 22.5 58t57.5 24t59.5 -24t24.5 -58q0 -35 -24.5 -59.5t-59.5 -24.5t-57.5 24t-22.5 60zM981 53v951q0 26 16 43.5t41 17.5t43.5 -17.5t18.5 -43.5v-951q0 -26 -18 -43.5t-44 -17.5q-25 0 -41 17.5 t-16 43.5z" />
<glyph horiz-adv-x="2048" />
<glyph horiz-adv-x="2048" />
<glyph unicode="&#xd;" horiz-adv-x="2048" />
<glyph unicode=" "  horiz-adv-x="546" />
<glyph unicode="&#x09;" horiz-adv-x="546" />
<glyph unicode="&#xa0;" horiz-adv-x="546" />
<glyph unicode="!" horiz-adv-x="419" d="M143 47v113q0 27 20 46t46 19q28 0 47.5 -18.5t19.5 -46.5v-113q0 -28 -19.5 -46.5t-47.5 -18.5q-25 0 -45.5 19.5t-20.5 45.5zM150 1370q0 26 17.5 44t41.5 18q26 0 42.5 -17.5t18.5 -44.5l-6 -852q0 -24 -15.5 -40.5t-37.5 -16.5q-23 0 -39 17t-16 40z" />
<glyph unicode="&#x22;" horiz-adv-x="677" d="M154 1102v266q0 28 17 46t42 18q26 0 42.5 -18t16.5 -46v-266q0 -28 -16.5 -47t-42.5 -19q-25 0 -42 19t-17 47zM406 1102v266q0 28 17 46t42 18q26 0 42.5 -18t16.5 -46v-266q0 -28 -16.5 -47t-42.5 -19q-25 0 -42 19t-17 47z" />
<glyph unicode="#" horiz-adv-x="1257" d="M106 508q0 25 18 41t44 16h168l106 330h-133q-26 0 -43.5 17.5t-17.5 43.5q0 25 17.5 41.5t43.5 16.5h172l131 395q17 41 56 41q36 0 50 -26.5t3 -59.5l-115 -350h230l131 395q11 41 55 41q36 0 50 -26.5t1 -59.5l-112 -350h129q26 0 43.5 -16.5t17.5 -41.5 q0 -26 -18 -43.5t-43 -17.5h-172l-105 -330h135q26 0 44 -16t18 -41q0 -26 -18.5 -44t-43.5 -18h-178l-137 -426q-10 -38 -55 -38q-36 0 -49.5 26.5t-2.5 59.5l123 378h-231l-137 -426q-13 -38 -58 -38q-35 0 -48.5 26.5t-2.5 59.5l123 378h-125q-28 0 -46 18t-18 44z M459 565h231l107 330h-232z" />
<glyph unicode="$" horiz-adv-x="1247" d="M152 229q0 26 16 44t41 18t49 -19q71 -54 169.5 -88t195.5 -34q175 0 269.5 61.5t94.5 179.5q0 79 -32.5 126.5t-118 83.5t-254.5 73q-223 47 -320.5 131t-97.5 229q0 157 110 255.5t293 107.5v157q0 25 16.5 42.5t39.5 17.5t39 -17.5t16 -42.5v-161q181 -18 295 -107 q24 -21 24 -49q0 -24 -16 -41.5t-41 -17.5q-17 0 -47 18q-137 86 -275 86q-97 0 -165.5 -21.5t-104 -58.5t-50.5 -78t-15 -90t16 -85.5t41 -60.5t75.5 -44.5t99.5 -33t132 -30.5q93 -19 161.5 -41t127 -54t94.5 -72.5t56 -96t20 -125.5q0 -153 -123 -254t-305 -104v-158 q0 -25 -16 -41t-39 -16t-39.5 17t-16.5 40v162q-223 20 -381 137q-34 24 -34 55z" />
<glyph unicode="%" horiz-adv-x="1449" d="M90 1049q-3 59 0 114q5 121 89.5 205t205.5 84q120 0 203.5 -84t89.5 -205q3 -57 0 -114q-8 -123 -90.5 -206t-202.5 -83q-121 0 -205 83.5t-90 205.5zM203 1051q5 -78 55 -128.5t125 -50.5q78 0 128.5 50.5t55.5 130.5q3 47 0 106q-5 79 -56 130.5t-128 51.5 q-74 0 -124 -51.5t-56 -130.5q-3 -56 0 -108zM261 242q-1 24 13 41l830 952q15 20 39.5 22t42.5 -12q18 -17 18.5 -41t-14.5 -41q-100 -112 -830 -952q-14 -19 -38.5 -20.5t-42.5 12.5q-17 15 -18 39zM772 268q-3 59 0 115q5 121 89.5 205t205.5 84q120 0 203.5 -84 t89.5 -205q3 -57 0 -115q-8 -123 -90.5 -205.5t-202.5 -82.5q-121 0 -205 83t-90 205zM885 270q5 -78 55 -128t125 -50q78 0 128.5 50t55.5 130q3 47 0 107q-5 79 -56 130.5t-128 51.5q-74 0 -124 -51.5t-56 -130.5q-3 -56 0 -109z" />
<glyph unicode="&#x26;" horiz-adv-x="1404" d="M109 375q0 244 284 348q-98 67 -147 145.5t-49 190.5q0 166 120.5 271.5t313.5 105.5q199 0 317.5 -103t118.5 -266q0 -168 -104 -255.5t-328 -137.5q-230 -52 -319 -118.5t-89 -180.5q0 -126 108 -200.5t302 -74.5q191 0 301.5 104.5t116.5 270.5q0 127 114 127h164 q27 0 46.5 -16.5t19.5 -42.5q0 -25 -19 -42.5t-45 -17.5h-157q-6 -234 -157 -367.5t-384 -133.5q-252 0 -390 109t-138 284zM315 1059q0 -55 20 -101t59.5 -82t70.5 -56.5t80 -47.5q232 46 317.5 108t85.5 185q0 104 -80 178t-235 74q-151 0 -234.5 -74t-83.5 -184z" />
<glyph unicode="'" horiz-adv-x="425" d="M154 1102v266q0 28 17 46t42 18q26 0 42.5 -18t16.5 -46v-266q0 -28 -16.5 -47t-42.5 -19q-25 0 -42 19t-17 47z" />
<glyph unicode="(" horiz-adv-x="710" d="M186 633q0 277 107 532t313 445q22 18 46.5 15t37.5 -23q12 -19 9.5 -41t-19.5 -35q-186 -169 -282.5 -405.5t-96.5 -487.5t96.5 -487.5t282.5 -405.5q17 -13 19.5 -35t-9.5 -41q-13 -20 -37.5 -23t-46.5 15q-206 190 -313 445t-107 532z" />
<glyph unicode=")" horiz-adv-x="710" d="M11 -296q3 23 20 36q186 169 282.5 405.5t96.5 487.5t-96.5 487.5t-282.5 405.5q-17 13 -20 36t9 42t37 21.5t47 -15.5q206 -190 313 -445t107 -532t-107 -532t-313 -445q-22 -18 -47 -15.5t-37 21.5t-9 42z" />
<glyph unicode="*" horiz-adv-x="772" d="M84.5 963.5q6.5 20.5 26.5 31.5l182 97l-180 94q-19 10 -27 30t2 46q10 21 33 26.5t45 -6.5l168 -100l-2 184q0 26 15 42.5t40 16.5t40 -16.5t15 -42.5l-2 -184l164 100q20 13 45.5 8.5t36.5 -28.5q10 -22 2 -43.5t-26 -30.5l-181 -96l176 -95q26 -14 34 -35.5t-5 -46.5 q-12 -21 -35.5 -25.5t-46.5 9.5l-164 100l2 -184q0 -26 -15 -42.5t-40 -16.5t-40 16.5t-15 42.5l2 184l-164 -98q-20 -13 -45.5 -8.5t-36.5 27.5q-10 23 -3.5 43.5z" />
<glyph unicode="+" horiz-adv-x="1286" d="M129 717q0 26 18.5 42.5t45.5 16.5h393v400q0 26 17 44.5t42 18.5q26 0 43 -18t17 -45v-400h395q27 0 45 -16.5t18 -42.5q0 -24 -19 -42t-44 -18h-395v-399q0 -27 -17 -45t-43 -18t-42.5 18t-16.5 45v399h-393q-26 0 -45 17.5t-19 42.5z" />
<glyph unicode="," horiz-adv-x="421" d="M100 -117q0 17 6.5 32.5t15 27.5t15 42.5t6.5 73.5v99q0 28 19.5 46.5t48.5 18.5q27 0 47.5 -19t20.5 -46v-37q0 -86 -10 -140t-42 -112q-23 -47 -67 -47q-26 0 -43 19t-17 42z" />
<glyph unicode="-" horiz-adv-x="706" d="M121 588q0 26 17 41.5t44 15.5h342q27 0 44.5 -15.5t17.5 -41.5t-18 -43t-44 -17h-342q-26 0 -43.5 17.5t-17.5 42.5z" />
<glyph unicode="." horiz-adv-x="530" d="M143 51v111q0 29 19.5 49t48.5 20t48.5 -20t19.5 -49v-111q0 -30 -19 -49.5t-49 -19.5q-28 0 -48 20t-20 49z" />
<glyph unicode="/" horiz-adv-x="681" d="M2 14l571 1448q9 22 32 31.5t44 1.5q23 -9 31.5 -31t-0.5 -45l-571 -1448q-9 -21 -31 -30.5t-43 -1.5q-23 9 -32 30t-1 45z" />
<glyph unicode="0" horiz-adv-x="1409" d="M184 532q-10 189 0 381q12 239 155.5 388t365.5 149t365 -149t155 -388q10 -192 0 -381q-12 -239 -155 -388.5t-365 -149.5t-365.5 149t-155.5 389zM305 528q12 -193 118 -304t282 -111t281.5 111t117.5 304q12 166 0 387q-12 193 -117.5 304.5t-281.5 111.5t-282 -111.5 t-118 -304.5q-12 -221 0 -387z" />
<glyph unicode="1" horiz-adv-x="897" d="M112.5 1211.5q7.5 23.5 30.5 35.5l299 166q3 2 14.5 8.5t18.5 9.5t19.5 6t25.5 3q34 0 56 -22t22 -58v-1307q0 -26 -16.5 -43.5t-42.5 -17.5q-25 0 -43.5 17.5t-18.5 43.5v1237l-272 -149q-24 -13 -50.5 -8t-37.5 30q-12 25 -4.5 48.5z" />
<glyph unicode="2" horiz-adv-x="1187" d="M127 98q0 130 74.5 239.5t240.5 231.5q237 171 296 220q107 90 136 170q17 47 17 110q0 49 -18.5 94.5t-55.5 85t-101 63t-147 23.5q-203 0 -325 -159q-6 -11 -22 -20t-34 -9q-34 0 -53 30t2 62q61 89 170 151t256 62q211 0 329 -109t118 -274q0 -69 -16.5 -124.5 t-45 -101t-84.5 -96.5t-116 -97t-157 -117q-30 -22 -46 -33q-173 -125 -236 -205.5t-63 -175.5h733q26 0 43.5 -18.5t17.5 -43.5t-17.5 -41t-43.5 -16h-754q-43 0 -70.5 26.5t-27.5 71.5z" />
<glyph unicode="3" horiz-adv-x="1198" d="M96 1372q0 25 18.5 42.5t43.5 17.5h671q43 0 74 -27t31 -68q0 -26 -21 -61l-338 -371q6 0 18.5 1t18.5 1q176 0 292 -111.5t116 -283.5q0 -242 -202 -380t-556 -138q-65 0 -98 2q-28 2 -47 18.5t-19 42.5q0 25 17 43t43 17q41 -4 121 -4q287 0 453.5 104t166.5 295 q0 129 -88.5 205t-226.5 76q-51 0 -90.5 -6.5t-47.5 -6.5q-26 0 -44.5 17.5t-18.5 42.5t16 41l385 432h-626q-25 0 -43.5 17.5t-18.5 41.5z" />
<glyph unicode="4" horiz-adv-x="1353" d="M125 471q0 44 37 92l622 815q17 21 28 32t34 22.5t49 11.5q18 0 34 -3.5t27 -8.5t20 -14t14.5 -17t9.5 -20t6 -19.5t3 -20t1 -18v-16v-11.5v-815h174q25 0 41 -16t16 -41q0 -23 -17 -41t-40 -18h-174v-302q0 -25 -17 -44t-41 -19q-26 0 -43.5 18.5t-17.5 44.5v302h-645 q-48 0 -84.5 28.5t-36.5 77.5zM248 481h643v846z" />
<glyph unicode="5" horiz-adv-x="1228" d="M160 47q0 62 76 62q348 0 542.5 110t194.5 330q0 116 -90 193t-224 77q-29 0 -57 -2t-53.5 -7t-46 -9.5t-43.5 -12.5t-37 -13t-34 -14.5t-27.5 -13.5t-25.5 -13.5t-20 -10.5q-36 -20 -61.5 -14.5t-39 25t-13.5 44.5v539q0 60 34.5 87.5t86.5 27.5h620q25 0 43.5 -17 t18.5 -43q0 -24 -18.5 -41.5t-43.5 -17.5h-627v-467q75 41 153 64.5t185 23.5q193 0 316 -109t123 -280q0 -268 -226 -411.5t-643 -143.5q-28 0 -45.5 16t-17.5 41z" />
<glyph unicode="6" horiz-adv-x="1355" d="M182 745q20 342 194.5 528.5t463.5 186.5q112 0 200 -16q26 -4 41 -22t15 -40q0 -23 -16 -40t-44 -17q-9 0 -73.5 8t-122.5 8q-230 0 -373 -143.5t-162 -394.5q201 96 400 96q224 0 357.5 -116t133.5 -326q0 -98 -31.5 -184t-91.5 -152.5t-156 -105t-217 -38.5 q-148 0 -254 56t-166 160t-84 241t-14 311zM299 670q-17 -282 92 -427t316 -145q182 0 276 100t94 259q0 157 -94 240t-278 83q-211 0 -406 -110z" />
<glyph unicode="7" horiz-adv-x="1062" d="M78 1370q0 26 17.5 44t43.5 18h764q44 0 72.5 -25.5t28.5 -65.5q0 -29 -21 -69q-312 -519 -425 -747t-173 -484q-11 -49 -55 -49q-28 0 -43 16t-15 41q0 11 4 35q69 255 194.5 509t408.5 720h-740q-26 0 -43.5 16.5t-17.5 40.5z" />
<glyph unicode="8" horiz-adv-x="1382" d="M170 389q0 141 73.5 237t190.5 126q-98 29 -164.5 109t-66.5 218q0 172 126.5 272.5t356.5 100.5q237 0 362.5 -100t125.5 -273q0 -122 -60.5 -204t-163.5 -123q123 -38 192.5 -129.5t69.5 -231.5q0 -189 -135 -299t-391 -110q-250 0 -383 109.5t-133 297.5zM289 391 q0 -131 98.5 -211t298.5 -80q205 0 306.5 82t101.5 207q0 138 -110.5 219.5t-297.5 81.5q-193 0 -295 -82t-102 -217zM324 1079q0 -128 97 -199t265 -71q173 0 269 72t96 196q0 120 -87.5 189t-277.5 69q-185 0 -273.5 -70t-88.5 -186z" />
<glyph unicode="9" horiz-adv-x="1341" d="M160 979q0 212 129 344.5t362 132.5q140 0 239 -45.5t158 -136t86 -214t27 -290.5q0 -219 -49.5 -368.5t-157 -240.5t-263.5 -131t-382 -40q-26 0 -44 15t-19 40q-2 25 15 44.5t46 19.5q88 0 153 3.5t141 15.5t131 33.5t110.5 59.5t92.5 90.5t64 129t37 173.5 q-184 -92 -391 -92q-223 0 -354 120t-131 337zM279 977q0 -336 374 -336q75 0 147.5 16.5t117.5 35t124 55.5q0 159 -17.5 264.5t-62 181t-120.5 109.5t-191 34q-186 0 -279 -96.5t-93 -263.5z" />
<glyph unicode=":" horiz-adv-x="579" d="M223 51v111q0 29 19.5 49t48.5 20t48 -20t19 -49v-111q0 -30 -18.5 -49.5t-48.5 -19.5q-28 0 -48 20t-20 49zM223 838v110q0 29 19.5 49.5t48.5 20.5t48 -20t19 -50v-110q0 -30 -18.5 -50t-48.5 -20q-28 0 -48 20.5t-20 49.5z" />
<glyph unicode=";" horiz-adv-x="579" d="M211 -113q0 15 4 27q1 2 15 25t20 49t6 71v99q0 28 19.5 46.5t48.5 18.5q28 0 47.5 -18.5t19.5 -46.5v-84q-1 -41 -7 -81.5t-19 -80.5t-37 -65t-56 -25q-28 0 -45.5 20t-15.5 45zM256 838v110q0 29 19.5 49.5t48.5 20.5t48 -20t19 -50v-110q0 -30 -18.5 -50t-48.5 -20 q-28 0 -48 20.5t-20 49.5z" />
<glyph unicode="&#x3c;" horiz-adv-x="1286" d="M225 717q0 68 88 141l574 465q22 17 46.5 15.5t41.5 -21.5q17 -21 13 -45.5t-25 -42.5l-598 -484q-19 -14 -19 -28q0 -15 19 -29l600 -485q21 -18 24 -41.5t-14 -44.5q-17 -20 -41.5 -21.5t-46.5 15.5l-574 464q-88 73 -88 142z" />
<glyph unicode="=" horiz-adv-x="1286" d="M137 543q0 26 17.5 42.5t44.5 16.5h888q27 0 44.5 -16.5t17.5 -42.5q0 -25 -18.5 -42.5t-43.5 -17.5h-888q-26 0 -44 17.5t-18 42.5zM137 891q0 26 18 43.5t44 17.5h888q26 0 44 -17.5t18 -43.5q0 -24 -18.5 -40.5t-43.5 -16.5h-888q-26 0 -44 16t-18 41z" />
<glyph unicode="&#x3e;" horiz-adv-x="1286" d="M293 161.5q3 23.5 24 41.5l601 485q18 14 18 29t-18 28l-599 484q-21 18 -25 42.5t13 45.5q17 20 41.5 21.5t46.5 -15.5l574 -465q88 -73 88 -141q0 -69 -88 -142l-574 -464q-22 -17 -46.5 -15.5t-41.5 21.5q-17 21 -14 44.5z" />
<glyph unicode="?" horiz-adv-x="1146" d="M129 1214q0 19 18 43q154 195 435 195q187 0 301 -108t114 -279q0 -58 -9 -106t-25 -87.5t-44.5 -75.5t-60.5 -64.5t-80.5 -59.5t-97 -56.5t-117.5 -58.5q-27 -10 -45 -10q-24 0 -42.5 17t-18.5 44q0 42 45 62q150 65 227.5 117.5t113.5 118.5t36 163q0 120 -79.5 193 t-217.5 73q-119 0 -198 -36.5t-144 -120.5q-20 -25 -50 -25q-25 0 -43 18t-18 43zM453 47v113q0 27 20.5 46t46.5 19q27 0 47.5 -19t20.5 -46v-113q0 -27 -20.5 -46t-47.5 -19q-25 0 -46 19.5t-21 45.5z" />
<glyph unicode="@" horiz-adv-x="1744" d="M149.5 541q-0.5 126 6.5 211q10 144 68 269.5t151.5 216t223 142.5t275.5 52q198 0 362.5 -87t262.5 -248.5t98 -365.5v-362q0 -98 -69.5 -168t-169.5 -70q-95 0 -166.5 69t-71.5 169v262q0 97 -67 166t-176 69q-103 0 -174.5 -71t-71.5 -187q-3 -58 0 -123 q3 -59 26 -107t58.5 -76.5t79.5 -43.5t90.5 -12.5t89.5 20.5q37 13 62 1t30 -36q6 -28 -8.5 -51t-46.5 -33q-62 -20 -129 -20q-156 0 -260 93t-111 255q-3 71 0 141q6 155 107.5 262t257.5 107q168 0 266 -100t98 -244v-281q0 -52 34.5 -85t84.5 -33q49 0 84 33.5t35 84.5 v361q0 134 -48 246t-130.5 187.5t-192.5 117t-234 41.5q-246 0 -412 -159t-186 -417q-15 -172 3 -397q9 -111 46.5 -203.5t94 -155.5t129 -106.5t151 -63.5t160.5 -20q122 0 242 49q50 18 76 -18q13 -18 7 -45.5t-30 -38.5q-121 -64 -293 -64q-101 0 -196 24.5t-182.5 77.5 t-155 128.5t-113 185t-57.5 240.5q-8 85 -8.5 211z" />
<glyph unicode="A" d="M59 84l447 1225q52 143 178 143q128 0 180 -141l447 -1227q4 -12 4 -21q0 -25 -16.5 -44t-43.5 -19q-41 0 -57 39l-172 469h-686l-168 -469q-16 -39 -57 -39q-33 0 -50 26q-10 16 -10 34q0 12 4 24zM385 627h596l-236 659q-16 51 -61 51q-42 0 -61 -53z" />
<glyph unicode="B" d="M225 115v1202q0 49 30.5 82t84.5 33h455q96 0 174 -30t128 -80.5t76.5 -116t26.5 -138.5q0 -256 -196 -324v-2q112 -25 174.5 -114.5t62.5 -220.5q0 -109 -33.5 -189.5t-93 -127t-132.5 -68t-161 -21.5h-481q-55 0 -85 32.5t-30 82.5zM344 121h459q313 0 313 280 q0 131 -79 206t-206 75h-487v-561zM344 801h453q280 0 280 258q0 125 -70.5 189.5t-209.5 64.5h-453v-512z" />
<glyph unicode="C" horiz-adv-x="1357" d="M158 551q-6 82 -6 165t6 167q10 158 83.5 287t201 204.5t284.5 75.5q172 0 313.5 -96.5t200.5 -251.5q4 -12 4 -23q0 -24 -17.5 -40.5t-39.5 -16.5q-20 0 -35.5 12t-22.5 29q-47 122 -157 196t-246 74q-187 0 -310 -125t-141 -321q-6 -85 -6 -170t6 -170 q18 -197 140.5 -322t310.5 -125q136 0 245.5 74t157.5 195q7 17 22.5 29t35.5 12q22 0 39.5 -17t17.5 -41q0 -10 -4 -22q-59 -155 -200.5 -251.5t-313.5 -96.5q-118 0 -221 43.5t-176 119.5t-118 180.5t-54 225.5z" />
<glyph unicode="D" horiz-adv-x="1472" d="M225 115v1202q0 50 30 82.5t83 32.5h354q148 0 265.5 -45.5t194 -127.5t119 -192t48.5 -242q3 -58 3 -113.5t-3 -109.5q-6 -130 -49 -239t-120 -190.5t-194.5 -127t-263.5 -45.5h-354q-53 0 -83 32.5t-30 82.5zM344 121h344q246 0 372.5 127.5t139.5 353.5q4 61 4 118.5 t-4 110.5q-14 227 -140.5 354.5t-371.5 127.5h-344v-1192z" />
<glyph unicode="E" horiz-adv-x="1275" d="M225 115v1202q0 49 30.5 82t84.5 33h719q27 0 45 -17t18 -43q0 -25 -18.5 -42t-44.5 -17h-715v-531h700q28 0 47 -16.5t19 -42.5t-20 -45t-46 -19h-700v-538h719q26 0 44.5 -17.5t18.5 -42.5q0 -26 -17.5 -43.5t-45.5 -17.5h-723q-55 0 -85 32.5t-30 82.5z" />
<glyph unicode="F" horiz-adv-x="1208" d="M225 53v1264q0 49 30.5 82t84.5 33h721q27 0 44 -17t17 -43q0 -25 -17.5 -42t-43.5 -17h-717v-557h680q28 0 44.5 -17t16.5 -43q0 -25 -17.5 -42t-43.5 -17h-680v-584q0 -26 -17 -43.5t-42 -17.5t-42.5 18t-17.5 43z" />
<glyph unicode="G" horiz-adv-x="1435" d="M156 551q-6 82 -6 165t6 167q15 240 182 403.5t407 163.5q173 0 311 -88.5t201 -241.5q12 -32 -7 -58t-50 -26q-40 0 -57 39q-57 121 -161.5 188.5t-238.5 67.5q-187 0 -317.5 -126t-149.5 -318q-8 -85 -8 -170t8 -170q19 -193 149 -320t318 -127q184 0 302 102t118 267 v158h-338q-26 0 -43.5 16.5t-17.5 42.5t17.5 42.5t43.5 16.5h346q54 0 83.5 -30t29.5 -78v-154q0 -97 -38 -187t-105.5 -160t-171 -112t-224.5 -42q-159 0 -290 74.5t-209.5 204t-89.5 290.5z" />
<glyph unicode="H" horiz-adv-x="1550" d="M225 53v1325q0 26 17.5 44t42.5 18t42 -18t17 -44v-602h864v602q0 26 18 44t42 18q26 0 42.5 -17.5t16.5 -44.5v-1325q0 -26 -16.5 -43.5t-42.5 -17.5q-24 0 -42 18t-18 43v604h-864v-604q0 -26 -17 -43.5t-42 -17.5q-26 0 -43 17.5t-17 43.5z" />
<glyph unicode="I" horiz-adv-x="567" d="M225 53v1325q0 26 17.5 44t42.5 18t42 -18t17 -44v-1325q0 -26 -17 -43.5t-42 -17.5q-26 0 -43 17.5t-17 43.5z" />
<glyph unicode="J" horiz-adv-x="1028" d="M82 219q0 26 17 44t42 18q39 0 58 -37q34 -65 93.5 -103.5t137.5 -38.5q113 0 189.5 77.5t76.5 223.5v975q0 26 17.5 44t42.5 18t42 -18t17 -44v-995q0 -176 -111 -288.5t-274 -112.5q-110 0 -205 59t-139 156q-4 8 -4 22z" />
<glyph unicode="K" horiz-adv-x="1280" d="M225 53v1325q0 26 17.5 44t42.5 18t42 -18t17 -44v-594h14q36 0 60 11t59 41l627 587q20 17 43 17q24 0 40.5 -19t16.5 -43q0 -25 -18 -43l-656 -604l672 -635q19 -17 19 -42q0 -23 -15 -42q-14 -20 -43 -20q-21 0 -43 18l-643 606q-31 30 -56 40t-63 10h-14v-613 q0 -26 -17 -43.5t-42 -17.5t-42.5 18t-17.5 43z" />
<glyph unicode="L" horiz-adv-x="1130" d="M225 121v1257q0 26 17.5 44t42.5 18t42 -18t17 -44v-1257h715q23 0 42 -18.5t19 -43.5q0 -26 -18 -42.5t-43 -16.5h-713q-58 0 -89.5 34.5t-31.5 86.5z" />
<glyph unicode="M" horiz-adv-x="1875" d="M137 59l191 1268q9 61 47.5 93t95.5 32q54 0 91.5 -29.5t49.5 -79.5l303 -1214q5 -23 25 -23t25 23l299 1214q12 50 49.5 79.5t91.5 29.5q56 0 94 -32t47 -93l195 -1268v-8q-1 -21 -13 -39q-16 -22 -45 -22q-23 0 -40.5 13.5t-20.5 35.5l-192 1278q-4 24 -25 24 q-19 0 -25 -22l-299 -1186q-19 -67 -54 -100t-91 -33q-110 0 -145 133l-295 1186q-6 22 -27 22t-25 -24l-188 -1272q-9 -55 -57 -55q-33 0 -49 21q-14 18 -13 40v8z" />
<glyph unicode="N" horiz-adv-x="1574" d="M225 53v1272q0 53 30 85t81 32q69 0 110 -64l789 -1251h4q-6 246 -6 291v960q0 26 17 44t42 18t42.5 -18t17.5 -44v-1272q0 -45 -29 -77.5t-70 -32.5q-71 0 -110 59l-797 1264h-6q4 -160 4 -301v-965q0 -25 -17 -43t-42 -18t-42.5 18t-17.5 43z" />
<glyph unicode="O" horiz-adv-x="1488" d="M156 551q-6 82 -6 165t6 167q10 157 87.5 286.5t208.5 205t289 75.5q159 0 291 -75t211 -204.5t90 -287.5q6 -84 6.5 -167t-6.5 -165q-9 -120 -57 -225.5t-125.5 -181t-184 -119t-225.5 -43.5q-239 0 -403.5 162t-181.5 407zM276 547q19 -196 147.5 -321.5t317.5 -125.5 q192 0 322 125.5t149 321.5q8 84 8 168.5t-8 169.5q-19 194 -150 320t-321 126q-188 0 -317 -126t-148 -320q-8 -84 -8 -169t8 -169z" />
<glyph unicode="P" horiz-adv-x="1314" d="M225 53v1262q0 50 31.5 83.5t87.5 33.5h414q123 0 224 -50.5t162.5 -150.5t61.5 -232q0 -205 -129 -321.5t-336 -116.5h-397v-508q0 -25 -18 -43t-41 -18q-25 0 -42.5 18t-17.5 43zM344 680h399q175 0 257.5 84.5t82.5 232.5q0 145 -83.5 230.5t-245.5 85.5h-410v-633z " />
<glyph unicode="Q" horiz-adv-x="1490" d="M156 551q-6 82 -6 165t6 167q10 157 87.5 286.5t208.5 205t289 75.5q159 0 291 -75t211 -204.5t90 -287.5q6 -84 6 -167t-6 -165q-9 -130 -63.5 -241t-145.5 -189l205 -250q15 -17 15 -38q0 -12 -6 -25q-14 -35 -52 -35q-30 0 -47 20l-213 260q-127 -71 -285 -71 q-239 0 -403.5 162t-181.5 407zM276 547q19 -196 147.5 -321.5t317.5 -125.5q117 0 209 47l-219 269q-16 19 -16 39q0 24 16.5 41.5t40.5 17.5q30 0 47 -20l230 -281q141 123 163 334q8 85 8 169t-8 169q-19 194 -150 320t-321 126q-188 0 -317 -126t-148 -320 q-8 -85 -8 -169t8 -169z" />
<glyph unicode="R" horiz-adv-x="1388" d="M225 53v1262q0 50 31.5 83.5t87.5 33.5h414q199 0 323.5 -112.5t124.5 -315.5q0 -179 -99.5 -279.5t-277.5 -124.5l412 -512q12 -15 12 -39q0 -25 -17 -41t-42 -16q-28 0 -47 22l-404 506q-29 36 -52 51t-62 15h-285v-533q0 -25 -18 -43t-41 -18q-25 0 -42.5 18t-17.5 43 zM344 705h381q362 0 362 303q0 142 -84.5 223.5t-248.5 81.5h-410v-608z" />
<glyph unicode="S" horiz-adv-x="1253" d="M133 182q0 27 17.5 44.5t44.5 17.5q23 0 45 -17q59 -42 108.5 -67.5t128 -43.5t176.5 -18q181 0 283 79.5t102 217.5q0 109 -86.5 169t-316.5 102q-249 44 -360 135.5t-111 253.5q0 184 126 289.5t351 105.5q118 0 222.5 -32t168.5 -85q23 -20 23 -49q0 -24 -17 -41.5 t-39 -17.5q-27 0 -49 18q-148 88 -309 88q-186 0 -272 -76.5t-86 -197.5q0 -114 78.5 -171.5t297.5 -99.5q272 -52 386 -137.5t114 -253.5q0 -190 -134 -301.5t-370 -111.5q-153 0 -270.5 37.5t-220.5 109.5q-31 22 -31 53z" />
<glyph unicode="T" horiz-adv-x="1212" d="M43 1372q0 25 18.5 42.5t44.5 17.5h1000q26 0 43.5 -17.5t17.5 -42.5t-18 -42t-43 -17h-438v-1260q0 -26 -17 -43.5t-43 -17.5t-42.5 17.5t-16.5 43.5v1260h-443q-26 0 -44.5 17t-18.5 42z" />
<glyph unicode="U" horiz-adv-x="1531" d="M203 565v813q0 26 17 44t42 18q26 0 43 -18t17 -44v-803q0 -216 125 -345.5t319 -129.5t319 129.5t125 345.5v803q0 26 17.5 44t42.5 18q26 0 42.5 -17.5t16.5 -44.5v-813q0 -170 -73 -303.5t-201 -206.5t-289 -73t-289 73t-201 206.5t-73 303.5z" />
<glyph unicode="V" horiz-adv-x="1343" d="M53 1378q0 24 16.5 43t43.5 19q41 0 57 -37l473 -1280q9 -23 29 -23q17 0 26 23l473 1276q14 41 58 41q35 0 51 -26q9 -15 9 -32q0 -12 -5 -26l-465 -1254q-45 -120 -147 -120q-103 0 -148 120l-467 1256q-4 12 -4 20z" />
<glyph unicode="W" horiz-adv-x="1875" d="M86 1366q-3 10 -3 19q1 19 13 35q18 24 49 24q21 0 37 -13t21 -34l286 -1291q1 -6 5.5 -8.5t9 -0.5t6.5 9l326 1231q26 103 125 103q96 0 124 -103l320 -1233q2 -7 6.5 -9t8.5 0.5t5 8.5l293 1289q4 23 21 37t39 14q34 0 50 -23q10 -15 10 -34q0 -10 -3 -21l-295 -1286 q-11 -45 -43 -71.5t-80 -26.5q-98 0 -123 98l-325 1233q-3 9 -10.5 9t-10.5 -9l-330 -1233q-25 -98 -122 -98q-48 0 -80 26.5t-43 71.5z" />
<glyph unicode="X" horiz-adv-x="1304" d="M76 1380q0 24 16.5 42t40.5 18q30 0 49 -25l469 -606l473 608q20 23 50 23q25 0 41 -16.5t16 -41.5q0 -21 -12 -39l-494 -630l487 -621q15 -23 15 -39q0 -23 -18.5 -41t-43.5 -18q-29 0 -47 24l-465 600l-467 -600q-18 -24 -47 -24q-25 0 -43 18t-18 41q0 18 14 39 l486 623l-490 626q-12 18 -12 39z" />
<glyph unicode="Y" horiz-adv-x="1312" d="M37 1384q0 23 18 40.5t41 17.5q27 0 47 -23l514 -639l512 639q20 23 48 23q23 0 41 -18t18 -40q0 -24 -16 -43l-488 -602q-4 -5 -13 -16t-12.5 -15.5t-10 -13.5t-8.5 -15t-5.5 -15t-4.5 -19t-1 -22v-570q0 -26 -17.5 -43.5t-42.5 -17.5t-42 18t-17 43v570q0 17 -2 29.5 t-9.5 26t-11.5 19t-18 22t-18 21.5l-486 600q-16 19 -16 43z" />
<glyph unicode="Z" horiz-adv-x="1191" d="M121 115q0 38 29 82l792 1116h-752q-26 0 -44.5 17t-18.5 42t18.5 42.5t44.5 17.5h740q60 0 94.5 -32.5t34.5 -84.5q0 -36 -39 -94l-784 -1100h808q26 0 44 -18.5t18 -43.5t-18 -42t-44 -17h-796q-60 0 -93.5 32t-33.5 83z" />
<glyph unicode="[" horiz-adv-x="714" d="M209 -236v1737q0 53 33 88t92 35h297q26 0 43.5 -16.5t17.5 -42.5q0 -23 -18 -41.5t-43 -18.5h-303v-1745h303q25 0 43 -18t18 -41q0 -26 -17.5 -42.5t-43.5 -16.5h-297q-59 0 -92 35t-33 87z" />
<glyph unicode="\" horiz-adv-x="677" d="M-28.5 1521.5q9.5 25.5 34.5 34.5q23 8 46.5 -2.5t33.5 -35.5l619 -1561q10 -24 0 -48.5t-35 -33.5q-23 -8 -46 2.5t-32 34.5l-619 1558q-11 26 -1.5 51.5z" />
<glyph unicode="]" horiz-adv-x="714" d="M23 -303q0 24 18.5 41.5t42.5 17.5h303v1747h-303q-24 0 -42.5 17.5t-18.5 40.5q0 26 17.5 43.5t43.5 17.5h299q58 0 90.5 -35.5t32.5 -87.5v-1737q0 -52 -32 -87t-91 -35h-299q-26 0 -43.5 16t-17.5 41z" />
<glyph unicode="^" horiz-adv-x="1320" d="M303 811l193 496q58 141 166 141t163 -141l193 -496q9 -24 -1 -48.5t-34 -33.5q-23 -9 -47 1.5t-33 33.5l-215 551q-8 20 -26 20q-21 0 -29 -20l-213 -551q-11 -23 -34 -33.5t-48 -1.5q-23 9 -33.5 34t-1.5 48z" />
<glyph unicode="_" horiz-adv-x="966" d="M0 -274h967v-125h-967v125z" />
<glyph unicode="`" horiz-adv-x="696" d="M156 1741q0 23 15.5 38t37.5 15q19 0 31 -8l274 -144q29 -14 29 -47q0 -23 -15.5 -38t-38.5 -15q-12 0 -28 8l-277 142q-28 16 -28 49z" />
<glyph unicode="a" horiz-adv-x="1150" d="M139 319q0 146 105.5 239t298.5 93q135 0 307 -47v88q0 141 -68 205t-211 64q-122 0 -262 -60q-19 -8 -35 -8t-29 8q-26 16 -26 47q0 41 37 60q57 29 142.5 50t172.5 21q198 0 298 -88.5t100 -279.5v-561q0 -37 -27 -56q-54 -40 -164.5 -76t-245.5 -36q-189 0 -291 89.5 t-102 247.5zM258 317q0 -105 72.5 -162t220.5 -57q79 0 164 25.5t135 62.5v301q-188 52 -299 52q-144 0 -218.5 -62t-74.5 -160z" />
<glyph unicode="b" horiz-adv-x="1230" d="M205 160v1226q0 26 17.5 44t43.5 18q24 0 41 -18t17 -44v-376q163 69 317 69q192 0 301.5 -103.5t124.5 -297.5q5 -54 5 -144t-5 -143q-15 -195 -128.5 -303t-311.5 -108q-116 0 -229 42.5t-165 81.5q-28 18 -28 56zM324 186q40 -32 132 -62t169 -30q293 0 323 293 q5 63 5 136t-5 155q-22 287 -301 287q-94 0 -185 -25.5t-138 -54.5v-699z" />
<glyph unicode="c" horiz-adv-x="1138" d="M162 391q-4 71 -4 143t4 144q9 180 133.5 290.5t316.5 110.5q79 0 147.5 -23t114 -57.5t78 -75.5t47.5 -77.5t15 -63.5q0 -30 -16 -46.5t-42 -16.5q-44 0 -63 55q-34 92 -112.5 141.5t-170.5 49.5q-140 0 -230.5 -80t-96.5 -207q-4 -88 -4.5 -160t4.5 -129 q11 -132 98 -213.5t229 -81.5q92 0 172 49.5t115 143.5q19 55 68 55q23 0 38 -16.5t15 -44.5q0 -27 -15 -63.5t-48.5 -78.5t-79.5 -77t-115 -58.5t-148 -23.5q-194 0 -316.5 116.5t-133.5 294.5z" />
<glyph unicode="d" horiz-adv-x="1230" d="M160 534.5q0 89.5 4 143.5q17 194 126 297.5t300 103.5q154 0 317 -69v376q0 26 17.5 44t42.5 18t42 -18t17 -44v-1226q0 -39 -27 -56q-49 -38 -163.5 -81t-231.5 -43q-198 0 -311.5 108t-128.5 303q-4 54 -4 143.5zM280 538q0 -7 -1 -14q0 -80 6 -137q15 -147 94 -220 t227 -73q78 0 169.5 30t131.5 62v699q-47 29 -138 54.5t-185 25.5q-142 0 -213.5 -70.5t-85.5 -214.5q-5 -53 -5 -142z" />
<glyph unicode="e" horiz-adv-x="1175" d="M164 426q-3 48 -3 99q0 67 5 139q13 193 134 304t308 111q196 0 312 -119.5t116 -308.5v-67q0 -51 -29 -80t-89 -29h-637v-41q0 -160 91 -250t244 -90q112 0 263 56q18 6 33 6q19 0 33 -10q26 -18 26 -46q0 -34 -35 -55q-47 -29 -133 -47t-185 -18q-210 0 -326.5 120.5 t-127.5 325.5zM281 590h606q28 0 31 28q1 19 1 37q-1 131 -77 215q-88 95 -236 95q-162 0 -246 -99q-79 -93 -79 -256v-20z" />
<glyph unicode="f" horiz-adv-x="763" d="M90 979q0 26 17.5 42.5t44.5 16.5h79v111q0 141 77.5 227t228.5 86q111 0 178 -24q39 -14 39 -56q0 -22 -15 -37.5t-43 -15.5q-12 0 -62 9.5t-106 9.5q-178 0 -178 -213v-97h309q24 0 42 -17t18 -42q0 -23 -18 -39t-42 -16h-309v-871q0 -26 -16.5 -43.5t-42.5 -17.5 q-24 0 -42 17.5t-18 43.5v871h-79q-26 0 -44 16t-18 39z" />
<glyph unicode="g" horiz-adv-x="1228" d="M162 414q-6 64 -6 129t6 129q17 199 129.5 303t308.5 104q123 0 236 -35.5t159 -70.5q27 -20 27 -62v-831q0 -211 -117 -334t-307 -123q-206 0 -352 90q-47 28 -47 70q0 24 16.5 40.5t42.5 16.5q22 0 68 -26q123 -74 272 -74q130 0 217.5 87t87.5 245v12 q-80 -39 -151 -60.5t-162 -21.5q-193 0 -301.5 108t-126.5 304zM283 414q11 -147 87.5 -220t229.5 -73q105 0 182 29t121 65v672q-5 5 -39 21.5t-110.5 36.5t-153.5 20q-293 0 -317 -293q-5 -60 -5 -124.5t5 -133.5z" />
<glyph unicode="h" horiz-adv-x="1253" d="M205 53v1333q0 27 16.5 44.5t42.5 17.5q24 0 42 -18t18 -44v-462q61 67 156 111t194 44q178 0 284.5 -104t106.5 -301v-621q0 -26 -15.5 -43.5t-41.5 -17.5q-25 0 -43.5 18t-18.5 43v611q0 142 -71 221.5t-207 79.5q-99 0 -192.5 -54t-151.5 -133v-725q0 -25 -17.5 -43 t-42.5 -18t-42 18t-17 43z" />
<glyph unicode="i" horiz-adv-x="546" d="M193 1337q0 34 22 58t57 24t59.5 -24t24.5 -58q0 -35 -24.5 -59.5t-59.5 -24.5t-57 24t-22 60zM215 53v951q0 26 16 43.5t41 17.5t43.5 -17.5t18.5 -43.5v-951q0 -26 -18 -43.5t-44 -17.5q-25 0 -41 17.5t-16 43.5z" />
<glyph unicode="j" horiz-adv-x="528" d="M20 -332q0 23 17 43q90 96 125 185.5t35 224.5v883q0 26 16.5 43.5t42.5 17.5q25 0 42 -17.5t17 -43.5v-893q0 -157 -44 -264t-142 -218q-17 -20 -47 -20q-27 0 -44.5 16.5t-17.5 42.5zM174 1337q0 34 23 58t59 24q34 0 58 -24t24 -58q0 -35 -24 -59.5t-58 -24.5 q-36 0 -59 24t-23 60z" />
<glyph unicode="k" horiz-adv-x="1069" d="M205 53v1333q0 26 17 45t42 19q26 0 43 -18.5t17 -45.5v-780h43q37 0 62.5 10.5t55.5 40.5l408 398q19 16 43 16q23 0 40 -17t17 -40q0 -25 -22 -47l-434 -416l452 -457q21 -21 21 -45t-18 -40.5t-42 -16.5t-43 16l-422 428q-29 29 -55 39t-65 10h-41v-432 q0 -26 -17.5 -43.5t-42.5 -17.5q-24 0 -41.5 18.5t-17.5 42.5z" />
<glyph unicode="l" horiz-adv-x="528" d="M205 53v1333q0 27 16.5 45.5t42.5 18.5q25 0 42.5 -19t17.5 -45v-1333q0 -25 -17.5 -43t-42.5 -18t-42 18t-17 43z" />
<glyph unicode="m" horiz-adv-x="1804" d="M207 53v856q0 24 8 38.5t31 29.5q60 45 153.5 73.5t192.5 28.5q198 0 307 -121q31 21 45 30t52.5 30t69 31.5t77.5 20t94 9.5q193 0 286 -98.5t93 -275.5v-652q0 -26 -17 -43.5t-43 -17.5q-25 0 -42 17.5t-17 43.5v641q0 271 -262 271q-151 0 -283 -107q19 -82 19 -153 v-652q0 -26 -17 -43.5t-43 -17.5q-25 0 -42 17.5t-17 43.5v641q0 139 -62.5 205t-191.5 66q-40 0 -77 -4t-63.5 -11t-49.5 -15t-38 -16t-25 -15t-15 -11t-4 -4v-836q0 -26 -18 -43.5t-44 -17.5q-25 0 -41 17.5t-16 43.5z" />
<glyph unicode="n" horiz-adv-x="1255" d="M205 53v854q0 42 28 62q55 41 162.5 75.5t249.5 34.5q207 0 314.5 -107t107.5 -304v-615q0 -27 -16 -44t-43 -17q-25 0 -42.5 17.5t-17.5 43.5v611q0 149 -85.5 225t-221.5 76q-95 0 -180.5 -24t-136.5 -56v-832q0 -26 -17 -43.5t-43 -17.5q-25 0 -42 17.5t-17 43.5z" />
<glyph unicode="o" horiz-adv-x="1212" d="M162 391q-4 71 -4 142t4 143q9 179 133 291t311 112q186 0 310 -112t132 -291q4 -71 4 -142.5t-4 -142.5q-9 -178 -133.5 -294.5t-308.5 -116.5q-185 0 -310 116.5t-134 294.5zM283 389q12 -133 99.5 -214t223.5 -81q135 0 222.5 81t99.5 214q4 56 4 128t-4 159 q-8 128 -95.5 208.5t-226.5 80.5t-227 -80.5t-96 -208.5q-4 -87 -4 -159t4 -128z" />
<glyph unicode="p" horiz-adv-x="1232" d="M207 -328v1227q0 40 29 59q53 37 169 79t234 42q195 0 304.5 -104.5t123.5 -298.5q5 -54 5 -146t-5 -149q-14 -195 -126 -298t-320 -103q-136 0 -295 71v-379q0 -26 -17.5 -43.5t-42.5 -17.5q-26 0 -42.5 17.5t-16.5 43.5zM326 178q45 -30 129 -57t170 -27 q155 0 232.5 72t86.5 215q5 82 5 155.5t-5 137.5q-12 147 -87.5 219t-219.5 72q-79 0 -174 -30.5t-137 -62.5v-694z" />
<glyph unicode="q" horiz-adv-x="1230" d="M162 528q0 91 4 144q15 194 124.5 300.5t303.5 106.5q118 0 233.5 -40.5t167.5 -77.5q31 -21 31 -60v-1229q0 -26 -17 -43.5t-42 -17.5t-42.5 17.5t-17.5 43.5v379q-164 -71 -307 -71q-196 0 -307.5 104.5t-126.5 298.5q-4 54 -4 145zM285 379q18 -285 311 -285 q90 0 178 25.5t133 54.5v698q-42 32 -137 62.5t-176 30.5q-285 0 -309 -295q-5 -53 -5 -125.5t5 -165.5z" />
<glyph unicode="r" horiz-adv-x="753" d="M195 55v711q0 149 83.5 231t237.5 82q100 0 170 -20q49 -14 49 -60q0 -21 -16 -37t-47 -16q-18 0 -65.5 9.5t-88.5 9.5q-104 0 -154.5 -49.5t-50.5 -155.5v-705q0 -27 -16.5 -45t-42.5 -18q-25 0 -42 18.5t-17 44.5z" />
<glyph unicode="s" horiz-adv-x="985" d="M122 138q-1 6 -1 12q0 19 10 34q13 20 39.5 23t48.5 -12q41 -30 58 -40.5t55 -29t81 -25t101 -6.5q115 0 180.5 56t65.5 143q0 64 -42 103.5t-138 64.5l-162 39q-268 65 -268 276q0 139 99.5 221t264.5 82q83 0 157.5 -24.5t121.5 -60.5q24 -18 26 -44.5t-14 -44.5 q-15 -17 -39 -18.5t-47 12.5q-107 66 -205 66q-120 0 -183 -47t-63 -138q0 -59 39.5 -98t136.5 -64q44 -11 99.5 -23t58.5 -13q141 -38 209 -107.5t68 -175.5q0 -145 -99.5 -232t-265.5 -87q-118 0 -206.5 27t-162.5 89q-19 16 -23 42z" />
<glyph unicode="t" horiz-adv-x="817" d="M193 295v919q0 26 17 45t40 19q27 0 44 -18.5t17 -45.5v-176h330q25 0 43 -16.5t18 -42.5q0 -23 -18 -39t-43 -16h-330v-639q0 -85 41.5 -138t124.5 -53q27 0 54.5 5t45 10t44 14t36.5 12q34 10 58 -5.5t24 -45.5q0 -47 -59 -68q-98 -36 -199 -36q-145 0 -216.5 86.5 t-71.5 228.5z" />
<glyph unicode="u" horiz-adv-x="1257" d="M188 387v617q0 26 18 43.5t44 17.5q24 0 40.5 -17.5t16.5 -43.5v-623q0 -133 81.5 -210t227.5 -77q177 0 316 88v822q0 26 16.5 43.5t42.5 17.5q25 0 42.5 -17.5t17.5 -43.5v-846q0 -40 -27 -56q-173 -122 -408 -122q-190 0 -309 108.5t-119 298.5z" />
<glyph unicode="v" horiz-adv-x="1030" d="M57 983q-4 13 -4 24q1 17 11 33q18 24 45 25q39 0 55 -39l344 -917q3 -11 10 -11t10 11l334 911q17 45 60 45q30 0 46 -26q9 -15 10 -32q0 -12 -5 -24l-336 -901q-37 -94 -119 -94q-41 0 -72.5 24.5t-46.5 67.5z" />
<glyph unicode="w" horiz-adv-x="1667" d="M84 987q-3 11 -3 22q1 19 11 35q16 25 45 25q47 0 60 -47l262 -930q3 -10 10 -10t10 10l228 869q13 54 48.5 81t78.5 27q45 0 79 -27.5t48 -83.5l229 -866q3 -10 10 -10t10 10l258 932q12 45 58 45q32 0 48 -26q11 -17 10 -35q0 -10 -3 -21l-262 -917 q-13 -48 -45.5 -73.5t-75.5 -25.5t-77 25.5t-46 73.5l-231 882q-3 9 -10 9q-8 0 -11 -9l-237 -880q-27 -101 -119 -101q-94 0 -121 99z" />
<glyph unicode="x" horiz-adv-x="1101" d="M113 49q0 24 14 41l350 451l-327 426q-15 18 -15 41q0 22 17 39.5t41 17.5q31 0 51 -27l307 -403l303 401q23 29 53 29q25 0 42.5 -17.5t17.5 -41.5q0 -25 -15 -43l-325 -424l350 -451q14 -17 14 -39q0 -24 -16 -41.5t-41 -17.5q-36 0 -53 26l-328 430l-330 -432 q-21 -24 -51 -24q-24 0 -41.5 17.5t-17.5 41.5z" />
<glyph unicode="y" horiz-adv-x="1028" d="M59 977q-6 14 -6 27q0 17 9 33q17 28 49 28q43 0 59 -39l350 -795q4 -8 8 -8q5 0 9 8l317 787q19 47 61 47q35 0 51 -29q8 -14 8 -31q0 -14 -7 -30l-387 -948q-54 -135 -134 -242.5t-155 -151.5q-31 -16 -62 -16q-24 0 -40.5 15.5t-16.5 41.5q0 39 39 58q154 75 254 331z " />
<glyph unicode="z" horiz-adv-x="1046" d="M129 102q0 44 35 88l659 738h-602q-25 0 -42 15.5t-17 39.5q0 25 16.5 42t42.5 17h590q59 0 92 -31t33 -83q0 -46 -51 -103l-641 -710h626q25 0 41.5 -17.5t16.5 -40.5q0 -25 -16 -41t-42 -16h-626q-52 0 -83.5 29t-31.5 73z" />
<glyph unicode="{" horiz-adv-x="729" d="M72 645q0 38 43 72q61 49 84.5 102t23.5 131v486q0 77 54.5 131.5t130.5 54.5h237q27 0 44.5 -16.5t17.5 -42.5q0 -23 -18.5 -41.5t-43.5 -18.5h-242q-26 0 -43.5 -17.5t-17.5 -43.5v-492q0 -118 -41 -192.5t-96 -112.5q137 -99 137 -305v-518q0 -26 19 -44t45 -18h239 q25 0 43.5 -18t18.5 -41q0 -26 -18 -43.5t-44 -17.5h-237q-76 0 -130.5 54.5t-54.5 131.5v512q0 78 -23.5 131t-84.5 102q-43 34 -43 74z" />
<glyph unicode="|" horiz-adv-x="626" d="M248 -225v1874q0 26 17 43.5t42 17.5q26 0 43 -17.5t17 -43.5v-1874q0 -26 -17 -44t-43 -18q-24 0 -41.5 19t-17.5 43z" />
<glyph unicode="}" horiz-adv-x="729" d="M25 -299q0 23 18 41t43 18h240q26 0 44.5 18t18.5 44v518q0 206 137 305q-55 38 -96 112.5t-41 192.5v492q0 26 -17.5 43.5t-43.5 17.5h-242q-24 0 -42.5 18.5t-18.5 41.5q0 26 17.5 42.5t43.5 16.5h238q76 0 130 -54.5t54 -131.5v-486q0 -78 23.5 -131t84.5 -102 q43 -34 43 -72q0 -40 -43 -74q-61 -49 -84.5 -102t-23.5 -131v-512q0 -77 -54 -131.5t-130 -54.5h-238q-26 0 -43.5 17.5t-17.5 43.5z" />
<glyph unicode="~" horiz-adv-x="1275" d="M164 707q0 44 47 61q133 59 227 59q65 0 134.5 -26.5t138 -53t131.5 -26.5q78 0 176 55q39 21 66.5 1t27.5 -48q0 -44 -47 -61q-135 -60 -227 -60q-52 0 -107.5 16.5t-96 37t-95 37t-105.5 16.5q-78 0 -172 -51q-31 -17 -52.5 -12t-33.5 20.5t-12 34.5z" />
<glyph unicode="&#xa1;" horiz-adv-x="419" d="M143 1274v112q0 26 20.5 46t45.5 20q28 0 47.5 -19t19.5 -47v-112q0 -28 -19.5 -47t-47.5 -19q-25 0 -45.5 19.5t-20.5 46.5zM150 63l6 852q0 24 16 41t39 17q22 0 37.5 -16.5t15.5 -41.5l6 -852q-2 -27 -18.5 -44t-42.5 -17q-24 0 -41.5 17.5t-17.5 43.5z" />
<glyph unicode="&#xa2;" horiz-adv-x="1052" d="M219 606q-6 110 0 221q9 141 102 243t228 122v201q0 24 16.5 41.5t38.5 17.5q25 0 41.5 -17t16.5 -42v-201q95 -12 168.5 -66.5t111.5 -140.5q8 -16 8 -35q0 -27 -17 -44t-40 -17q-20 0 -35 11t-20 26q-29 71 -91.5 114t-138.5 43q-121 0 -191 -71t-79 -189 q-9 -109 0 -215q11 -118 80 -187t190 -69q76 0 138 41.5t90 108.5q6 20 21 32.5t34 12.5q25 0 41 -17t16 -41q0 -18 -8 -34q-91 -186 -278 -215v-199q0 -25 -16.5 -42t-41.5 -17q-22 0 -38.5 18t-16.5 41v199q-137 22 -229 122.5t-101 243.5z" />
<glyph unicode="&#xa3;" horiz-adv-x="1134" d="M25 670q0 24 18 40.5t43 16.5h125q-4 16 -15 64t-15.5 70t-11.5 59.5t-10 66.5t-3 57q0 174 113.5 291t314.5 117q236 0 387 -160q28 -28 28 -57q0 -25 -16 -40t-41 -15q-29 0 -57 28q-71 67 -137.5 97t-163.5 30q-82 0 -144.5 -26.5t-97 -69.5t-51.5 -91t-17 -99 q0 -40 8.5 -88.5t26.5 -122.5t25 -111h332q26 0 43.5 -16t17.5 -41q0 -26 -18 -44t-43 -18h-320q13 -102 -19.5 -235t-99.5 -254h760q25 0 42.5 -18t17.5 -44q0 -25 -18 -41t-44 -16h-782q-50 0 -77.5 25t-27.5 65q0 28 33 96q120 229 96 422h-141q-24 0 -42.5 19t-18.5 43z " />
<glyph unicode="&#xa4;" horiz-adv-x="1275" d="M104 1189q0 27 19 44q20 19 46 18.5t46 -20.5l174 -178q106 92 248 92q144 0 250 -92l174 178q19 20 44.5 20.5t47.5 -18.5q17 -17 17 -44t-19 -46l-186 -189q40 -75 43 -174v-127q0 -91 -43 -172l186 -186q19 -19 19 -45t-17 -45q-22 -19 -47 -18t-45 20l-172 174 q-103 -92 -252 -92q-147 0 -250 92l-172 -174q-22 -19 -46.5 -20t-45.5 18q-19 19 -18.5 45t20.5 45l184 186q-38 71 -41 172q-3 64 0 127q3 103 41 174l-186 189q-19 19 -19 46zM391 651q5 -102 75 -171.5t171 -69.5q102 0 171.5 69.5t74.5 171.5q3 58 0 131 q-5 104 -74.5 174t-171.5 70q-100 0 -170 -70t-76 -174q-4 -42 0 -131z" />
<glyph unicode="&#xa5;" horiz-adv-x="1312" d="M37 1384q0 23 18 40.5t41 17.5q27 0 47 -23l514 -639l512 639q20 23 48 23q23 0 41 -18t18 -40q0 -24 -16 -43l-488 -602q-4 -5 -13 -16t-12.5 -15.5t-10 -13.5t-8.5 -15t-5.5 -15t-4.5 -19t-1 -22v-29h282q24 0 42 -16.5t18 -40.5q0 -22 -18.5 -38t-41.5 -16h-282v-430 q0 -26 -17.5 -43.5t-42.5 -17.5t-42 18t-17 43v430h-285q-24 0 -40.5 16t-16.5 38q0 25 16 41t41 16h285v29q0 17 -2 29.5t-9.5 26t-11.5 19t-18 22t-18 21.5l-486 600q-16 19 -16 43z" />
<glyph unicode="&#xa6;" horiz-adv-x="626" d="M248 -225v800q0 26 17 44t42 18q26 0 43 -18t17 -44v-800q0 -26 -17 -44t-43 -18q-24 0 -41.5 19t-17.5 43zM248 848v801q0 26 17 43.5t42 17.5q26 0 43 -17.5t17 -43.5v-801q0 -25 -17 -43.5t-43 -18.5q-24 0 -41.5 19t-17.5 43z" />
<glyph unicode="&#xa7;" horiz-adv-x="1196" d="M178 -45q0 25 16 41t42 16q21 0 51 -20q67 -43 151.5 -63.5t159.5 -20.5q76 0 134.5 21t92.5 55.5t51 74.5t17 84q0 29 -5 53.5t-12 44t-23 36.5t-28.5 29t-38.5 24.5t-43.5 20t-53 18t-57 16t-65.5 16.5q-195 52 -272.5 116.5t-77.5 168.5q0 99 74 180q-84 81 -84 226 q0 156 114 256t293 100q120 0 218 -35t159 -82q23 -16 23 -45q0 -27 -16 -44t-42 -17q-20 0 -51 18q-148 86 -284 86q-146 0 -220.5 -70t-74.5 -163q0 -52 15 -90.5t38.5 -64t68.5 -46t87.5 -33t113.5 -28.5q196 -45 274 -110t78 -171q0 -96 -73 -180q84 -84 84 -228 q0 -155 -115 -255.5t-295 -100.5q-124 0 -236.5 36t-164.5 81q-23 20 -23 49zM342 694q0 -65 58.5 -105t220.5 -77q106 -25 210 -70l5 4q18 16 28 44t10 53q0 65 -57 102t-221 78q-145 36 -211 70l-4 -5q-39 -36 -39 -94z" />
<glyph unicode="&#xa8;" horiz-adv-x="696" d="M119 1638q0 31 22.5 53.5t53.5 22.5q32 0 53.5 -22.5t21.5 -53.5q0 -32 -21.5 -53.5t-53.5 -21.5q-31 0 -53.5 21.5t-22.5 53.5zM426 1638q0 31 22 53.5t54 22.5q31 0 53.5 -22.5t22.5 -53.5q0 -32 -22.5 -53.5t-53.5 -21.5q-32 0 -54 21.5t-22 53.5z" />
<glyph unicode="&#xa9;" horiz-adv-x="1667" d="M215 614q-3 104 0 209q5 184 88.5 327.5t222.5 220.5t308 77q168 0 307.5 -82t221.5 -225t89 -318q3 -104 0 -209q-7 -175 -89 -318.5t-221.5 -226.5t-307.5 -83q-167 0 -307.5 82.5t-223.5 227t-88 318.5zM313 629q7 -168 78 -292t185.5 -186.5t257.5 -62.5 q216 0 360.5 140.5t159.5 379.5q6 112 0 221q-18 241 -161.5 381t-358.5 140q-219 0 -365.5 -143t-155.5 -390q-4 -99 0 -188zM492 629q-9 89 0 186q11 142 106 238t238 96q110 0 190 -48.5t115 -135.5q8 -16 8 -37q0 -23 -14.5 -36t-34.5 -13q-32 0 -45 30 q-28 64 -86.5 102t-132.5 38q-101 0 -167 -66t-75 -172q-7 -74 0 -182q8 -104 74.5 -171t167.5 -67q74 0 132.5 37.5t86.5 99.5q12 33 45 33q19 0 34 -13t15 -36q0 -16 -8 -35q-36 -87 -116 -137.5t-189 -50.5q-143 0 -237.5 97t-106.5 243z" />
<glyph unicode="&#xaa;" horiz-adv-x="983" d="M94 885q-7 123 0 221q9 162 103 252t252 90q105 0 196.5 -30.5t136.5 -63.5q21 -21 21 -47v-392q0 -97 15.5 -148.5t55.5 -104.5q18 -30 11.5 -56.5t-27.5 -38.5q-23 -14 -48 -9t-42 28q-31 36 -51 88q-139 -119 -268 -119q-160 0 -253 90.5t-102 239.5zM217 899 q16 -219 232 -219q65 0 131 33t108 84q-10 74 -10 266v199q-30 24 -95.5 42.5t-133.5 18.5q-215 0 -232 -217q-8 -104 0 -207z" />
<glyph unicode="&#xab;" horiz-adv-x="1101" d="M104 715q0 64 89 141l243 201q22 19 48.5 16.5t41.5 -24.5q18 -21 15.5 -47t-23.5 -41l-272 -218q-19 -14 -19 -28q0 -15 19 -29l272 -219q21 -18 23.5 -43.5t-15.5 -46.5q-15 -20 -41.5 -22.5t-48.5 14.5l-243 204q-89 74 -89 142zM475 715q0 65 88 141l246 201 q20 19 46.5 16.5t43.5 -24.5q17 -20 14 -46.5t-24 -41.5l-273 -218q-18 -13 -18 -28t18 -29l273 -219q21 -18 24 -43.5t-14 -46.5q-17 -20 -43.5 -22.5t-46.5 14.5l-246 204q-88 73 -88 142z" />
<glyph unicode="&#xac;" horiz-adv-x="1286" d="M123 719q0 26 17.5 42.5t43.5 16.5h854q58 0 90.5 -34t32.5 -87v-401q0 -26 -16.5 -43.5t-42.5 -17.5q-25 0 -42.5 18t-17.5 43v403h-858q-26 0 -43.5 17.5t-17.5 42.5z" />
<glyph unicode="&#xad;" horiz-adv-x="706" d="M121 588q0 26 17 41.5t44 15.5h342q27 0 44.5 -15.5t17.5 -41.5t-18 -43t-44 -17h-342q-26 0 -43.5 17.5t-17.5 42.5z" />
<glyph unicode="&#xae;" horiz-adv-x="1257" d="M178 836q-4 88 0 176q7 192 134 315t311 123q186 0 312 -123t132 -315q7 -88 0 -176q-6 -192 -132 -315.5t-312 -123.5q-184 0 -311 123.5t-134 315.5zM256 834q13 -170 113.5 -264.5t253.5 -94.5q154 0 253.5 94.5t112.5 264.5q8 89 0 182q-13 168 -112.5 261t-253.5 93 q-153 0 -253.5 -93t-113.5 -261q-8 -93 0 -182zM430 686v463q0 26 17 43.5t45 17.5h161q77 0 131 -47t54 -131q0 -127 -127 -160l131 -155q16 -16 16 -33q0 -14 -11 -25.5t-28 -11.5q-21 0 -37 21l-151 180q-13 16 -37 16h-86v-178q0 -15 -11.5 -26t-29.5 -11 q-14 0 -25.5 11t-11.5 26zM508 938h137q111 0 111 100q0 45 -27 72t-80 27h-141v-199z" />
<glyph unicode="&#xaf;" horiz-adv-x="696" d="M129 1630q0 23 14.5 38t36.5 15h344q23 0 38.5 -15t15.5 -38q0 -22 -15.5 -36.5t-38.5 -14.5h-344q-22 0 -36.5 14.5t-14.5 36.5z" />
<glyph unicode="&#xb0;" horiz-adv-x="722" d="M102 1190q0 106 77 183t181 77q107 0 184 -77t77 -183q0 -105 -77 -181.5t-184 -76.5q-104 0 -181 77t-77 181zM205 1190q0 -65 45.5 -111.5t109.5 -46.5q67 0 113.5 46.5t46.5 111.5q0 66 -46.5 113t-113.5 47q-64 0 -109.5 -47t-45.5 -113z" />
<glyph unicode="&#xb1;" horiz-adv-x="1286" d="M123 59q0 26 18 43t45 17h914q27 0 45 -17t18 -43q0 -24 -19 -41.5t-44 -17.5h-914q-26 0 -44.5 17t-18.5 42zM123 698q0 27 18 43.5t45 16.5h400v399q0 28 17 46t42 18q26 0 43 -18t17 -46v-399h395q27 0 45 -16.5t18 -43.5q0 -24 -19 -41.5t-44 -17.5h-395v-397 q0 -28 -17 -46t-43 -18q-25 0 -42 19t-17 45v397h-400q-26 0 -44.5 17t-18.5 42z" />
<glyph unicode="&#xb2;" horiz-adv-x="948" d="M162 596q0 154 211 307q16 12 60 40t75 50.5t66 54t54 68t19 74.5q0 60 -47.5 105.5t-136.5 45.5q-118 0 -191 -98q-25 -33 -53 -33q-26 0 -41.5 16t-15.5 40q0 23 14 43q41 60 113.5 101.5t173.5 41.5q138 0 216.5 -75t78.5 -187q0 -76 -38.5 -136.5t-85 -96.5 t-179.5 -124q-3 -3 -5.5 -4.5t-5.5 -3.5q-155 -108 -172 -211h445q25 0 42 -15.5t17 -39.5q0 -26 -17 -41.5t-42 -15.5h-471q-36 0 -60 26t-24 68z" />
<glyph unicode="&#xb3;" horiz-adv-x="892" d="M139 539q0 22 17 36.5t43 14.5h77q166 0 270.5 64t104.5 171q0 68 -51 113t-119 45q-33 0 -63 -4t-39 -4q-26 0 -45 15.5t-19 41.5t21 47l229 230h-366q-26 0 -43 16.5t-17 40.5q0 26 16.5 40.5t43.5 14.5h419q37 0 64 -22.5t27 -57.5q0 -38 -39 -79l-176 -172 q114 -8 190 -81t76 -182q0 -161 -132 -253.5t-360 -92.5q-49 0 -69 2q-26 2 -43 16.5t-17 39.5z" />
<glyph unicode="&#xb4;" horiz-adv-x="696" d="M156 1595q0 31 28 47l277 144q16 8 28 8q23 0 38.5 -15t15.5 -38q0 -35 -29 -49l-278 -144q-18 -6 -27 -6q-22 0 -37.5 15t-15.5 38z" />
<glyph unicode="&#xb6;" horiz-adv-x="1406" d="M233 999q0 196 129.5 314.5t333.5 118.5h371q63 0 90 -26.5t27 -78.5v-1659q0 -24 -18 -42.5t-42 -18.5t-41.5 18.5t-17.5 42.5v1645h-176v-1645q0 -26 -17 -43.5t-43 -17.5q-25 0 -42 17.5t-17 43.5v895h-72q-208 0 -336.5 115.5t-128.5 320.5zM352 997 q0 -144 84 -228.5t258 -84.5h76v629h-76q-173 0 -257.5 -86.5t-84.5 -229.5z" />
<glyph unicode="&#xb7;" horiz-adv-x="530" d="M199 668v110q0 30 19 50t48 20t48.5 -20.5t19.5 -49.5v-110q0 -30 -19 -50t-49 -20q-28 0 -47.5 20.5t-19.5 49.5z" />
<glyph unicode="&#xb8;" horiz-adv-x="696" d="M217 -455q0 39 45 54q92 34 125 64t33 65q0 23 -17 43t-47 20q-15 0 -31.5 -4t-27.5 -4q-30 0 -46.5 25t-6.5 55l53 145q10 43 57 43q25 0 38.5 -14t13.5 -37q0 -8 -5 -18l-28 -82q73 -3 120.5 -50.5t47.5 -119.5q0 -156 -246 -238q-29 -10 -53.5 4t-24.5 49z" />
<glyph unicode="&#xb9;" horiz-adv-x="667" d="M101.5 1264.5q7.5 25.5 29.5 35.5l221 125q22 9 33 9q24 0 40.5 -17.5t16.5 -42.5v-819q0 -25 -16.5 -41t-42.5 -16q-24 0 -41.5 17.5t-17.5 39.5v717l-136 -76q-23 -12 -46.5 -6.5t-35.5 27.5t-4.5 47.5z" />
<glyph unicode="&#xba;" horiz-adv-x="974" d="M125 903q-10 101 0 205q12 147 113.5 244.5t248.5 97.5q145 0 247 -97.5t116 -244.5q10 -102 0 -205q-14 -149 -116 -247.5t-247 -98.5q-146 0 -248 99t-114 247zM240 913q7 -102 77 -167.5t170 -65.5t169.5 65.5t76.5 167.5q7 110 0 185q-9 99 -78 164t-168 65 t-167.5 -65t-79.5 -164q-6 -94 0 -185z" />
<glyph unicode="&#xbb;" horiz-adv-x="1101" d="M189 423.5q3 25.5 24 43.5l272 219q19 14 19 29q0 14 -19 28l-272 218q-21 15 -24 41.5t14 46.5q17 22 43.5 24.5t46.5 -16.5l246 -201q88 -76 88 -141q0 -69 -88 -142l-246 -204q-20 -17 -46.5 -14.5t-43.5 22.5q-17 21 -14 46.5zM560 423.5q3 25.5 24 43.5l272 219 q18 14 18 29t-18 28l-272 218q-21 15 -24 41t15 47q15 22 42 24.5t49 -16.5l243 -201q88 -76 88 -141q0 -69 -88 -142l-243 -204q-22 -17 -49 -14.5t-42 22.5q-18 21 -15 46.5z" />
<glyph unicode="&#xbc;" horiz-adv-x="1939" d="M101.5 1266q7.5 23 29.5 34l221 125q22 9 33 9q24 0 38.5 -17t14.5 -43v-819q0 -25 -14.5 -41t-40.5 -16q-24 0 -39.5 17t-15.5 40v725l-140 -76q-23 -13 -46.5 -8.5t-35.5 25.5q-12 22 -4.5 45zM451 14l573 1444q9 23 32 33t44 2q24 -9 34 -32t1 -48l-572 -1442 q-9 -22 -31 -31t-45 -1q-25 9 -35 30.5t-1 44.5zM1010 309q0 41 39 84l417 494q45 51 88 51q42 0 65 -27t23 -69v-512h89q25 0 43 -16t18 -42t-17 -40.5t-44 -14.5h-89v-156q0 -25 -14 -43t-39 -18q-27 0 -42 17t-15 44v156h-420q-45 0 -73.5 26t-28.5 66zM1135 330h397v467 z" />
<glyph unicode="&#xbd;" horiz-adv-x="1896" d="M101.5 1266q7.5 23 29.5 34l221 125q22 9 33 9q24 0 38.5 -17t14.5 -43v-819q0 -25 -14.5 -41t-40.5 -16q-24 0 -39.5 17t-15.5 40v725l-140 -76q-23 -13 -46.5 -8.5t-35.5 25.5q-12 22 -4.5 45zM455.5 -30q-8.5 22 1.5 48l571 1440q9 23 30.5 33t45.5 2q24 -7 34 -31 t1 -49l-572 -1442q-9 -23 -32 -32t-46 0q-25 9 -33.5 31zM1112 92q0 154 211 307q16 12 60 40t75 50.5t66 54t54 68t19 74.5q0 60 -47.5 106t-136.5 46q-116 0 -190 -99q-24 -32 -54 -32q-26 0 -41.5 15.5t-15.5 39.5q0 23 14 43q41 60 113.5 101.5t173.5 41.5 q138 0 216.5 -75t78.5 -187q0 -58 -16 -101t-57 -84.5t-90 -77t-137 -93.5q-4 -2 -7 -4l-6 -4q-155 -108 -172 -211h444q25 0 42 -16t17 -40q0 -26 -17 -41.5t-42 -15.5h-471q-36 0 -60 26t-24 68z" />
<glyph unicode="&#xbe;" horiz-adv-x="2174" d="M139 539q0 22 17 36.5t43 14.5h77q166 0 270.5 64t104.5 171q0 68 -51 113t-119 45q-33 0 -63 -4t-39 -4q-26 0 -45 15.5t-19 41.5t21 47l229 230h-366q-26 0 -43 16.5t-17 40.5q0 26 16.5 40.5t43.5 14.5h419q37 0 64 -22.5t27 -57.5q0 -38 -39 -79l-176 -172 q114 -8 190 -81t76 -182q0 -161 -132 -253.5t-360 -92.5q-49 0 -69 2q-26 2 -43 16.5t-17 39.5zM723 14l573 1444q9 23 31.5 33t46.5 2q23 -9 32.5 -32t0.5 -48l-571 -1442q-9 -24 -31 -34t-49 0q-23 9 -32.5 31.5t-0.5 45.5zM1280 309q0 41 39 84l418 494q45 51 88 51 q42 0 65 -27t23 -69v-512h88q25 0 43 -16t18 -42t-17 -40.5t-44 -14.5h-88v-156q0 -25 -14 -43t-39 -18q-27 0 -42.5 17t-15.5 44v156h-420q-45 0 -73.5 26t-28.5 66zM1403 330h399v467z" />
<glyph unicode="&#xbf;" horiz-adv-x="1146" d="M127 369q0 58 9 106t25 87.5t44.5 75.5t60.5 64.5t80.5 59.5t97 56.5t117.5 58.5q27 10 45 10q24 0 43 -17.5t19 -44.5q0 -41 -45 -61q-150 -65 -227.5 -117.5t-113.5 -118.5t-36 -163q0 -120 79.5 -193.5t217.5 -73.5q119 0 198 37t144 121q20 25 49 25q25 0 43 -18.5 t18 -43.5q0 -19 -18 -43q-153 -194 -434 -194q-187 0 -301.5 108.5t-114.5 278.5zM537 1274v112q0 27 20 46.5t47 19.5q25 0 46.5 -20t21.5 -46v-112q0 -27 -21 -46.5t-47 -19.5q-27 0 -47 19.5t-20 46.5z" />
<glyph unicode="&#xc0;" d="M59 84l447 1225q52 143 178 143q128 0 180 -141l447 -1227q4 -12 4 -21q0 -25 -16.5 -44t-43.5 -19q-41 0 -57 39l-172 469h-686l-168 -469q-16 -39 -57 -39q-33 0 -50 26.5t-6 57.5zM385 627h596l-236 659q-16 51 -61 51q-42 0 -61 -53zM424 1739q0 23 15.5 38t37.5 15 q19 0 31 -8l274 -144q29 -14 29 -47q0 -23 -15 -38t-38 -15q-13 0 -29 8l-276 142q-29 17 -29 49z" />
<glyph unicode="&#xc1;" d="M59 84l447 1225q52 143 178 143q128 0 180 -141l447 -1227q4 -12 4 -21q0 -25 -16.5 -44t-43.5 -19q-41 0 -57 39l-172 469h-686l-168 -469q-16 -39 -57 -39q-33 0 -50 26.5t-6 57.5zM385 627h596l-236 659q-16 51 -61 51q-42 0 -61 -53zM553 1593q0 30 29 47l276 144 q16 8 29 8q23 0 38 -15t15 -38q0 -35 -29 -49l-278 -144q-18 -6 -27 -6q-22 0 -37.5 15t-15.5 38z" />
<glyph unicode="&#xc2;" d="M59 84l447 1225q52 143 178 143q128 0 180 -141l447 -1227q4 -12 4 -21q0 -25 -16.5 -44t-43.5 -19q-41 0 -57 39l-172 469h-686l-168 -469q-16 -39 -57 -39q-33 0 -50 26.5t-6 57.5zM385 627h596l-236 659q-16 51 -61 51q-42 0 -61 -53zM428 1593q0 28 25 45l178 131 q24 21 53 21q24 0 51 -21l180 -131q23 -15 23 -45q0 -23 -14 -38t-39 -15q-21 0 -35 12l-166 123l-166 -123q-14 -12 -37 -12q-24 0 -38.5 15.5t-14.5 37.5z" />
<glyph unicode="&#xc3;" d="M59 84l447 1225q52 143 178 143q128 0 180 -141l447 -1227q4 -12 4 -21q0 -25 -16.5 -44t-43.5 -19q-41 0 -57 39l-172 469h-686l-168 -469q-16 -39 -57 -39q-33 0 -50 26.5t-6 57.5zM385 627h596l-236 659q-16 51 -61 51q-42 0 -61 -53zM408 1620q0 30 24 47 q72 62 141 62q41 0 82 -18.5t76 -37t62 -18.5q26 0 57 25.5t53 25.5q26 0 42 -15.5t16 -37.5q0 -26 -25 -47q-72 -62 -143 -62q-39 0 -81 18.5t-77.5 37t-59.5 18.5q-26 0 -58 -25.5t-54 -25.5q-24 0 -39.5 15.5t-15.5 37.5z" />
<glyph unicode="&#xc4;" d="M59 84l447 1225q52 143 178 143q128 0 180 -141l447 -1227q4 -12 4 -21q0 -25 -16.5 -44t-43.5 -19q-41 0 -57 39l-172 469h-686l-168 -469q-16 -39 -57 -39q-33 0 -50 26.5t-6 57.5zM385 627h596l-236 659q-16 51 -61 51q-42 0 -61 -53zM455 1638q0 31 22 53.5t53 22.5 q32 0 54 -22.5t22 -53.5q0 -32 -22 -53.5t-54 -21.5q-31 0 -53 21.5t-22 53.5zM762 1638q0 31 22 53.5t54 22.5q31 0 53 -22.5t22 -53.5q0 -32 -22 -53.5t-53 -21.5q-32 0 -54 21.5t-22 53.5z" />
<glyph unicode="&#xc5;" d="M59 84l447 1225q52 143 178 143q128 0 180 -141l447 -1227q4 -12 4 -21q0 -25 -16.5 -44t-43.5 -19q-41 0 -57 39l-172 469h-686l-168 -469q-16 -39 -57 -39q-33 0 -50 26.5t-6 57.5zM385 627h596l-236 659q-16 51 -61 51q-42 0 -61 -53zM500 1722q0 75 54 130t130 55 q75 0 129.5 -55t54.5 -130t-54.5 -129.5t-129.5 -54.5q-76 0 -130 54.5t-54 129.5zM590 1722q0 -38 27 -65t67 -27q38 0 66 27t28 65q0 40 -28 67.5t-66 27.5q-40 0 -67 -27.5t-27 -67.5z" />
<glyph unicode="&#xc6;" horiz-adv-x="2111" d="M40.5 41q-6.5 27 6.5 47l838 1243q68 101 207 101h804q26 0 44 -18t18 -44q0 -25 -18.5 -43t-43.5 -18h-716v-527h700q28 0 47 -16.5t19 -42.5t-20 -45t-46 -19h-700v-536h721q25 0 43 -18.5t18 -43.5q0 -26 -17.5 -43.5t-43.5 -17.5h-725q-55 0 -85 32.5t-30 82.5v405 h-572l-333 -500q-19 -28 -54 -28q-15 0 -32 10q-23 12 -29.5 39zM571 643h490v666q-43 0 -70 -41z" />
<glyph unicode="&#xc7;" horiz-adv-x="1351" d="M156 551q-12 164 0 332q10 158 84 287t202 204.5t285 75.5q172 0 313.5 -96.5t200.5 -251.5q4 -12 4 -23q0 -24 -17.5 -40.5t-39.5 -16.5q-20 0 -35.5 12t-22.5 29q-47 122 -157 196t-246 74q-187 0 -310 -125t-141 -321q-12 -170 0 -340q18 -197 140.5 -322t310.5 -125 q136 0 245.5 74t157.5 195q7 17 22.5 29t35.5 12q22 0 39.5 -17t17.5 -41q0 -10 -4 -22q-53 -138 -173.5 -230.5t-272.5 -111.5l-29 -88q73 -3 120.5 -50.5t47.5 -119.5q0 -157 -248 -238q-27 -10 -51.5 4t-24.5 49q0 39 43 54q94 34 127 64t33 65q0 23 -16.5 43t-46.5 20 q-15 0 -32 -4t-28 -4q-30 0 -46.5 25t-6.5 55l43 123q-222 15 -365.5 172.5t-158.5 392.5z" />
<glyph unicode="&#xc8;" horiz-adv-x="1275" d="M225 115v1202q0 49 30.5 82t84.5 33h719q27 0 45 -17t18 -43q0 -25 -18.5 -42t-44.5 -17h-715v-531h700q28 0 47 -16.5t19 -42.5t-20 -45t-46 -19h-700v-538h719q26 0 44.5 -17.5t18.5 -42.5q0 -26 -17.5 -43.5t-45.5 -17.5h-723q-55 0 -85 32.5t-30 82.5zM453 1739 q0 23 15.5 38t37.5 15q19 0 31 -8l274 -144q29 -14 29 -47q0 -23 -15.5 -38t-38.5 -15q-12 0 -28 8l-277 142q-28 16 -28 49z" />
<glyph unicode="&#xc9;" horiz-adv-x="1275" d="M225 115v1202q0 49 30.5 82t84.5 33h719q27 0 45 -17t18 -43q0 -25 -18.5 -42t-44.5 -17h-715v-531h700q28 0 47 -16.5t19 -42.5t-20 -45t-46 -19h-700v-538h719q26 0 44.5 -17.5t18.5 -42.5q0 -26 -17.5 -43.5t-45.5 -17.5h-723q-55 0 -85 32.5t-30 82.5zM430 1593 q0 30 29 47l276 144q16 8 29 8q23 0 38 -15t15 -38q0 -35 -29 -49l-278 -144q-18 -6 -27 -6q-22 0 -37.5 15t-15.5 38z" />
<glyph unicode="&#xca;" horiz-adv-x="1275" d="M225 115v1202q0 49 30.5 82t84.5 33h719q27 0 45 -17t18 -43q0 -25 -18.5 -42t-44.5 -17h-715v-531h700q28 0 47 -16.5t19 -42.5t-20 -45t-46 -19h-700v-538h719q26 0 44.5 -17.5t18.5 -42.5q0 -26 -17.5 -43.5t-45.5 -17.5h-723q-55 0 -85 32.5t-30 82.5zM424 1593 q0 28 25 45l178 131q24 21 53 21q24 0 51 -21l180 -131q23 -15 23 -45q0 -23 -14 -38t-39 -15q-21 0 -35 12l-166 123l-166 -123q-14 -12 -37 -12q-24 0 -38.5 15.5t-14.5 37.5z" />
<glyph unicode="&#xcb;" horiz-adv-x="1275" d="M225 115v1202q0 49 30.5 82t84.5 33h719q27 0 45 -17t18 -43q0 -25 -18.5 -42t-44.5 -17h-715v-531h700q28 0 47 -16.5t19 -42.5t-20 -45t-46 -19h-700v-538h719q26 0 44.5 -17.5t18.5 -42.5q0 -26 -17.5 -43.5t-45.5 -17.5h-723q-55 0 -85 32.5t-30 82.5zM461 1636 q0 31 22.5 53.5t53.5 22.5q32 0 53.5 -22.5t21.5 -53.5q0 -32 -21.5 -53.5t-53.5 -21.5q-31 0 -53.5 21.5t-22.5 53.5zM768 1636q0 31 22 53.5t54 22.5q31 0 53.5 -22.5t22.5 -53.5q0 -32 -22.5 -53.5t-53.5 -21.5q-32 0 -54 21.5t-22 53.5z" />
<glyph unicode="&#xcc;" horiz-adv-x="569" d="M31 1739q0 23 15.5 38t37.5 15q19 0 31 -8l274 -144q29 -14 29 -47q0 -23 -15 -38t-38 -15q-13 0 -29 8l-277 142q-28 16 -28 49zM225 53v1325q0 26 17.5 44t42.5 18t42 -18t17 -44v-1325q0 -26 -17 -43.5t-42 -17.5q-26 0 -43 17.5t-17 43.5z" />
<glyph unicode="&#xcd;" horiz-adv-x="569" d="M143 1593q0 30 29 47l277 144q16 8 28 8q23 0 38 -15t15 -38q0 -35 -28 -49l-279 -144q-18 -6 -26 -6q-22 0 -38 15t-16 38zM225 53v1325q0 26 17.5 44t42.5 18t42 -18t17 -44v-1325q0 -26 -17 -43.5t-42 -17.5q-26 0 -43 17.5t-17 43.5z" />
<glyph unicode="&#xce;" horiz-adv-x="569" d="M31 1593q0 29 24 45l178 131q24 21 54 21q24 0 51 -21l180 -131q23 -15 23 -45q0 -23 -14.5 -38t-39.5 -15q-20 0 -34 12l-166 123l-166 -123q-14 -12 -37 -12q-24 0 -38.5 15.5t-14.5 37.5zM225 53v1325q0 26 17.5 44t42.5 18t42 -18t17 -44v-1325q0 -26 -17 -43.5 t-42 -17.5q-26 0 -43 17.5t-17 43.5z" />
<glyph unicode="&#xcf;" horiz-adv-x="569" d="M55 1638q0 31 22.5 53.5t53.5 22.5q32 0 54 -22.5t22 -53.5q0 -32 -22 -53.5t-54 -21.5q-31 0 -53.5 21.5t-22.5 53.5zM225 53v1325q0 26 17.5 44t42.5 18t42 -18t17 -44v-1325q0 -26 -17 -43.5t-42 -17.5q-26 0 -43 17.5t-17 43.5zM362 1638q0 31 22 53.5t54 22.5 q31 0 53.5 -22.5t22.5 -53.5q0 -32 -22.5 -53.5t-53.5 -21.5q-32 0 -54 21.5t-22 53.5z" />
<glyph unicode="&#xd0;" horiz-adv-x="1472" d="M6 709q0 26 17 42.5t43 16.5h159v549q0 50 30 82.5t83 32.5h354q148 0 265.5 -45.5t194 -127.5t119 -192t48.5 -242q6 -116 0 -223q-6 -130 -49 -239t-120 -190.5t-194.5 -127t-263.5 -45.5h-354q-53 0 -83 32.5t-30 82.5v534h-159q-26 0 -43 17.5t-17 42.5zM344 121h344 q246 0 372.5 127.5t139.5 353.5q7 122 0 229q-14 227 -140.5 354.5t-371.5 127.5h-344v-545h361q28 0 44.5 -16.5t16.5 -42.5q0 -25 -17 -42.5t-44 -17.5h-361v-528z" />
<glyph unicode="&#xd1;" horiz-adv-x="1574" d="M225 53v1272q0 53 30 85t81 32q69 0 110 -64l789 -1251h4q-6 246 -6 291v960q0 26 17 44t42 18t42.5 -18t17.5 -44v-1272q0 -45 -29 -77.5t-70 -32.5q-71 0 -110 59l-797 1264h-6q4 -160 4 -301v-965q0 -25 -17 -43t-42 -18t-42.5 18t-17.5 43zM508 1624q0 30 24 47 q72 62 142 62q41 0 81.5 -18.5t75.5 -37t62 -18.5q26 0 57.5 25.5t53.5 25.5q26 0 41.5 -15.5t15.5 -37.5q0 -26 -25 -47q-72 -62 -143 -62q-39 0 -81 18.5t-77 37t-59 18.5q-26 0 -58.5 -25.5t-54.5 -25.5q-24 0 -39.5 15.5t-15.5 37.5z" />
<glyph unicode="&#xd2;" horiz-adv-x="1488" d="M156 551q-12 164 0 332q10 157 87.5 286.5t208.5 205t289 75.5q159 0 291 -75t211 -204.5t90 -287.5q12 -168 0 -332q-9 -120 -57 -225.5t-125.5 -181t-184 -119t-225.5 -43.5q-239 0 -403.5 162t-181.5 407zM276 547q19 -196 147.5 -321.5t317.5 -125.5q192 0 322 125.5 t149 321.5q15 169 0 338q-19 194 -150 320t-321 126q-188 0 -317 -126t-148 -320q-15 -169 0 -338zM504 1739q0 23 15.5 38t37.5 15q19 0 31 -8l274 -144q29 -14 29 -47q0 -23 -15 -38t-38 -15q-13 0 -29 8l-277 142q-28 16 -28 49z" />
<glyph unicode="&#xd3;" horiz-adv-x="1488" d="M156 551q-12 164 0 332q10 157 87.5 286.5t208.5 205t289 75.5q159 0 291 -75t211 -204.5t90 -287.5q12 -168 0 -332q-9 -120 -57 -225.5t-125.5 -181t-184 -119t-225.5 -43.5q-239 0 -403.5 162t-181.5 407zM276 547q19 -196 147.5 -321.5t317.5 -125.5q192 0 322 125.5 t149 321.5q15 169 0 338q-19 194 -150 320t-321 126q-188 0 -317 -126t-148 -320q-15 -169 0 -338zM594 1593q0 30 29 47l276 144q16 8 29 8q23 0 38 -15t15 -38q0 -35 -29 -49l-278 -144q-18 -6 -27 -6q-22 0 -37.5 15t-15.5 38z" />
<glyph unicode="&#xd4;" horiz-adv-x="1488" d="M156 551q-12 164 0 332q10 157 87.5 286.5t208.5 205t289 75.5q159 0 291 -75t211 -204.5t90 -287.5q12 -168 0 -332q-9 -120 -57 -225.5t-125.5 -181t-184 -119t-225.5 -43.5q-239 0 -403.5 162t-181.5 407zM276 547q19 -196 147.5 -321.5t317.5 -125.5q192 0 322 125.5 t149 321.5q15 169 0 338q-19 194 -150 320t-321 126q-188 0 -317 -126t-148 -320q-15 -169 0 -338zM487 1593q0 28 25 45l178 131q24 21 53 21q25 0 52 -21l180 -131q22 -15 22 -45q0 -23 -14 -38t-39 -15q-21 0 -35 12l-166 123l-165 -123q-14 -12 -37 -12q-24 0 -39 15.5 t-15 37.5z" />
<glyph unicode="&#xd5;" horiz-adv-x="1488" d="M156 551q-12 164 0 332q10 157 87.5 286.5t208.5 205t289 75.5q159 0 291 -75t211 -204.5t90 -287.5q12 -168 0 -332q-9 -120 -57 -225.5t-125.5 -181t-184 -119t-225.5 -43.5q-239 0 -403.5 162t-181.5 407zM276 547q19 -196 147.5 -321.5t317.5 -125.5q192 0 322 125.5 t149 321.5q15 169 0 338q-19 194 -150 320t-321 126q-188 0 -317 -126t-148 -320q-15 -169 0 -338zM469 1616q0 29 25 47q71 61 141 61q41 0 81.5 -18t75.5 -36.5t62 -18.5q26 0 57.5 25.5t53.5 25.5q26 0 41.5 -15.5t15.5 -37.5q0 -26 -25 -47q-72 -62 -143 -62 q-39 0 -81 18.5t-77 37t-59 18.5q-26 0 -58.5 -25.5t-54.5 -25.5q-24 0 -39.5 15.5t-15.5 37.5z" />
<glyph unicode="&#xd6;" horiz-adv-x="1488" d="M156 551q-12 164 0 332q10 157 87.5 286.5t208.5 205t289 75.5q159 0 291 -75t211 -204.5t90 -287.5q12 -168 0 -332q-9 -120 -57 -225.5t-125.5 -181t-184 -119t-225.5 -43.5q-239 0 -403.5 162t-181.5 407zM276 547q19 -196 147.5 -321.5t317.5 -125.5q192 0 322 125.5 t149 321.5q15 169 0 338q-19 194 -150 320t-321 126q-188 0 -317 -126t-148 -320q-15 -169 0 -338zM514 1638q0 31 22.5 53.5t53.5 22.5q32 0 54 -22.5t22 -53.5q0 -32 -22 -53.5t-54 -21.5q-31 0 -53.5 21.5t-22.5 53.5zM821 1638q0 31 22 53.5t54 22.5q31 0 53.5 -22.5 t22.5 -53.5q0 -32 -22.5 -53.5t-53.5 -21.5q-32 0 -54 21.5t-22 53.5z" />
<glyph unicode="&#xd7;" horiz-adv-x="1286" d="M173.5 310q0.5 25 19.5 44l366 367l-366 362q-19 19 -19.5 44t16.5 42q21 18 45.5 16.5t45.5 -20.5l362 -364l358 358q21 20 47 21.5t46 -17.5q17 -19 16 -43t-20 -41l-363 -358l363 -359q19 -17 20 -42t-16 -44q-19 -20 -45.5 -18t-47.5 21l-358 358l-362 -365 q-21 -19 -45.5 -20.5t-45.5 16.5q-17 17 -16.5 42z" />
<glyph unicode="&#xd8;" horiz-adv-x="1486" d="M154 551q-12 164 0 332q10 157 87.5 286.5t208.5 205t289 75.5q164 0 303 -84l29 51q17 33 51 33q24 0 39 -16t15 -39q0 -15 -7 -29l-36 -66q86 -77 137.5 -185t60.5 -232q12 -168 0 -332q-9 -120 -57 -225.5t-125.5 -181t-184 -119t-225.5 -43.5q-163 0 -295 77l-26 -47 q-15 -30 -49 -30q-24 0 -39 16t-15 39q0 12 7 26l32 62q-87 77 -139 187t-61 239zM274 547q18 -191 140 -316l571 1031q-107 69 -246 69q-188 0 -317 -126t-148 -320q-15 -169 0 -338zM502 164q106 -64 237 -64q192 0 322 125.5t149 321.5q15 169 0 338q-18 185 -137 307z " />
<glyph unicode="&#xd9;" horiz-adv-x="1531" d="M203 565v813q0 26 17 44t42 18q26 0 43 -18t17 -44v-803q0 -216 125 -345.5t319 -129.5t319 129.5t125 345.5v803q0 26 17.5 44t42.5 18q26 0 42.5 -17.5t16.5 -44.5v-813q0 -170 -73 -303.5t-201 -206.5t-289 -73t-289 73t-201 206.5t-73 303.5zM584 1739q0 23 15.5 38 t37.5 15q19 0 31 -8l274 -144q29 -14 29 -47q0 -23 -15 -38t-38 -15q-13 0 -29 8l-277 142q-28 16 -28 49z" />
<glyph unicode="&#xda;" horiz-adv-x="1531" d="M203 565v813q0 26 17 44t42 18q26 0 43 -18t17 -44v-803q0 -216 125 -345.5t319 -129.5t319 129.5t125 345.5v803q0 26 17.5 44t42.5 18q26 0 42.5 -17.5t16.5 -44.5v-813q0 -170 -73 -303.5t-201 -206.5t-289 -73t-289 73t-201 206.5t-73 303.5zM561 1593q0 30 29 47 l276 144q16 8 29 8q23 0 38 -15t15 -38q0 -35 -28 -49l-279 -144q-18 -6 -27 -6q-22 0 -37.5 15t-15.5 38z" />
<glyph unicode="&#xdb;" horiz-adv-x="1531" d="M203 565v813q0 26 17 44t42 18q26 0 43 -18t17 -44v-803q0 -216 125 -345.5t319 -129.5t319 129.5t125 345.5v803q0 26 17.5 44t42.5 18q26 0 42.5 -17.5t16.5 -44.5v-813q0 -170 -73 -303.5t-201 -206.5t-289 -73t-289 73t-201 206.5t-73 303.5zM510 1593q0 28 25 45 l178 131q24 21 53 21q24 0 51 -21l180 -131q23 -15 23 -45q0 -23 -14 -38t-39 -15q-21 0 -35 12l-166 123l-166 -123q-14 -12 -37 -12q-24 0 -38.5 15.5t-14.5 37.5z" />
<glyph unicode="&#xdc;" horiz-adv-x="1531" d="M203 565v813q0 26 17 44t42 18q26 0 43 -18t17 -44v-803q0 -216 125 -345.5t319 -129.5t319 129.5t125 345.5v803q0 26 17.5 44t42.5 18q26 0 42.5 -17.5t16.5 -44.5v-813q0 -170 -73 -303.5t-201 -206.5t-289 -73t-289 73t-201 206.5t-73 303.5zM537 1638q0 31 22 53.5 t53 22.5q32 0 54 -22.5t22 -53.5q0 -32 -22 -53.5t-54 -21.5q-31 0 -53 21.5t-22 53.5zM844 1638q0 31 22 53.5t54 22.5q31 0 53 -22.5t22 -53.5q0 -32 -22 -53.5t-53 -21.5q-32 0 -54 21.5t-22 53.5z" />
<glyph unicode="&#xdd;" horiz-adv-x="1312" d="M37 1384q0 23 18 40.5t41 17.5q27 0 47 -23l514 -639l512 639q20 23 48 23q23 0 41 -18t18 -40q0 -24 -16 -43l-488 -602q-4 -5 -13 -16t-12.5 -15.5t-10 -13.5t-8.5 -15t-5.5 -15t-4.5 -19t-1 -22v-570q0 -26 -17.5 -43.5t-42.5 -17.5t-42 18t-17 43v570q0 17 -2 29.5 t-9.5 26t-11.5 19t-18 22t-18 21.5l-486 600q-16 19 -16 43zM463 1593q0 30 29 47l276 144q16 8 29 8q23 0 38 -15t15 -38q0 -35 -29 -49l-278 -144q-18 -6 -27 -6q-22 0 -37.5 15t-15.5 38z" />
<glyph unicode="&#xde;" horiz-adv-x="1314" d="M225 53v1338q0 26 17 43.5t43 17.5q24 0 41.5 -17.5t17.5 -43.5v-240h414q123 0 224 -50.5t162.5 -150t61.5 -231.5q0 -205 -128.5 -320.5t-336.5 -115.5h-397v-230q0 -26 -17 -43.5t-42 -17.5t-42.5 17.5t-17.5 43.5zM344 401h399q175 0 257.5 83.5t82.5 230.5 q0 145 -83 231t-246 86h-410v-631z" />
<glyph unicode="&#xdf;" horiz-adv-x="1329" d="M205 53v979q0 196 108.5 301t307.5 105q160 0 262 -82t102 -211q0 -51 -18.5 -95t-44.5 -74.5t-52 -58.5t-44.5 -61t-18.5 -68q0 -55 33 -86.5t121 -58.5q152 -50 225.5 -128.5t73.5 -197.5q0 -153 -112 -245t-282 -92t-323 116q-17 15 -20.5 41t9.5 45q15 21 40.5 25.5 t48.5 -10.5q8 -6 35 -26t36 -26t33.5 -19.5t42.5 -18t47 -9t62 -4.5q119 0 190.5 56.5t71.5 162.5q0 79 -45.5 121.5t-155.5 81.5q-140 51 -197 110.5t-57 168.5q0 49 18.5 91t45.5 71t54 56.5t45.5 61t18.5 70.5q0 86 -62.5 134t-178.5 48q-144 0 -222.5 -73t-78.5 -224 v-977q0 -25 -17.5 -43t-42.5 -18t-42 18t-17 43z" />
<glyph unicode="&#xe0;" horiz-adv-x="1155" d="M139 319q0 146 105.5 239t298.5 93q135 0 307 -47v88q0 141 -68 205t-211 64q-122 0 -262 -60q-38 -16 -64 0t-26 47q0 41 37 60q57 29 142.5 50t172.5 21q198 0 298 -88.5t100 -279.5v-561q0 -37 -27 -56q-54 -40 -164.5 -76t-245.5 -36q-189 0 -291 89.5t-102 247.5z M258 317q0 -105 72.5 -162t220.5 -57q79 0 164 25.5t135 62.5v301q-188 52 -299 52q-144 0 -218.5 -62t-74.5 -160zM395 1403q0 23 16 38t38 15q18 0 30 -8l275 -143q28 -14 28 -48q0 -23 -15 -38t-38 -15q-13 0 -29 8l-276 142q-29 17 -29 49z" />
<glyph unicode="&#xe1;" horiz-adv-x="1155" d="M139 319q0 146 105.5 239t298.5 93q135 0 307 -47v88q0 141 -68 205t-211 64q-122 0 -262 -60q-38 -16 -64 0t-26 47q0 41 37 60q57 29 142.5 50t172.5 21q198 0 298 -88.5t100 -279.5v-561q0 -37 -27 -56q-54 -40 -164.5 -76t-245.5 -36q-189 0 -291 89.5t-102 247.5z M258 317q0 -105 72.5 -162t220.5 -57q79 0 164 25.5t135 62.5v301q-188 52 -299 52q-144 0 -218.5 -62t-74.5 -160zM379 1257q0 31 29 48l276 143q16 8 29 8q23 0 38 -15t15 -38q0 -35 -29 -49l-278 -144q-18 -6 -27 -6q-22 0 -37.5 15t-15.5 38z" />
<glyph unicode="&#xe2;" horiz-adv-x="1155" d="M139 319q0 146 105.5 239t298.5 93q135 0 307 -47v88q0 141 -68 205t-211 64q-122 0 -262 -60q-38 -16 -64 0t-26 47q0 41 37 60q57 29 142.5 50t172.5 21q198 0 298 -88.5t100 -279.5v-561q0 -37 -27 -56q-54 -40 -164.5 -76t-245.5 -36q-189 0 -291 89.5t-102 247.5z M258 317q0 -105 72.5 -162t220.5 -57q79 0 164 25.5t135 62.5v301q-188 52 -299 52q-144 0 -218.5 -62t-74.5 -160zM326 1231q0 29 24 45l178 131q23 20 54 20q25 0 51 -20l180 -131q23 -15 23 -45q0 -23 -14.5 -38t-39.5 -15q-20 0 -34 12l-166 123l-166 -123 q-14 -12 -37 -12q-24 0 -38.5 15.5t-14.5 37.5z" />
<glyph unicode="&#xe3;" horiz-adv-x="1155" d="M139 319q0 146 105.5 239t298.5 93q135 0 307 -47v88q0 141 -68 205t-211 64q-122 0 -262 -60q-38 -16 -64 0t-26 47q0 41 37 60q57 29 142.5 50t172.5 21q198 0 298 -88.5t100 -279.5v-561q0 -37 -27 -56q-54 -40 -164.5 -76t-245.5 -36q-189 0 -291 89.5t-102 247.5z M258 317q0 -105 72.5 -162t220.5 -57q79 0 164 25.5t135 62.5v301q-188 52 -299 52q-144 0 -218.5 -62t-74.5 -160zM305 1288q0 29 25 47q72 62 141 62q41 0 81.5 -18.5t75.5 -37t62 -18.5q26 0 57.5 25.5t53.5 25.5q26 0 41.5 -15.5t15.5 -37.5q0 -27 -24 -47 q-72 -62 -144 -62q-39 0 -81 18.5t-77 37t-59 18.5q-26 0 -58.5 -25.5t-54.5 -25.5q-24 0 -39.5 15.5t-15.5 37.5z" />
<glyph unicode="&#xe4;" horiz-adv-x="1155" d="M139 319q0 146 105.5 239t298.5 93q135 0 307 -47v88q0 141 -68 205t-211 64q-122 0 -262 -60q-38 -16 -64 0t-26 47q0 41 37 60q57 29 142.5 50t172.5 21q198 0 298 -88.5t100 -279.5v-561q0 -37 -27 -56q-54 -40 -164.5 -76t-245.5 -36q-189 0 -291 89.5t-102 247.5z M258 317q0 -105 72.5 -162t220.5 -57q79 0 164 25.5t135 62.5v301q-188 52 -299 52q-144 0 -218.5 -62t-74.5 -160zM352 1307q0 31 22.5 53t53.5 22q32 0 54 -22t22 -53q0 -32 -22 -54t-54 -22q-31 0 -53.5 22t-22.5 54zM659 1307q0 31 22 53t54 22q31 0 53.5 -22t22.5 -53 q0 -32 -22.5 -54t-53.5 -22q-32 0 -54 22t-22 54z" />
<glyph unicode="&#xe5;" horiz-adv-x="1155" d="M139 319q0 146 105.5 239t298.5 93q135 0 307 -47v88q0 141 -68 205t-211 64q-122 0 -262 -60q-38 -16 -64 0t-26 47q0 41 37 60q57 29 142.5 50t172.5 21q198 0 298 -88.5t100 -279.5v-561q0 -37 -27 -56q-54 -40 -164.5 -76t-245.5 -36q-189 0 -291 89.5t-102 247.5z M258 317q0 -105 72.5 -162t220.5 -57q79 0 164 25.5t135 62.5v301q-188 52 -299 52q-144 0 -218.5 -62t-74.5 -160zM397 1341q0 75 54.5 130t130.5 55q75 0 129.5 -55t54.5 -130t-54.5 -129.5t-129.5 -54.5q-76 0 -130.5 54.5t-54.5 129.5zM487 1341q0 -38 27.5 -65 t67.5 -27q38 0 66 27t28 65q0 39 -28 67t-66 28q-40 0 -67.5 -27.5t-27.5 -67.5z" />
<glyph unicode="&#xe6;" horiz-adv-x="1150" d="M139 319q0 146 105.5 239t298.5 93q135 0 307 -47v88q0 141 -68 205t-211 64q-126 0 -262 -60q-38 -16 -64 0t-26 47q0 41 37 60q57 29 142.5 50t172.5 21q274 0 361 -174q130 174 364 174q195 0 310.5 -119.5t115.5 -308.5v-67q0 -51 -29 -80t-89 -29h-637v-41 q0 -160 91.5 -250t244.5 -90q108 0 262 56q40 14 66 -3.5t26 -46.5q0 -34 -35 -55q-47 -29 -132.5 -47t-184.5 -18q-224 0 -342 137q-62 -50 -180 -93.5t-251 -43.5q-189 0 -291 90.5t-102 248.5zM258 317q0 -106 73 -163.5t220 -57.5q186 0 346 121q-50 116 -47 270 q-188 52 -299 52q-144 0 -218.5 -62t-74.5 -160zM967 590h606q28 0 31 28q12 157 -75.5 252t-236.5 95q-163 0 -247 -100t-78 -275z" />
<glyph unicode="&#xe7;" horiz-adv-x="1138" d="M162 391q-7 142 0 287q9 180 133.5 290.5t316.5 110.5q79 0 147.5 -23t114 -57.5t78 -75.5t47.5 -77.5t15 -63.5q0 -30 -15.5 -46.5t-42.5 -16.5q-44 0 -63 55q-34 92 -112.5 141.5t-170.5 49.5q-140 0 -230.5 -80t-96.5 -207q-7 -200 0 -289q11 -131 99 -213t228 -82 q92 0 171.5 49.5t115.5 143.5q19 55 68 55q22 0 37.5 -16t15.5 -45q0 -33 -23 -78.5t-65.5 -93.5t-116.5 -84.5t-162 -42.5l-30 -84q73 -3 121.5 -50t48.5 -118q0 -45 -21.5 -84t-58.5 -67.5t-77.5 -49t-86.5 -35.5q-30 -11 -55 2.5t-25 48.5q0 42 43 54q93 29 126.5 61 t33.5 68q0 26 -16.5 44.5t-45.5 18.5q-16 0 -33.5 -4t-29.5 -4q-31 0 -46.5 24.5t-4.5 55.5l45 123q-164 20 -266 132.5t-111 272.5z" />
<glyph unicode="&#xe8;" horiz-adv-x="1175" d="M164 426q-6 112 2 238q13 193 134 304t308 111q196 0 312 -119.5t116 -308.5v-67q0 -51 -29 -80t-89 -29h-637v-41q0 -160 91 -250t244 -90q112 0 263 56q40 14 66 -3.5t26 -46.5q0 -34 -35 -55q-47 -29 -133 -47t-185 -18q-210 0 -326.5 120.5t-127.5 325.5zM281 590 h606q28 0 31 28q12 157 -75.5 252t-236.5 95q-163 0 -246.5 -99t-78.5 -276zM389 1403q0 23 15.5 38t37.5 15q19 0 31 -8l275 -143q28 -14 28 -48q0 -23 -15 -38t-38 -15q-13 0 -29 8l-276 142q-29 17 -29 49z" />
<glyph unicode="&#xe9;" horiz-adv-x="1175" d="M164 426q-6 112 2 238q13 193 134 304t308 111q196 0 312 -119.5t116 -308.5v-67q0 -51 -29 -80t-89 -29h-637v-41q0 -160 91 -250t244 -90q112 0 263 56q40 14 66 -3.5t26 -46.5q0 -34 -35 -55q-47 -29 -133 -47t-185 -18q-210 0 -326.5 120.5t-127.5 325.5zM281 590 h606q28 0 31 28q12 157 -75.5 252t-236.5 95q-163 0 -246.5 -99t-78.5 -276zM430 1257q0 31 29 48l276 143q16 8 29 8q23 0 38 -15t15 -38q0 -35 -29 -49l-278 -144q-18 -6 -27 -6q-22 0 -37.5 15t-15.5 38z" />
<glyph unicode="&#xea;" horiz-adv-x="1175" d="M164 426q-6 112 2 238q13 193 134 304t308 111q196 0 312 -119.5t116 -308.5v-67q0 -51 -29 -80t-89 -29h-637v-41q0 -160 91 -250t244 -90q112 0 263 56q40 14 66 -3.5t26 -46.5q0 -34 -35 -55q-47 -29 -133 -47t-185 -18q-210 0 -326.5 120.5t-127.5 325.5zM281 590 h606q28 0 31 28q12 157 -75.5 252t-236.5 95q-163 0 -246.5 -99t-78.5 -276zM330 1257q0 30 24 46l178 131q23 20 54 20q25 0 51 -20l180 -131q23 -15 23 -46q0 -23 -14.5 -38t-39.5 -15q-18 0 -34 13l-166 122l-166 -122q-16 -13 -37 -13q-24 0 -38.5 15.5t-14.5 37.5z" />
<glyph unicode="&#xeb;" horiz-adv-x="1175" d="M164 426q-6 112 2 238q13 193 134 304t308 111q196 0 312 -119.5t116 -308.5v-67q0 -51 -29 -80t-89 -29h-637v-41q0 -160 91 -250t244 -90q112 0 263 56q40 14 66 -3.5t26 -46.5q0 -34 -35 -55q-47 -29 -133 -47t-185 -18q-210 0 -326.5 120.5t-127.5 325.5zM281 590 h606q28 0 31 28q12 157 -75.5 252t-236.5 95q-163 0 -246.5 -99t-78.5 -276zM371 1307q0 31 22 53t53 22q32 0 54 -22t22 -53q0 -32 -22 -54t-54 -22q-31 0 -53 22t-22 54zM678 1307q0 31 22 53t54 22q31 0 53 -22t22 -53q0 -32 -22 -54t-53 -22q-32 0 -54 22t-22 54z" />
<glyph unicode="&#xec;" horiz-adv-x="546" d="M31 1403q0 23 15.5 38t37.5 15q19 0 31 -8l274 -143q29 -15 29 -48q0 -23 -15 -38t-38 -15q-13 0 -29 8l-277 142q-28 16 -28 49zM217 53v951q0 26 16.5 43.5t42.5 17.5q24 0 42 -17.5t18 -43.5v-951q0 -25 -17.5 -43t-42.5 -18t-42 18t-17 43z" />
<glyph unicode="&#xed;" horiz-adv-x="546" d="M139 1257q0 31 29 48l276 143q16 8 29 8q23 0 38 -15t15 -38q0 -35 -28 -49l-279 -144q-18 -6 -26 -6q-22 0 -38 15t-16 38zM217 53v951q0 26 16.5 43.5t42.5 17.5q24 0 42 -17.5t18 -43.5v-951q0 -25 -17.5 -43t-42.5 -18t-42 18t-17 43z" />
<glyph unicode="&#xee;" horiz-adv-x="546" d="M29 1257q0 30 24 46l178 131q23 20 54 20q25 0 51 -20l180 -131q23 -15 23 -46q0 -23 -14.5 -38t-39.5 -15q-18 0 -34 13l-166 122l-166 -122q-16 -13 -37 -13q-24 0 -38.5 15.5t-14.5 37.5zM217 53v951q0 26 16.5 43.5t42.5 17.5q24 0 42 -17.5t18 -43.5v-951 q0 -25 -17.5 -43t-42.5 -18t-42 18t-17 43z" />
<glyph unicode="&#xef;" horiz-adv-x="546" d="M55 1307q0 31 22.5 53t53.5 22q32 0 54 -22t22 -53q0 -32 -22 -54t-54 -22q-31 0 -53.5 22t-22.5 54zM217 53v951q0 26 16.5 43.5t42.5 17.5q24 0 42 -17.5t18 -43.5v-951q0 -25 -17.5 -43t-42.5 -18t-42 18t-17 43zM362 1307q0 31 22 53t54 22q31 0 53.5 -22t22.5 -53 q0 -32 -22.5 -54t-53.5 -22q-32 0 -54 22t-22 54z" />
<glyph unicode="&#xf0;" horiz-adv-x="1212" d="M162 377q-6 124 0 248q12 173 131.5 280t298.5 107q181 0 301 -123q0 189 -107 307l-147 -70q-25 -10 -47 -2t-33 31q-9 22 0 43t33 33l100 47q-55 35 -80 49q-29 16 -36.5 41.5t6.5 44.5q10 21 35 27.5t55 -10.5q68 -40 139 -97l129 62q21 11 45.5 4t34.5 -31 q9 -22 -0.5 -45t-32.5 -33l-90 -43q123 -152 123 -428v-416q0 -188 -124 -305.5t-306 -117.5q-177 0 -296.5 112.5t-131.5 284.5zM283 379q9 -125 94 -205t213 -80q129 0 211.5 79.5t93.5 205.5q8 95 0 242q-8 122 -90 199t-215 77q-132 0 -215.5 -77t-91.5 -199 q-8 -147 0 -242z" />
<glyph unicode="&#xf1;" horiz-adv-x="1259" d="M207 53v854q0 42 29 62q55 41 162 75.5t249 34.5q207 0 314.5 -107t107.5 -304v-615q0 -27 -16 -44t-43 -17q-25 0 -42.5 17.5t-17.5 43.5v611q0 149 -85.5 225t-221.5 76q-95 0 -180.5 -24t-136.5 -56v-832q0 -26 -17 -43.5t-43 -17.5q-25 0 -42 17.5t-17 43.5z M352 1288q0 29 25 47q72 62 141 62q41 0 81.5 -18.5t75.5 -37t62 -18.5q26 0 57.5 25.5t53.5 25.5q26 0 41.5 -15.5t15.5 -37.5q0 -27 -24 -47q-72 -62 -144 -62q-39 0 -81 18.5t-77 37t-59 18.5q-26 0 -58 -25.5t-54 -25.5q-24 0 -40 15.5t-16 37.5z" />
<glyph unicode="&#xf2;" horiz-adv-x="1212" d="M162 391q-7 142 0 285q9 179 133 291t311 112q186 0 310 -112t133 -291q7 -142 0 -285q-9 -178 -134 -294.5t-309 -116.5q-185 0 -310 116.5t-134 294.5zM283 389q12 -133 99.5 -214t223.5 -81q135 0 222.5 81t99.5 214q9 113 0 287q-8 128 -95.5 208.5t-226.5 80.5 t-227 -80.5t-96 -208.5q-9 -174 0 -287zM420 1403q0 23 15.5 38t37.5 15q19 0 31 -8l274 -143q29 -15 29 -48q0 -23 -15 -38t-38 -15q-13 0 -29 8l-276 142q-29 17 -29 49z" />
<glyph unicode="&#xf3;" horiz-adv-x="1212" d="M162 391q-7 142 0 285q9 179 133 291t311 112q186 0 310 -112t133 -291q7 -142 0 -285q-9 -178 -134 -294.5t-309 -116.5q-185 0 -310 116.5t-134 294.5zM283 389q12 -133 99.5 -214t223.5 -81q135 0 222.5 81t99.5 214q9 113 0 287q-8 128 -95.5 208.5t-226.5 80.5 t-227 -80.5t-96 -208.5q-9 -174 0 -287zM406 1257q0 32 28 48l277 143q16 8 28 8q23 0 38.5 -15t15.5 -38q0 -35 -29 -49l-279 -144q-18 -6 -26 -6q-22 0 -37.5 15t-15.5 38z" />
<glyph unicode="&#xf4;" horiz-adv-x="1212" d="M162 391q-7 142 0 285q9 179 133 291t311 112q186 0 310 -112t133 -291q7 -142 0 -285q-9 -178 -134 -294.5t-309 -116.5q-185 0 -310 116.5t-134 294.5zM283 389q12 -133 99.5 -214t223.5 -81q135 0 222.5 81t99.5 214q9 113 0 287q-8 128 -95.5 208.5t-226.5 80.5 t-227 -80.5t-96 -208.5q-9 -174 0 -287zM350 1255q0 28 25 45l178 132q23 20 53 20q25 0 51 -20l181 -132q22 -15 22 -45q0 -23 -14 -38t-39 -15q-21 0 -35 12l-166 123l-166 -123q-14 -12 -37 -12q-24 0 -38.5 15.5t-14.5 37.5z" />
<glyph unicode="&#xf5;" horiz-adv-x="1212" d="M162 391q-7 142 0 285q9 179 133 291t311 112q186 0 310 -112t133 -291q7 -142 0 -285q-9 -178 -134 -294.5t-309 -116.5q-185 0 -310 116.5t-134 294.5zM283 389q12 -133 99.5 -214t223.5 -81q135 0 222.5 81t99.5 214q9 113 0 287q-8 128 -95.5 208.5t-226.5 80.5 t-227 -80.5t-96 -208.5q-9 -174 0 -287zM330 1288q0 30 24 47q72 62 142 62q41 0 81.5 -18.5t75.5 -37t62 -18.5q26 0 57 25.5t53 25.5q26 0 42 -15.5t16 -37.5q0 -26 -25 -47q-72 -62 -143 -62q-39 0 -81 18.5t-77 37t-59 18.5q-26 0 -58.5 -25.5t-54.5 -25.5 q-24 0 -39.5 15.5t-15.5 37.5z" />
<glyph unicode="&#xf6;" horiz-adv-x="1212" d="M162 391q-7 142 0 285q9 179 133 291t311 112q186 0 310 -112t133 -291q7 -142 0 -285q-9 -178 -134 -294.5t-309 -116.5q-185 0 -310 116.5t-134 294.5zM283 389q12 -133 99.5 -214t223.5 -81q135 0 222.5 81t99.5 214q9 113 0 287q-8 128 -95.5 208.5t-226.5 80.5 t-227 -80.5t-96 -208.5q-9 -174 0 -287zM377 1307q0 31 22.5 53t53.5 22q32 0 53.5 -22t21.5 -53q0 -32 -21.5 -54t-53.5 -22q-31 0 -53.5 22t-22.5 54zM684 1307q0 31 22 53t54 22q31 0 53.5 -22t22.5 -53q0 -32 -22.5 -54t-53.5 -22q-32 0 -54 22t-22 54z" />
<glyph unicode="&#xf7;" horiz-adv-x="1286" d="M123 717q0 26 18 42.5t45 16.5h914q27 0 45 -16.5t18 -42.5q0 -24 -19 -42t-44 -18h-914q-26 0 -44.5 17.5t-18.5 42.5zM555 356q0 35 26.5 61.5t61.5 26.5q36 0 62 -26t26 -62q0 -37 -25.5 -63.5t-62.5 -26.5q-35 0 -61.5 26.5t-26.5 63.5zM555 1079q0 36 26 62t62 26 q37 0 62.5 -25.5t25.5 -62.5q0 -36 -26 -62t-62 -26q-35 0 -61.5 26.5t-26.5 61.5z" />
<glyph unicode="&#xf8;" horiz-adv-x="1210" d="M136.5 56.5q-1.5 25.5 17.5 45.5l69 80q-57 94 -63 209q-7 142 0 285q9 179 133 291t311 112q179 0 301 -106l62 71q16 20 40 24t48 -15q19 -21 18 -44t-16 -42l-74 -84q58 -93 64 -207q7 -142 0 -285q-9 -178 -134 -294.5t-309 -116.5q-182 0 -305 110l-57 -67 q-16 -18 -39.5 -21.5t-44.5 12.5q-20 17 -21.5 42.5zM281 389q6 -62 26 -108l522 604q-86 80 -225 80t-227 -80.5t-96 -208.5q-9 -174 0 -287zM377 178q87 -84 227 -84q135 0 222.5 81t99.5 214q9 113 0 287q-3 50 -27 108z" />
<glyph unicode="&#xf9;" horiz-adv-x="1259" d="M188 387v617q0 26 18 43.5t44 17.5q24 0 40.5 -17.5t16.5 -43.5v-623q0 -133 81.5 -210t227.5 -77q177 0 316 88v822q0 26 16.5 43.5t42.5 17.5q25 0 42.5 -17.5t17.5 -43.5v-846q0 -40 -27 -56q-173 -122 -408 -122q-190 0 -309 108.5t-119 298.5zM444 1403q0 23 16 38 t38 15q18 0 30 -8l275 -143q28 -14 28 -48q0 -23 -15 -38t-38 -15q-12 0 -28 8l-277 142q-29 17 -29 49z" />
<glyph unicode="&#xfa;" horiz-adv-x="1259" d="M188 387v617q0 26 18 43.5t44 17.5q24 0 40.5 -17.5t16.5 -43.5v-623q0 -133 81.5 -210t227.5 -77q177 0 316 88v822q0 26 16.5 43.5t42.5 17.5q25 0 42.5 -17.5t17.5 -43.5v-846q0 -40 -27 -56q-173 -122 -408 -122q-190 0 -309 108.5t-119 298.5zM426 1257q0 31 29 48 l276 143q16 8 29 8q23 0 38 -15t15 -38q0 -35 -29 -49l-278 -144q-18 -6 -27 -6q-22 0 -37.5 15t-15.5 38z" />
<glyph unicode="&#xfb;" horiz-adv-x="1259" d="M188 387v617q0 26 18 43.5t44 17.5q24 0 40.5 -17.5t16.5 -43.5v-623q0 -133 81.5 -210t227.5 -77q177 0 316 88v822q0 26 16.5 43.5t42.5 17.5q25 0 42.5 -17.5t17.5 -43.5v-846q0 -40 -27 -56q-173 -122 -408 -122q-190 0 -309 108.5t-119 298.5zM377 1257q0 30 24 46 l179 131q23 20 53 20q25 0 51 -20l180 -131q23 -15 23 -46q0 -23 -14 -38t-39 -15q-19 0 -35 13l-166 122l-166 -122q-16 -13 -37 -13q-24 0 -38.5 15.5t-14.5 37.5z" />
<glyph unicode="&#xfc;" horiz-adv-x="1259" d="M188 387v617q0 26 18 43.5t44 17.5q24 0 40.5 -17.5t16.5 -43.5v-623q0 -133 81.5 -210t227.5 -77q177 0 316 88v822q0 26 16.5 43.5t42.5 17.5q25 0 42.5 -17.5t17.5 -43.5v-846q0 -40 -27 -56q-173 -122 -408 -122q-190 0 -309 108.5t-119 298.5zM401 1307 q0 31 22.5 53t53.5 22q32 0 54 -22t22 -53q0 -32 -22 -54t-54 -22q-31 0 -53.5 22t-22.5 54zM709 1307q0 31 21.5 53t53.5 22q31 0 53.5 -22t22.5 -53q0 -32 -22.5 -54t-53.5 -22q-32 0 -53.5 22t-21.5 54z" />
<glyph unicode="&#xfd;" horiz-adv-x="1028" d="M59 977q-13 32 3.5 60t48.5 28q43 0 59 -39l350 -795q4 -8 8 -8q5 0 9 8l317 787q19 47 61 47q35 0 50.5 -28.5t1.5 -61.5l-387 -948q-54 -135 -134 -242.5t-155 -151.5q-31 -16 -62 -16q-24 0 -40.5 15.5t-16.5 41.5q0 39 39 58q154 75 254 331zM414 1260q0 31 28 47 l277 143q16 8 29 8q23 0 38 -15t15 -38q0 -35 -29 -49l-278 -144q-18 -6 -27 -6q-22 0 -37.5 15.5t-15.5 38.5z" />
<glyph unicode="&#xfe;" horiz-adv-x="1230" d="M205 -328v1714q0 27 16.5 45.5t42.5 18.5q25 0 42.5 -19t17.5 -45v-380q167 73 323 73q189 0 296 -103t122 -296q11 -142 0 -299q-15 -193 -130 -297t-317 -104q-135 0 -294 71v-379q0 -26 -17.5 -43.5t-42.5 -17.5t-42 17.5t-17 43.5zM324 178q45 -30 130 -57t171 -27 q154 0 232 72t89 215q10 164 0 293q-27 291 -309 291q-81 0 -176 -30.5t-137 -62.5v-694z" />
<glyph unicode="&#xff;" horiz-adv-x="1028" d="M59 977q-13 32 3.5 60t48.5 28q43 0 59 -39l350 -795q4 -8 8 -8q5 0 9 8l317 787q19 47 61 47q35 0 50.5 -28.5t1.5 -61.5l-387 -948q-54 -135 -134 -242.5t-155 -151.5q-31 -16 -62 -16q-24 0 -40.5 15.5t-16.5 41.5q0 39 39 58q154 75 254 331zM299 1307q0 31 22.5 53 t53.5 22q32 0 54 -22t22 -53q0 -32 -22 -54t-54 -22q-31 0 -53.5 22t-22.5 54zM606 1307q0 31 22 53t54 22q31 0 53.5 -22t22.5 -53q0 -32 -22.5 -54t-53.5 -22q-32 0 -54 22t-22 54z" />
<glyph unicode="&#x152;" horiz-adv-x="2168" d="M154 596q-6 112 0 225q5 134 49 247.5t122.5 199t199.5 134t272 48.5q97 0 233.5 -9t183.5 -9h740q26 0 43.5 -17t17.5 -43q0 -25 -18 -42t-43 -17h-729v-533h712q28 0 46 -15.5t18 -41.5t-18.5 -43.5t-45.5 -17.5h-712v-541h733q25 0 43 -17.5t18 -42.5 q0 -26 -17.5 -43.5t-43.5 -17.5h-803q-11 0 -132.5 -9t-227.5 -9q-151 0 -271 46t-198.5 129t-122 194t-49.5 245zM272 590q14 -227 145.5 -358.5t379.5 -131.5q179 0 309 19v1194q-136 18 -309 18q-125 0 -223 -38t-161.5 -106t-98.5 -159t-42 -201q-6 -120 0 -237z" />
<glyph unicode="&#x153;" horiz-adv-x="1943" d="M162 391q-7 142 0 287q10 179 133.5 290t310.5 111q127 0 228 -56t159 -153q124 209 381 209q198 0 314 -119.5t116 -308.5v-67q0 -51 -29 -80t-89 -29h-635v-41q0 -161 90.5 -250.5t242.5 -89.5q109 0 263 56q40 14 66 -3.5t26 -46.5q0 -34 -35 -55q-46 -29 -134 -47 t-184 -18q-276 0 -393 210q-62 -97 -160 -153.5t-227 -56.5q-185 0 -309 116t-135 295zM283 389q12 -133 99.5 -214t223.5 -81t222.5 81t97.5 214q10 95 0 289q-8 128 -94.5 207.5t-225.5 79.5t-227 -80.5t-96 -208.5q-9 -174 0 -287zM1051 590h604q28 0 31 28 q12 157 -75.5 252t-236.5 95q-164 0 -246.5 -99t-76.5 -276z" />
<glyph unicode="&#x178;" horiz-adv-x="1312" d="M37 1384q0 23 18 40.5t41 17.5q27 0 47 -23l514 -639l512 639q20 23 48 23q23 0 41 -18t18 -40q0 -24 -16 -43l-488 -602q-4 -5 -13 -16t-12.5 -15.5t-10 -13.5t-8.5 -15t-5.5 -15t-4.5 -19t-1 -22v-570q0 -26 -17.5 -43.5t-42.5 -17.5t-42 18t-17 43v570q0 17 -2 29.5 t-9.5 26t-11.5 19t-18 22t-18 21.5l-486 600q-16 19 -16 43zM428 1534q0 31 22.5 53.5t53.5 22.5q32 0 54 -22.5t22 -53.5q0 -32 -22 -54t-54 -22q-31 0 -53.5 22t-22.5 54zM735 1534q0 31 22 53.5t54 22.5q31 0 53.5 -22.5t22.5 -53.5q0 -32 -22.5 -54t-53.5 -22 q-32 0 -54 22t-22 54z" />
<glyph unicode="&#x2c6;" horiz-adv-x="696" d="M90 1589q0 28 25 45l178 131q24 21 53 21q24 0 51 -21l181 -131q22 -15 22 -45q0 -23 -14 -38t-39 -15q-21 0 -35 12l-166 123l-166 -123q-14 -12 -37 -12q-24 0 -38.5 15.5t-14.5 37.5z" />
<glyph unicode="&#x2dc;" horiz-adv-x="696" d="M78 1612q0 30 24 47q71 61 142 61q41 0 81.5 -18t75.5 -36.5t62 -18.5q26 0 57 25.5t53 25.5q26 0 42 -15.5t16 -37.5q0 -27 -25 -48q-71 -61 -143 -61q-39 0 -81 18.5t-77 37t-59 18.5q-26 0 -58.5 -25.5t-54.5 -25.5q-24 0 -39.5 15.5t-15.5 37.5z" />
<glyph unicode="&#x2000;" horiz-adv-x="953" />
<glyph unicode="&#x2001;" horiz-adv-x="1907" />
<glyph unicode="&#x2002;" horiz-adv-x="953" />
<glyph unicode="&#x2003;" horiz-adv-x="1907" />
<glyph unicode="&#x2004;" horiz-adv-x="635" />
<glyph unicode="&#x2005;" horiz-adv-x="476" />
<glyph unicode="&#x2006;" horiz-adv-x="317" />
<glyph unicode="&#x2007;" horiz-adv-x="317" />
<glyph unicode="&#x2008;" horiz-adv-x="238" />
<glyph unicode="&#x2009;" horiz-adv-x="381" />
<glyph unicode="&#x200a;" horiz-adv-x="105" />
<glyph unicode="&#x2010;" horiz-adv-x="706" d="M121 588q0 26 17 41.5t44 15.5h342q27 0 44.5 -15.5t17.5 -41.5t-18 -43t-44 -17h-342q-26 0 -43.5 17.5t-17.5 42.5z" />
<glyph unicode="&#x2011;" horiz-adv-x="706" d="M121 588q0 26 17 41.5t44 15.5h342q27 0 44.5 -15.5t17.5 -41.5t-18 -43t-44 -17h-342q-26 0 -43.5 17.5t-17.5 42.5z" />
<glyph unicode="&#x2012;" horiz-adv-x="706" d="M121 588q0 26 17 41.5t44 15.5h342q27 0 44.5 -15.5t17.5 -41.5t-18 -43t-44 -17h-342q-26 0 -43.5 17.5t-17.5 42.5z" />
<glyph unicode="&#x2013;" horiz-adv-x="1234" d="M117 586q0 26 17.5 42.5t43.5 16.5h879q26 0 43.5 -16.5t17.5 -42.5q0 -25 -17.5 -42.5t-43.5 -17.5h-879q-26 0 -43.5 17.5t-17.5 42.5z" />
<glyph unicode="&#x2014;" horiz-adv-x="1980" d="M117 586q0 26 17.5 42.5t43.5 16.5h1624q27 0 45.5 -16.5t18.5 -42.5q0 -24 -19.5 -42t-44.5 -18h-1624q-26 0 -43.5 17.5t-17.5 42.5z" />
<glyph unicode="&#x2018;" horiz-adv-x="421" d="M133 1104v74q0 124 55 215q22 39 60 39q26 0 44.5 -17.5t18.5 -44.5q0 -17 -13.5 -39.5t-27.5 -60.5t-14 -92v-74q0 -28 -17 -48t-42 -20q-27 0 -45.5 20t-18.5 48z" />
<glyph unicode="&#x2019;" horiz-adv-x="421" d="M127 1110q0 17 13.5 40t27.5 61t14 92v73q0 28 17.5 48t42.5 20q27 0 45 -20t18 -48v-73q0 -125 -55 -216q-21 -38 -60 -38q-26 0 -44.5 17t-18.5 44z" />
<glyph unicode="&#x201a;" horiz-adv-x="421" d="M92 -123q0 17 13 40t26.5 61t13.5 92v75q0 26 19 46t45 20t43.5 -19.5t17.5 -46.5v-75q0 -123 -53 -215q-22 -39 -59 -39q-27 0 -46.5 17t-19.5 44z" />
<glyph unicode="&#x201c;" horiz-adv-x="663" d="M129 1104v74q0 123 53 215q22 39 62 39q26 0 44.5 -17.5t18.5 -44.5q0 -15 -8.5 -32.5t-18 -34t-18 -50t-8.5 -75.5v-74q0 -28 -19 -48t-45 -20t-43.5 20t-17.5 48zM379 1104v74q0 124 55 215q22 39 60 39q26 0 44.5 -17.5t18.5 -44.5q0 -15 -8.5 -32.5t-18 -34t-18 -50 t-8.5 -75.5v-74q0 -28 -18.5 -48t-43.5 -20q-27 0 -45 20t-18 48z" />
<glyph unicode="&#x201d;" horiz-adv-x="663" d="M123 1110q0 15 8.5 32.5t18 34t18 50.5t8.5 76v73q0 28 18.5 48t43.5 20q27 0 45 -20t18 -48v-73q0 -125 -55 -216q-21 -38 -60 -38q-27 0 -45 17t-18 44zM373 1110q0 15 8.5 32.5t18 34t18 50.5t8.5 76v73q0 28 18 48t43 20q27 0 45.5 -20t18.5 -48v-73q0 -125 -55 -216 q-21 -38 -60 -38q-26 0 -44.5 17t-18.5 44z" />
<glyph unicode="&#x201e;" horiz-adv-x="663" d="M123 -123q0 15 8.5 33t18 34t18 50t8.5 76v75q0 26 18.5 46t43.5 20q27 0 45 -19.5t18 -46.5v-75q0 -124 -55 -215q-22 -39 -60 -39q-26 0 -44.5 17t-18.5 44zM373 -123q0 15 8.5 33t18 34t18 50t8.5 76v75q0 26 18 46t43 20q27 0 45.5 -19.5t18.5 -46.5v-75 q0 -124 -55 -215q-22 -39 -60 -39q-26 0 -44.5 17t-18.5 44z" />
<glyph unicode="&#x2022;" horiz-adv-x="966" d="M225 717q0 106 76 182t182 76t182 -76t76 -182t-76 -182t-182 -76t-182 76t-76 182z" />
<glyph unicode="&#x2026;" horiz-adv-x="1273" d="M143 51v111q0 29 19.5 49t48.5 20t48.5 -20t19.5 -49v-111q0 -30 -19 -49.5t-49 -19.5q-28 0 -48 20t-20 49zM571 51v111q0 29 19.5 49t48.5 20t48.5 -20t19.5 -49v-111q0 -30 -19 -49.5t-49 -19.5q-28 0 -48 20t-20 49zM995 51v111q0 29 19.5 49t48.5 20t48 -20t19 -49 v-111q0 -30 -18.5 -49.5t-48.5 -19.5q-28 0 -48 20t-20 49z" />
<glyph unicode="&#x202f;" horiz-adv-x="381" />
<glyph unicode="&#x2039;" horiz-adv-x="731" d="M104 715q0 64 89 141l243 201q22 18 47 15.5t43 -23.5q17 -22 14.5 -47.5t-22.5 -40.5l-272 -218q-19 -14 -19 -28q0 -15 19 -29l272 -219q20 -17 22.5 -42.5t-14.5 -47.5q-17 -20 -42.5 -22.5t-47.5 14.5l-243 204q-89 74 -89 142z" />
<glyph unicode="&#x203a;" horiz-adv-x="731" d="M189 423.5q3 25.5 24 43.5l272 219q19 14 19 29q0 14 -19 28l-272 218q-21 15 -24 41.5t14 46.5q17 22 43.5 24.5t46.5 -16.5l246 -201q88 -76 88 -141q0 -69 -88 -142l-246 -204q-20 -17 -46.5 -14.5t-43.5 22.5q-17 21 -14 46.5z" />
<glyph unicode="&#x205f;" horiz-adv-x="476" />
<glyph unicode="&#x20ac;" horiz-adv-x="1335" d="M113 604q0 25 17.5 41.5t43.5 16.5h107v112h-107q-26 0 -43.5 16t-17.5 39q0 26 17.5 43t43.5 17h111q7 121 45 222.5t103 177.5t163 118.5t217 42.5q265 0 416 -160q18 -18 18 -43t-17 -42t-42 -17q-23 0 -49 26q-73 65 -144 91t-182 26q-189 0 -292 -119.5t-115 -322.5 h423q24 0 42 -17t18 -43q0 -23 -18 -39t-42 -16h-430v-112h430q24 0 42 -17t18 -41q0 -23 -18 -40t-42 -17h-423q13 -206 115.5 -327.5t291.5 -121.5q112 0 182.5 26t143.5 93q25 25 49 25q25 0 42 -17t17 -43q0 -22 -18 -43q-153 -159 -416 -159q-119 0 -217 43.5 t-163.5 120.5t-103.5 180t-44 223h-111q-26 0 -43.5 16.5t-17.5 40.5z" />
<glyph unicode="&#x2122;" horiz-adv-x="1247" d="M125 1382q0 12 9.5 21.5t21.5 9.5h342q13 0 22.5 -9.5t9.5 -21.5q0 -13 -9 -21.5t-23 -8.5h-138v-394q0 -13 -9.5 -22.5t-20.5 -9.5q-13 0 -23 10t-10 22v394h-141q-12 0 -21.5 8.5t-9.5 21.5zM535 965l67 401q12 53 60 53q45 0 57 -47l102 -389l103 389q14 47 53 47 q50 0 59 -53l70 -399q3 -14 -4 -27t-21 -16q-15 -3 -25 5.5t-12 22.5l-65 402l-100 -375q-13 -53 -58 -53q-44 0 -59 53l-100 373l-66 -402q-4 -32 -39 -26q-13 3 -19 15t-3 26z" />
<glyph unicode="&#xe000;" horiz-adv-x="1064" d="M0 0v1065h1065v-1065h-1065z" />
<glyph unicode="&#xfb02;" horiz-adv-x="1302" d="M90 979q0 26 17.5 42.5t44.5 16.5h79v111q0 141 77.5 227t228.5 86q111 0 178 -24q39 -14 39 -56q0 -22 -15 -37.5t-43 -15.5q-12 0 -62 9.5t-106 9.5q-178 0 -178 -213v-97h309q24 0 42 -17t18 -42q0 -23 -18 -39t-42 -16h-309v-871q0 -26 -16.5 -43.5t-42.5 -17.5 q-24 0 -42 17.5t-18 43.5v871h-79q-26 0 -44 16t-18 39zM979 53v1333q0 27 16.5 45.5t42.5 18.5q25 0 42.5 -19t17.5 -45v-1333q0 -25 -17.5 -43t-42.5 -18t-42 18t-17 43z" />
</font>
</defs>
</svg>
