<?xml version="1.0" encoding="utf-8"?>
<!-- Generator: Adobe Illustrator 15.0.2, SVG Export Plug-In . SVG Version: 6.00 Build 0)  -->
<!DOCTYPE svg PUBLIC "-//W3C//DTD SVG 1.1//EN" "http://www.w3.org/Graphics/SVG/1.1/DTD/svg11.dtd">
<svg version="1.1" id="Layer_1" xmlns="http://www.w3.org/2000/svg" xmlns:xlink="http://www.w3.org/1999/xlink" x="0px" y="0px"
	 width="9.899px" height="9.899px" viewBox="8.55 8.55 9.899 9.899" enable-background="new 8.55 8.55 9.899 9.899"
	 xml:space="preserve">
<g id="Layer_1_1_" display="none">
	<path display="inline" fill="#231F20" d="M17.5,11.5l-4,4l-4-4H17.5z"/>
</g>
<g id="Layer_2" display="none">
	<path display="inline" fill="#231F20" d="M20.844,19.334l-3.521-3.521c0.838-1.088,1.338-2.446,1.338-3.922
		c0-3.552-2.892-6.442-6.442-6.442c-3.553,0-6.442,2.891-6.442,6.442s2.89,6.443,6.442,6.443c1.135,0,2.201-0.296,3.128-0.812
		l3.655,3.654c0.509,0.51,1.332,0.51,1.84,0C21.352,20.665,21.352,19.842,20.844,19.334z M7.386,11.888
		c0-2.664,2.167-4.832,4.832-4.832c2.665,0,4.831,2.168,4.831,4.832c0,2.665-2.166,4.832-4.831,4.832
		C9.553,16.72,7.386,14.553,7.386,11.888z"/>
</g>
<g id="Layer_3" display="none">
	<path display="inline" fill="#231F20" d="M18.637,7.47H8.359c-0.49,0-0.89,0.389-0.89,0.869V18.66c0,0.48,0.399,0.87,0.89,0.87
		h10.278c0.491,0,0.893-0.39,0.893-0.87V8.339C19.529,7.859,19.129,7.47,18.637,7.47z M11.047,17.746h-1.79v-5.754h1.79V17.746z
		 M10.152,11.205c-0.573,0-1.037-0.464-1.037-1.037s0.464-1.039,1.037-1.039c0.572,0,1.036,0.466,1.036,1.039
		S10.725,11.205,10.152,11.205z M17.746,17.746h-1.787v-2.799c0-0.667-0.014-1.526-0.93-1.526c-0.932,0-1.072,0.728-1.072,1.478
		v2.849h-1.789v-5.754h1.717v0.786h0.024c0.237-0.453,0.821-0.93,1.692-0.93c1.811,0,2.145,1.192,2.145,2.742V17.746z"/>
</g>
<g id="Layer_6" display="none">
	<path display="inline" fill="#231F20" d="M18.09,11.146c0.004,0.102,0.006,0.204,0.006,0.306c0,3.13-2.381,6.739-6.737,6.739
		c-1.337,0-2.583-0.395-3.63-1.064c0.185,0.021,0.373,0.032,0.564,0.032c1.109,0,2.13-0.379,2.94-1.015
		c-1.036-0.019-1.911-0.703-2.212-1.645c0.145,0.025,0.293,0.042,0.445,0.042c0.217,0,0.426-0.026,0.624-0.083
		c-1.084-0.219-1.898-1.174-1.898-2.322c0-0.009,0-0.018,0-0.029c0.318,0.178,0.683,0.282,1.072,0.296
		c-0.637-0.424-1.054-1.148-1.054-1.97c0-0.434,0.116-0.843,0.32-1.189c1.168,1.432,2.913,2.374,4.881,2.473
		c-0.041-0.173-0.061-0.353-0.061-0.54c0-1.307,1.061-2.369,2.369-2.369c0.68,0,1.297,0.29,1.729,0.75
		c0.536-0.105,1.045-0.305,1.504-0.576c-0.179,0.553-0.556,1.019-1.041,1.312c0.479-0.059,0.935-0.187,1.358-0.374
		C18.953,10.395,18.553,10.812,18.09,11.146z"/>
</g>
<g id="Layer_5" display="none">
	<path display="inline" fill="#231F20" d="M14.857,9.86h1.809V7.62h-1.809c-1.5,0-2.714,1.318-2.714,2.938v1.134h-1.81v2.246h1.81
		v5.425l2.259,0.017v-5.441h2.264v-2.246h-2.264v-1.154C14.402,10.15,14.643,9.86,14.857,9.86z"/>
</g>
<g id="Layer_4" display="none">
	<g display="inline">
		<g>
			<path fill="#231F20" d="M17.328,15.115C16.289,15.979,14.955,16.5,13.5,16.5s-2.789-0.521-3.828-1.385
				C7.187,15.963,5.5,17.605,5.5,19.5v1c0,0.553,0.448,1,1,1h14c0.552,0,1-0.447,1-1v-1C21.5,17.605,19.812,15.963,17.328,15.115z
				 M13.5,14.5c2.209,0,4-1.791,4-4v-1c0-2.209-1.791-4-4-4s-4,1.791-4,4v1C9.5,12.709,11.291,14.5,13.5,14.5z"/>
		</g>
	</g>
</g>
<g id="Layer_7" display="none">
	<path display="inline" fill="#231F20" d="M25.391,3.251v9.042c0,2.725-0.469,5.025-1.406,6.9s-2.791,3.395-5.561,4.555
		l-2.145-3.885c1.742-0.85,2.904-1.775,3.484-2.779c0.579-1.004,0.869-2.357,0.869-4.053h-4.822v-9.78H25.391z M11.256,3.251v9.042
		c0,2.725-0.49,5.025-1.474,6.9c-0.982,1.875-2.857,3.395-5.627,4.555L2.01,19.863c1.742-0.85,2.904-1.775,3.484-2.779
		c0.581-1.004,0.871-2.357,0.871-4.053H1.609v-9.78H11.256z"/>
</g>
<g id="Layer_8" display="none">
	<path display="inline" fill="#231F20" d="M1.609,23.749v-9.043c0-2.724,0.469-5.024,1.407-6.899c0.938-1.876,2.79-3.395,5.56-4.556
		l2.144,3.886C8.979,7.985,7.816,8.912,7.236,9.916c-0.581,1.005-0.871,2.357-0.871,4.053h4.823v9.78H1.609z M15.744,23.749v-9.043
		c0-2.724,0.49-5.024,1.473-6.899c0.982-1.876,2.858-3.395,5.629-4.556l2.143,3.886c-1.739,0.849-2.901,1.775-3.481,2.779
		c-0.581,1.005-0.87,2.357-0.87,4.053h4.758v9.78H15.744z"/>
</g>
<g id="Layer_10" display="none">
	<g display="inline">
		<g>
			<path fill="#231F20" d="M14.447,15.029c-0.232,0.234-0.604,0.391-0.998,0.391c-0.394,0-0.767-0.154-1.045-0.436L5.999,9.86v9.027
				h15.002v-9.18L14.447,15.029z M13.62,13.57l6.717-5.458H6.47l6.756,5.412C13.358,13.65,13.54,13.651,13.62,13.57z"/>
		</g>
	</g>
</g>
<g id="Layer_9" display="none">
	<path display="inline" fill="#231F20" d="M16.176,4.222c-0.486-0.486-1.273-0.486-1.76,0c-0.486,0.485-0.486,1.273,0,1.759
		l6.273,6.275H2.79c-0.687,0-1.244,0.557-1.244,1.244c0,0.688,0.557,1.244,1.244,1.244h17.899l-6.273,6.275
		c-0.486,0.483-0.486,1.271,0,1.758c0.243,0.244,0.562,0.365,0.88,0.365s0.638-0.121,0.88-0.365l9.278-9.277L16.176,4.222z"/>
</g>
<g id="Layer_11" display="none">
	<path display="inline" fill="#231F20" d="M21.396,15.777c0.412-0.413,0.412-1.084,0-1.497c-0.414-0.414-1.086-0.414-1.498,0
		l-5.34,5.339V4.386c0-0.585-0.476-1.059-1.061-1.059c-0.584,0-1.059,0.474-1.059,1.059V19.62L7.1,14.28
		c-0.414-0.414-1.084-0.414-1.497,0c-0.207,0.206-0.311,0.477-0.311,0.749c0,0.271,0.104,0.541,0.311,0.748l7.896,7.896
		L21.396,15.777z"/>
</g>
<g id="Layer_12" display="none">
	<path display="inline" fill="#231F20" d="M5.636,3.359v20.284H16.18c0,0,5.184,0,5.184-5.242V3.359H5.636z M15.885,11.846H8.287
		c-0.122,0-0.221-0.099-0.221-0.221s0.099-0.221,0.221-0.221h7.598c0.123,0,0.223,0.099,0.223,0.221S16.008,11.846,15.885,11.846z
		 M18.624,19.193h-1.796v1.797H16.65v-1.973h1.974V19.193z M18.771,9.549H8.287c-0.122,0-0.221-0.099-0.221-0.221
		s0.099-0.221,0.221-0.221h10.484c0.121,0,0.222,0.099,0.222,0.221S18.895,9.549,18.771,9.549z M18.771,7.251H8.287
		c-0.122,0-0.221-0.099-0.221-0.221c0-0.123,0.099-0.221,0.221-0.221h10.484c0.121,0,0.222,0.099,0.222,0.221
		C18.993,7.153,18.895,7.251,18.771,7.251z"/>
</g>
<g id="Layer_13">
	<g>
		<polygon fill="#301948" points="18.449,9.963 17.035,8.55 13.5,12.085 9.964,8.55 8.55,9.963 12.085,13.5 8.55,17.035 
			9.964,18.449 13.5,14.914 17.035,18.449 18.449,17.035 14.914,13.5 		"/>
	</g>
</g>
</svg>
